<?xml version="1.0" encoding="utf-8" standalone="no"?>
<!DOCTYPE svg PUBLIC "-//W3C//DTD SVG 1.1//EN"
  "http://www.w3.org/Graphics/SVG/1.1/DTD/svg11.dtd">
<svg xmlns:xlink="http://www.w3.org/1999/xlink" width="864pt" height="360pt" viewBox="0 0 864 360" xmlns="http://www.w3.org/2000/svg" version="1.1">
 <metadata>
  <rdf:RDF xmlns:dc="http://purl.org/dc/elements/1.1/" xmlns:cc="http://creativecommons.org/ns#" xmlns:rdf="http://www.w3.org/1999/02/22-rdf-syntax-ns#">
   <cc:Work>
    <dc:type rdf:resource="http://purl.org/dc/dcmitype/StillImage"/>
    <dc:date>2024-10-21T16:16:12.356476</dc:date>
    <dc:format>image/svg+xml</dc:format>
    <dc:creator>
     <cc:Agent>
      <dc:title>Matplotlib v3.8.3, https://matplotlib.org/</dc:title>
     </cc:Agent>
    </dc:creator>
   </cc:Work>
  </rdf:RDF>
 </metadata>
 <defs>
  <style type="text/css">*{stroke-linejoin: round; stroke-linecap: butt}</style>
 </defs>
 <g id="figure_1">
  <g id="patch_1">
   <path d="M 0 360 
L 864 360 
L 864 0 
L 0 0 
z
" style="fill: #ffffff"/>
  </g>
  <g id="axes_1">
   <g id="patch_2">
    <path d="M 47.72 318.04 
L 426.6 318.04 
L 426.6 26.88 
L 47.72 26.88 
z
" style="fill: #ffffff"/>
   </g>
   <g id="matplotlib.axis_1">
    <g id="xtick_1">
     <g id="line2d_1">
      <defs>
       <path id="m835ccb22ba" d="M 0 0 
L 0 3.5 
" style="stroke: #000000; stroke-width: 0.8"/>
      </defs>
      <g>
       <use xlink:href="#m835ccb22ba" x="64.941818" y="318.04" style="stroke: #000000; stroke-width: 0.8"/>
      </g>
     </g>
     <g id="text_1">
      <!-- 0 -->
      <g transform="translate(61.760568 332.638438) scale(0.1 -0.1)">
       <defs>
        <path id="DejaVuSans-30" d="M 2034 4250 
Q 1547 4250 1301 3770 
Q 1056 3291 1056 2328 
Q 1056 1369 1301 889 
Q 1547 409 2034 409 
Q 2525 409 2770 889 
Q 3016 1369 3016 2328 
Q 3016 3291 2770 3770 
Q 2525 4250 2034 4250 
z
M 2034 4750 
Q 2819 4750 3233 4129 
Q 3647 3509 3647 2328 
Q 3647 1150 3233 529 
Q 2819 -91 2034 -91 
Q 1250 -91 836 529 
Q 422 1150 422 2328 
Q 422 3509 836 4129 
Q 1250 4750 2034 4750 
z
" transform="scale(0.015625)"/>
       </defs>
       <use xlink:href="#DejaVuSans-30"/>
      </g>
     </g>
    </g>
    <g id="xtick_2">
     <g id="line2d_2">
      <g>
       <use xlink:href="#m835ccb22ba" x="142.868597" y="318.04" style="stroke: #000000; stroke-width: 0.8"/>
      </g>
     </g>
     <g id="text_2">
      <!-- 200 -->
      <g transform="translate(133.324847 332.638438) scale(0.1 -0.1)">
       <defs>
        <path id="DejaVuSans-32" d="M 1228 531 
L 3431 531 
L 3431 0 
L 469 0 
L 469 531 
Q 828 903 1448 1529 
Q 2069 2156 2228 2338 
Q 2531 2678 2651 2914 
Q 2772 3150 2772 3378 
Q 2772 3750 2511 3984 
Q 2250 4219 1831 4219 
Q 1534 4219 1204 4116 
Q 875 4013 500 3803 
L 500 4441 
Q 881 4594 1212 4672 
Q 1544 4750 1819 4750 
Q 2544 4750 2975 4387 
Q 3406 4025 3406 3419 
Q 3406 3131 3298 2873 
Q 3191 2616 2906 2266 
Q 2828 2175 2409 1742 
Q 1991 1309 1228 531 
z
" transform="scale(0.015625)"/>
       </defs>
       <use xlink:href="#DejaVuSans-32"/>
       <use xlink:href="#DejaVuSans-30" x="63.623047"/>
       <use xlink:href="#DejaVuSans-30" x="127.246094"/>
      </g>
     </g>
    </g>
    <g id="xtick_3">
     <g id="line2d_3">
      <g>
       <use xlink:href="#m835ccb22ba" x="220.795376" y="318.04" style="stroke: #000000; stroke-width: 0.8"/>
      </g>
     </g>
     <g id="text_3">
      <!-- 400 -->
      <g transform="translate(211.251626 332.638438) scale(0.1 -0.1)">
       <defs>
        <path id="DejaVuSans-34" d="M 2419 4116 
L 825 1625 
L 2419 1625 
L 2419 4116 
z
M 2253 4666 
L 3047 4666 
L 3047 1625 
L 3713 1625 
L 3713 1100 
L 3047 1100 
L 3047 0 
L 2419 0 
L 2419 1100 
L 313 1100 
L 313 1709 
L 2253 4666 
z
" transform="scale(0.015625)"/>
       </defs>
       <use xlink:href="#DejaVuSans-34"/>
       <use xlink:href="#DejaVuSans-30" x="63.623047"/>
       <use xlink:href="#DejaVuSans-30" x="127.246094"/>
      </g>
     </g>
    </g>
    <g id="xtick_4">
     <g id="line2d_4">
      <g>
       <use xlink:href="#m835ccb22ba" x="298.722155" y="318.04" style="stroke: #000000; stroke-width: 0.8"/>
      </g>
     </g>
     <g id="text_4">
      <!-- 600 -->
      <g transform="translate(289.178405 332.638438) scale(0.1 -0.1)">
       <defs>
        <path id="DejaVuSans-36" d="M 2113 2584 
Q 1688 2584 1439 2293 
Q 1191 2003 1191 1497 
Q 1191 994 1439 701 
Q 1688 409 2113 409 
Q 2538 409 2786 701 
Q 3034 994 3034 1497 
Q 3034 2003 2786 2293 
Q 2538 2584 2113 2584 
z
M 3366 4563 
L 3366 3988 
Q 3128 4100 2886 4159 
Q 2644 4219 2406 4219 
Q 1781 4219 1451 3797 
Q 1122 3375 1075 2522 
Q 1259 2794 1537 2939 
Q 1816 3084 2150 3084 
Q 2853 3084 3261 2657 
Q 3669 2231 3669 1497 
Q 3669 778 3244 343 
Q 2819 -91 2113 -91 
Q 1303 -91 875 529 
Q 447 1150 447 2328 
Q 447 3434 972 4092 
Q 1497 4750 2381 4750 
Q 2619 4750 2861 4703 
Q 3103 4656 3366 4563 
z
" transform="scale(0.015625)"/>
       </defs>
       <use xlink:href="#DejaVuSans-36"/>
       <use xlink:href="#DejaVuSans-30" x="63.623047"/>
       <use xlink:href="#DejaVuSans-30" x="127.246094"/>
      </g>
     </g>
    </g>
    <g id="xtick_5">
     <g id="line2d_5">
      <g>
       <use xlink:href="#m835ccb22ba" x="376.648935" y="318.04" style="stroke: #000000; stroke-width: 0.8"/>
      </g>
     </g>
     <g id="text_5">
      <!-- 800 -->
      <g transform="translate(367.105185 332.638438) scale(0.1 -0.1)">
       <defs>
        <path id="DejaVuSans-38" d="M 2034 2216 
Q 1584 2216 1326 1975 
Q 1069 1734 1069 1313 
Q 1069 891 1326 650 
Q 1584 409 2034 409 
Q 2484 409 2743 651 
Q 3003 894 3003 1313 
Q 3003 1734 2745 1975 
Q 2488 2216 2034 2216 
z
M 1403 2484 
Q 997 2584 770 2862 
Q 544 3141 544 3541 
Q 544 4100 942 4425 
Q 1341 4750 2034 4750 
Q 2731 4750 3128 4425 
Q 3525 4100 3525 3541 
Q 3525 3141 3298 2862 
Q 3072 2584 2669 2484 
Q 3125 2378 3379 2068 
Q 3634 1759 3634 1313 
Q 3634 634 3220 271 
Q 2806 -91 2034 -91 
Q 1263 -91 848 271 
Q 434 634 434 1313 
Q 434 1759 690 2068 
Q 947 2378 1403 2484 
z
M 1172 3481 
Q 1172 3119 1398 2916 
Q 1625 2713 2034 2713 
Q 2441 2713 2670 2916 
Q 2900 3119 2900 3481 
Q 2900 3844 2670 4047 
Q 2441 4250 2034 4250 
Q 1625 4250 1398 4047 
Q 1172 3844 1172 3481 
z
" transform="scale(0.015625)"/>
       </defs>
       <use xlink:href="#DejaVuSans-38"/>
       <use xlink:href="#DejaVuSans-30" x="63.623047"/>
       <use xlink:href="#DejaVuSans-30" x="127.246094"/>
      </g>
     </g>
    </g>
    <g id="text_6">
     <!-- Epochs -->
     <g transform="translate(219.244375 346.316563) scale(0.1 -0.1)">
      <defs>
       <path id="DejaVuSans-45" d="M 628 4666 
L 3578 4666 
L 3578 4134 
L 1259 4134 
L 1259 2753 
L 3481 2753 
L 3481 2222 
L 1259 2222 
L 1259 531 
L 3634 531 
L 3634 0 
L 628 0 
L 628 4666 
z
" transform="scale(0.015625)"/>
       <path id="DejaVuSans-70" d="M 1159 525 
L 1159 -1331 
L 581 -1331 
L 581 3500 
L 1159 3500 
L 1159 2969 
Q 1341 3281 1617 3432 
Q 1894 3584 2278 3584 
Q 2916 3584 3314 3078 
Q 3713 2572 3713 1747 
Q 3713 922 3314 415 
Q 2916 -91 2278 -91 
Q 1894 -91 1617 61 
Q 1341 213 1159 525 
z
M 3116 1747 
Q 3116 2381 2855 2742 
Q 2594 3103 2138 3103 
Q 1681 3103 1420 2742 
Q 1159 2381 1159 1747 
Q 1159 1113 1420 752 
Q 1681 391 2138 391 
Q 2594 391 2855 752 
Q 3116 1113 3116 1747 
z
" transform="scale(0.015625)"/>
       <path id="DejaVuSans-6f" d="M 1959 3097 
Q 1497 3097 1228 2736 
Q 959 2375 959 1747 
Q 959 1119 1226 758 
Q 1494 397 1959 397 
Q 2419 397 2687 759 
Q 2956 1122 2956 1747 
Q 2956 2369 2687 2733 
Q 2419 3097 1959 3097 
z
M 1959 3584 
Q 2709 3584 3137 3096 
Q 3566 2609 3566 1747 
Q 3566 888 3137 398 
Q 2709 -91 1959 -91 
Q 1206 -91 779 398 
Q 353 888 353 1747 
Q 353 2609 779 3096 
Q 1206 3584 1959 3584 
z
" transform="scale(0.015625)"/>
       <path id="DejaVuSans-63" d="M 3122 3366 
L 3122 2828 
Q 2878 2963 2633 3030 
Q 2388 3097 2138 3097 
Q 1578 3097 1268 2742 
Q 959 2388 959 1747 
Q 959 1106 1268 751 
Q 1578 397 2138 397 
Q 2388 397 2633 464 
Q 2878 531 3122 666 
L 3122 134 
Q 2881 22 2623 -34 
Q 2366 -91 2075 -91 
Q 1284 -91 818 406 
Q 353 903 353 1747 
Q 353 2603 823 3093 
Q 1294 3584 2113 3584 
Q 2378 3584 2631 3529 
Q 2884 3475 3122 3366 
z
" transform="scale(0.015625)"/>
       <path id="DejaVuSans-68" d="M 3513 2113 
L 3513 0 
L 2938 0 
L 2938 2094 
Q 2938 2591 2744 2837 
Q 2550 3084 2163 3084 
Q 1697 3084 1428 2787 
Q 1159 2491 1159 1978 
L 1159 0 
L 581 0 
L 581 4863 
L 1159 4863 
L 1159 2956 
Q 1366 3272 1645 3428 
Q 1925 3584 2291 3584 
Q 2894 3584 3203 3211 
Q 3513 2838 3513 2113 
z
" transform="scale(0.015625)"/>
       <path id="DejaVuSans-73" d="M 2834 3397 
L 2834 2853 
Q 2591 2978 2328 3040 
Q 2066 3103 1784 3103 
Q 1356 3103 1142 2972 
Q 928 2841 928 2578 
Q 928 2378 1081 2264 
Q 1234 2150 1697 2047 
L 1894 2003 
Q 2506 1872 2764 1633 
Q 3022 1394 3022 966 
Q 3022 478 2636 193 
Q 2250 -91 1575 -91 
Q 1294 -91 989 -36 
Q 684 19 347 128 
L 347 722 
Q 666 556 975 473 
Q 1284 391 1588 391 
Q 1994 391 2212 530 
Q 2431 669 2431 922 
Q 2431 1156 2273 1281 
Q 2116 1406 1581 1522 
L 1381 1569 
Q 847 1681 609 1914 
Q 372 2147 372 2553 
Q 372 3047 722 3315 
Q 1072 3584 1716 3584 
Q 2034 3584 2315 3537 
Q 2597 3491 2834 3397 
z
" transform="scale(0.015625)"/>
      </defs>
      <use xlink:href="#DejaVuSans-45"/>
      <use xlink:href="#DejaVuSans-70" x="63.183594"/>
      <use xlink:href="#DejaVuSans-6f" x="126.660156"/>
      <use xlink:href="#DejaVuSans-63" x="187.841797"/>
      <use xlink:href="#DejaVuSans-68" x="242.822266"/>
      <use xlink:href="#DejaVuSans-73" x="306.201172"/>
     </g>
    </g>
   </g>
   <g id="matplotlib.axis_2">
    <g id="ytick_1">
     <g id="line2d_6">
      <defs>
       <path id="m7b1f440d4c" d="M 0 0 
L -3.5 0 
" style="stroke: #000000; stroke-width: 0.8"/>
      </defs>
      <g>
       <use xlink:href="#m7b1f440d4c" x="47.72" y="299.368101" style="stroke: #000000; stroke-width: 0.8"/>
      </g>
     </g>
     <g id="text_7">
      <!-- 0.1 -->
      <g transform="translate(24.816875 303.16732) scale(0.1 -0.1)">
       <defs>
        <path id="DejaVuSans-2e" d="M 684 794 
L 1344 794 
L 1344 0 
L 684 0 
L 684 794 
z
" transform="scale(0.015625)"/>
        <path id="DejaVuSans-31" d="M 794 531 
L 1825 531 
L 1825 4091 
L 703 3866 
L 703 4441 
L 1819 4666 
L 2450 4666 
L 2450 531 
L 3481 531 
L 3481 0 
L 794 0 
L 794 531 
z
" transform="scale(0.015625)"/>
       </defs>
       <use xlink:href="#DejaVuSans-30"/>
       <use xlink:href="#DejaVuSans-2e" x="63.623047"/>
       <use xlink:href="#DejaVuSans-31" x="95.410156"/>
      </g>
     </g>
    </g>
    <g id="ytick_2">
     <g id="line2d_7">
      <g>
       <use xlink:href="#m7b1f440d4c" x="47.72" y="263.34563" style="stroke: #000000; stroke-width: 0.8"/>
      </g>
     </g>
     <g id="text_8">
      <!-- 0.2 -->
      <g transform="translate(24.816875 267.144848) scale(0.1 -0.1)">
       <use xlink:href="#DejaVuSans-30"/>
       <use xlink:href="#DejaVuSans-2e" x="63.623047"/>
       <use xlink:href="#DejaVuSans-32" x="95.410156"/>
      </g>
     </g>
    </g>
    <g id="ytick_3">
     <g id="line2d_8">
      <g>
       <use xlink:href="#m7b1f440d4c" x="47.72" y="227.323158" style="stroke: #000000; stroke-width: 0.8"/>
      </g>
     </g>
     <g id="text_9">
      <!-- 0.3 -->
      <g transform="translate(24.816875 231.122377) scale(0.1 -0.1)">
       <defs>
        <path id="DejaVuSans-33" d="M 2597 2516 
Q 3050 2419 3304 2112 
Q 3559 1806 3559 1356 
Q 3559 666 3084 287 
Q 2609 -91 1734 -91 
Q 1441 -91 1130 -33 
Q 819 25 488 141 
L 488 750 
Q 750 597 1062 519 
Q 1375 441 1716 441 
Q 2309 441 2620 675 
Q 2931 909 2931 1356 
Q 2931 1769 2642 2001 
Q 2353 2234 1838 2234 
L 1294 2234 
L 1294 2753 
L 1863 2753 
Q 2328 2753 2575 2939 
Q 2822 3125 2822 3475 
Q 2822 3834 2567 4026 
Q 2313 4219 1838 4219 
Q 1578 4219 1281 4162 
Q 984 4106 628 3988 
L 628 4550 
Q 988 4650 1302 4700 
Q 1616 4750 1894 4750 
Q 2613 4750 3031 4423 
Q 3450 4097 3450 3541 
Q 3450 3153 3228 2886 
Q 3006 2619 2597 2516 
z
" transform="scale(0.015625)"/>
       </defs>
       <use xlink:href="#DejaVuSans-30"/>
       <use xlink:href="#DejaVuSans-2e" x="63.623047"/>
       <use xlink:href="#DejaVuSans-33" x="95.410156"/>
      </g>
     </g>
    </g>
    <g id="ytick_4">
     <g id="line2d_9">
      <g>
       <use xlink:href="#m7b1f440d4c" x="47.72" y="191.300687" style="stroke: #000000; stroke-width: 0.8"/>
      </g>
     </g>
     <g id="text_10">
      <!-- 0.4 -->
      <g transform="translate(24.816875 195.099906) scale(0.1 -0.1)">
       <use xlink:href="#DejaVuSans-30"/>
       <use xlink:href="#DejaVuSans-2e" x="63.623047"/>
       <use xlink:href="#DejaVuSans-34" x="95.410156"/>
      </g>
     </g>
    </g>
    <g id="ytick_5">
     <g id="line2d_10">
      <g>
       <use xlink:href="#m7b1f440d4c" x="47.72" y="155.278216" style="stroke: #000000; stroke-width: 0.8"/>
      </g>
     </g>
     <g id="text_11">
      <!-- 0.5 -->
      <g transform="translate(24.816875 159.077434) scale(0.1 -0.1)">
       <defs>
        <path id="DejaVuSans-35" d="M 691 4666 
L 3169 4666 
L 3169 4134 
L 1269 4134 
L 1269 2991 
Q 1406 3038 1543 3061 
Q 1681 3084 1819 3084 
Q 2600 3084 3056 2656 
Q 3513 2228 3513 1497 
Q 3513 744 3044 326 
Q 2575 -91 1722 -91 
Q 1428 -91 1123 -41 
Q 819 9 494 109 
L 494 744 
Q 775 591 1075 516 
Q 1375 441 1709 441 
Q 2250 441 2565 725 
Q 2881 1009 2881 1497 
Q 2881 1984 2565 2268 
Q 2250 2553 1709 2553 
Q 1456 2553 1204 2497 
Q 953 2441 691 2322 
L 691 4666 
z
" transform="scale(0.015625)"/>
       </defs>
       <use xlink:href="#DejaVuSans-30"/>
       <use xlink:href="#DejaVuSans-2e" x="63.623047"/>
       <use xlink:href="#DejaVuSans-35" x="95.410156"/>
      </g>
     </g>
    </g>
    <g id="ytick_6">
     <g id="line2d_11">
      <g>
       <use xlink:href="#m7b1f440d4c" x="47.72" y="119.255744" style="stroke: #000000; stroke-width: 0.8"/>
      </g>
     </g>
     <g id="text_12">
      <!-- 0.6 -->
      <g transform="translate(24.816875 123.054963) scale(0.1 -0.1)">
       <use xlink:href="#DejaVuSans-30"/>
       <use xlink:href="#DejaVuSans-2e" x="63.623047"/>
       <use xlink:href="#DejaVuSans-36" x="95.410156"/>
      </g>
     </g>
    </g>
    <g id="ytick_7">
     <g id="line2d_12">
      <g>
       <use xlink:href="#m7b1f440d4c" x="47.72" y="83.233273" style="stroke: #000000; stroke-width: 0.8"/>
      </g>
     </g>
     <g id="text_13">
      <!-- 0.7 -->
      <g transform="translate(24.816875 87.032492) scale(0.1 -0.1)">
       <defs>
        <path id="DejaVuSans-37" d="M 525 4666 
L 3525 4666 
L 3525 4397 
L 1831 0 
L 1172 0 
L 2766 4134 
L 525 4134 
L 525 4666 
z
" transform="scale(0.015625)"/>
       </defs>
       <use xlink:href="#DejaVuSans-30"/>
       <use xlink:href="#DejaVuSans-2e" x="63.623047"/>
       <use xlink:href="#DejaVuSans-37" x="95.410156"/>
      </g>
     </g>
    </g>
    <g id="ytick_8">
     <g id="line2d_13">
      <g>
       <use xlink:href="#m7b1f440d4c" x="47.72" y="47.210802" style="stroke: #000000; stroke-width: 0.8"/>
      </g>
     </g>
     <g id="text_14">
      <!-- 0.8 -->
      <g transform="translate(24.816875 51.01002) scale(0.1 -0.1)">
       <use xlink:href="#DejaVuSans-30"/>
       <use xlink:href="#DejaVuSans-2e" x="63.623047"/>
       <use xlink:href="#DejaVuSans-38" x="95.410156"/>
      </g>
     </g>
    </g>
    <g id="text_15">
     <!-- Accuracy -->
     <g transform="translate(18.737188 195.288125) rotate(-90) scale(0.1 -0.1)">
      <defs>
       <path id="DejaVuSans-41" d="M 2188 4044 
L 1331 1722 
L 3047 1722 
L 2188 4044 
z
M 1831 4666 
L 2547 4666 
L 4325 0 
L 3669 0 
L 3244 1197 
L 1141 1197 
L 716 0 
L 50 0 
L 1831 4666 
z
" transform="scale(0.015625)"/>
       <path id="DejaVuSans-75" d="M 544 1381 
L 544 3500 
L 1119 3500 
L 1119 1403 
Q 1119 906 1312 657 
Q 1506 409 1894 409 
Q 2359 409 2629 706 
Q 2900 1003 2900 1516 
L 2900 3500 
L 3475 3500 
L 3475 0 
L 2900 0 
L 2900 538 
Q 2691 219 2414 64 
Q 2138 -91 1772 -91 
Q 1169 -91 856 284 
Q 544 659 544 1381 
z
M 1991 3584 
L 1991 3584 
z
" transform="scale(0.015625)"/>
       <path id="DejaVuSans-72" d="M 2631 2963 
Q 2534 3019 2420 3045 
Q 2306 3072 2169 3072 
Q 1681 3072 1420 2755 
Q 1159 2438 1159 1844 
L 1159 0 
L 581 0 
L 581 3500 
L 1159 3500 
L 1159 2956 
Q 1341 3275 1631 3429 
Q 1922 3584 2338 3584 
Q 2397 3584 2469 3576 
Q 2541 3569 2628 3553 
L 2631 2963 
z
" transform="scale(0.015625)"/>
       <path id="DejaVuSans-61" d="M 2194 1759 
Q 1497 1759 1228 1600 
Q 959 1441 959 1056 
Q 959 750 1161 570 
Q 1363 391 1709 391 
Q 2188 391 2477 730 
Q 2766 1069 2766 1631 
L 2766 1759 
L 2194 1759 
z
M 3341 1997 
L 3341 0 
L 2766 0 
L 2766 531 
Q 2569 213 2275 61 
Q 1981 -91 1556 -91 
Q 1019 -91 701 211 
Q 384 513 384 1019 
Q 384 1609 779 1909 
Q 1175 2209 1959 2209 
L 2766 2209 
L 2766 2266 
Q 2766 2663 2505 2880 
Q 2244 3097 1772 3097 
Q 1472 3097 1187 3025 
Q 903 2953 641 2809 
L 641 3341 
Q 956 3463 1253 3523 
Q 1550 3584 1831 3584 
Q 2591 3584 2966 3190 
Q 3341 2797 3341 1997 
z
" transform="scale(0.015625)"/>
       <path id="DejaVuSans-79" d="M 2059 -325 
Q 1816 -950 1584 -1140 
Q 1353 -1331 966 -1331 
L 506 -1331 
L 506 -850 
L 844 -850 
Q 1081 -850 1212 -737 
Q 1344 -625 1503 -206 
L 1606 56 
L 191 3500 
L 800 3500 
L 1894 763 
L 2988 3500 
L 3597 3500 
L 2059 -325 
z
" transform="scale(0.015625)"/>
      </defs>
      <use xlink:href="#DejaVuSans-41"/>
      <use xlink:href="#DejaVuSans-63" x="66.658203"/>
      <use xlink:href="#DejaVuSans-63" x="121.638672"/>
      <use xlink:href="#DejaVuSans-75" x="176.619141"/>
      <use xlink:href="#DejaVuSans-72" x="239.998047"/>
      <use xlink:href="#DejaVuSans-61" x="281.111328"/>
      <use xlink:href="#DejaVuSans-63" x="342.390625"/>
      <use xlink:href="#DejaVuSans-79" x="397.371094"/>
     </g>
    </g>
   </g>
   <g id="line2d_14">
    <path d="M 64.941818 299.307963 
L 65.331452 297.503832 
L 65.721086 298.706587 
L 66.500354 293.294196 
L 66.889988 292.692818 
L 67.279622 298.10521 
L 67.669255 290.287313 
L 68.058889 299.307963 
L 68.448523 289.685935 
L 68.838157 290.287313 
L 69.227791 293.294196 
L 69.617425 286.679052 
L 70.007059 296.902457 
L 70.396693 290.287313 
L 70.786327 289.084557 
L 71.565594 275.854269 
L 71.955228 280.66528 
L 72.734496 294.496949 
L 73.12413 277.658397 
L 73.513764 281.868035 
L 73.903398 288.48318 
L 74.293032 277.057019 
L 75.072299 280.66528 
L 75.461933 272.246008 
L 75.851567 267.434992 
L 76.241201 269.239125 
L 76.630835 269.239125 
L 77.020469 278.259774 
L 77.410103 270.441875 
L 77.799737 271.043253 
L 78.189371 277.658397 
L 78.968638 246.988181 
L 79.358272 268.637747 
L 79.747906 260.21847 
L 80.13754 259.015714 
L 80.527174 256.610209 
L 80.916808 249.995064 
L 81.306442 253.001948 
L 81.696076 261.421225 
L 82.08571 254.204703 
L 82.475343 254.204703 
L 82.864977 245.785426 
L 83.254611 262.623975 
L 83.644245 250.596442 
L 84.033879 246.988181 
L 84.423513 249.995064 
L 84.813147 254.204703 
L 85.202781 248.792309 
L 85.592415 245.184053 
L 85.982049 245.785426 
L 86.371682 235.562021 
L 86.761316 237.366148 
L 87.15095 239.771659 
L 87.540584 230.75101 
L 87.930218 243.379915 
L 88.319852 231.953765 
L 88.709486 239.170276 
L 89.09912 240.373032 
L 89.488754 237.366148 
L 89.878387 240.974415 
L 90.268021 227.744126 
L 91.047289 238.568904 
L 91.436923 227.142743 
L 91.826557 233.757893 
L 92.216191 224.737243 
L 92.605825 229.548254 
L 92.995459 228.946871 
L 93.774726 216.919338 
L 94.16436 234.359265 
L 94.553994 211.506944 
L 95.333262 226.541371 
L 95.722896 214.513827 
L 96.11253 223.534488 
L 96.502164 219.926221 
L 96.891798 228.345499 
L 97.281432 207.297305 
L 97.671065 221.128977 
L 98.060699 219.324849 
L 98.450333 220.527604 
L 98.839967 217.520721 
L 99.229601 210.304199 
L 99.619235 213.912455 
L 100.008869 219.926221 
L 100.398503 215.716583 
L 100.788137 206.094561 
L 101.17777 201.884922 
L 101.567404 207.898688 
L 101.957038 208.500061 
L 102.346672 214.513827 
L 102.736306 217.520721 
L 103.12594 211.506944 
L 103.515574 207.297305 
L 103.905208 213.311082 
L 104.294842 194.6684 
L 104.684476 195.269772 
L 105.074109 210.905572 
L 105.463743 210.905572 
L 105.853377 208.500061 
L 106.243011 203.087677 
L 106.632645 199.479411 
L 107.022279 200.080783 
L 107.411913 204.290422 
L 107.801547 203.68905 
L 108.191181 203.68905 
L 108.580814 188.05325 
L 108.970448 194.6684 
L 109.360082 204.290422 
L 109.749716 204.290422 
L 110.13935 196.472528 
L 110.528984 194.067017 
L 110.918618 203.68905 
L 111.308252 194.6684 
L 111.697886 198.276656 
L 112.08752 198.276656 
L 112.477153 191.661517 
L 112.866787 188.654633 
L 113.256421 192.864261 
L 113.646055 179.032601 
L 114.035689 194.6684 
L 114.425323 189.857378 
L 115.204591 196.472528 
L 115.594225 182.640856 
L 115.983858 182.640856 
L 116.373492 192.262889 
L 116.763126 180.836728 
L 117.15276 189.256006 
L 117.542394 188.654633 
L 117.932028 190.458761 
L 118.321662 188.654633 
L 118.711296 183.242239 
L 119.10093 190.458761 
L 119.490564 164.599557 
L 119.880197 182.640856 
L 120.269831 183.843612 
L 121.049099 187.451878 
L 121.438733 183.242239 
L 121.828367 177.228473 
L 122.218001 185.647739 
L 122.997269 173.620207 
L 123.386903 183.843612 
L 124.16617 168.809195 
L 124.555804 177.829845 
L 124.945438 174.22159 
L 125.335072 186.249123 
L 125.724706 186.249123 
L 126.11434 179.032601 
L 126.503974 188.654633 
L 126.893608 167.005068 
L 127.283241 169.410568 
L 127.672875 167.005068 
L 128.062509 177.228473 
L 128.452143 182.039484 
L 128.841777 174.822962 
L 129.231411 180.836728 
L 129.621045 167.60644 
L 130.010679 168.207812 
L 130.400313 183.843612 
L 130.789947 185.647739 
L 131.17958 168.207812 
L 131.569214 173.620207 
L 131.958848 168.809195 
L 132.348482 170.011951 
L 132.738116 165.200929 
L 133.517384 178.431228 
L 133.907018 161.592674 
L 134.686285 171.214706 
L 135.075919 162.795429 
L 135.465553 168.207812 
L 135.855187 163.998184 
L 136.244821 154.376152 
L 136.634455 168.809195 
L 137.024089 168.809195 
L 137.413723 151.970641 
L 137.803357 154.977535 
L 138.192991 166.403685 
L 138.582624 160.389918 
L 138.972258 163.396801 
L 139.361892 162.194046 
L 139.751526 163.396801 
L 140.530794 156.781662 
L 140.920428 159.788546 
L 141.310062 163.998184 
L 141.699696 162.194046 
L 142.089329 153.173407 
L 142.478963 148.362385 
L 142.868597 161.592674 
L 143.258231 153.774769 
L 143.647865 161.592674 
L 144.037499 157.984407 
L 144.427133 163.396801 
L 144.816767 165.802312 
L 145.206401 157.383035 
L 145.596035 162.194046 
L 145.985668 154.376152 
L 146.375302 154.376152 
L 146.764936 163.998184 
L 147.15457 162.194046 
L 147.544204 156.781662 
L 147.933838 153.774769 
L 148.323472 157.383035 
L 148.713106 154.977535 
L 149.10274 148.362385 
L 149.492374 150.767896 
L 149.882007 160.99129 
L 150.271641 146.558257 
L 150.661275 145.355491 
L 151.440543 149.56513 
L 151.830177 161.592674 
L 152.219811 154.376152 
L 152.609445 149.56513 
L 152.999079 154.376152 
L 153.388712 144.75413 
L 153.778346 157.984407 
L 154.16798 148.963768 
L 154.557614 151.369258 
L 154.947248 159.187163 
L 155.336882 139.943108 
L 155.726516 148.963768 
L 156.11615 150.767896 
L 156.505784 151.369258 
L 156.895418 159.187163 
L 157.285051 138.13898 
L 157.674685 139.341725 
L 158.064319 145.355491 
L 158.453953 145.355491 
L 158.843587 143.551363 
L 159.233221 144.152746 
L 159.622855 148.963768 
L 160.402123 136.936214 
L 160.791756 142.94998 
L 161.18139 136.936214 
L 161.571024 148.362385 
L 161.960658 150.166513 
L 162.350292 141.747236 
L 162.739926 144.75413 
L 163.12956 138.13898 
L 163.519194 142.94998 
L 163.908828 139.341725 
L 164.298462 140.544491 
L 164.688095 135.132086 
L 165.077729 142.348619 
L 165.467363 139.341725 
L 165.856997 145.355491 
L 166.246631 135.132086 
L 166.636265 140.544491 
L 167.025899 142.94998 
L 167.415533 133.327958 
L 167.805167 139.943108 
L 168.1948 138.13898 
L 168.584434 138.13898 
L 168.974068 124.908681 
L 169.363702 127.915575 
L 169.753336 133.929341 
L 170.14297 129.719703 
L 170.532604 134.530724 
L 170.922238 128.516958 
L 171.311872 132.726575 
L 171.701506 130.922447 
L 172.091139 127.915575 
L 172.480773 136.936214 
L 172.870407 137.537597 
L 173.260041 139.341725 
L 173.649675 126.712809 
L 174.039309 138.13898 
L 174.818577 124.908681 
L 175.208211 127.314192 
L 175.597845 126.712809 
L 175.987478 134.530724 
L 176.377112 137.537597 
L 176.766746 128.516958 
L 177.15638 138.740363 
L 177.546014 134.530724 
L 177.935648 133.929341 
L 178.325282 124.908681 
L 178.714916 133.929341 
L 179.10455 123.705936 
L 179.494183 125.510064 
L 179.883817 131.52383 
L 180.273451 133.327958 
L 180.663085 133.929341 
L 181.052719 129.118319 
L 181.442353 122.50317 
L 181.831987 130.321086 
L 182.221621 128.516958 
L 182.611255 128.516958 
L 183.000889 118.293531 
L 183.390522 124.908681 
L 183.780156 126.712809 
L 184.16979 129.118319 
L 184.559424 128.516958 
L 184.949058 120.699042 
L 185.338692 128.516958 
L 185.728326 129.719703 
L 186.11796 124.908681 
L 186.507594 130.922447 
L 186.897227 112.881148 
L 187.286861 128.516958 
L 187.676495 124.307319 
L 188.066129 121.901808 
L 188.455763 126.712809 
L 188.845397 126.712809 
L 189.235031 123.104553 
L 189.624665 126.712809 
L 190.403933 116.489403 
L 190.793566 132.125213 
L 191.1832 130.922447 
L 191.962468 115.888042 
L 192.352102 129.719703 
L 192.741736 102.05636 
L 193.13137 110.475637 
L 193.521004 126.111447 
L 193.910638 126.111447 
L 194.300271 122.50317 
L 194.689905 121.300425 
L 195.079539 126.111447 
L 195.469173 114.685276 
L 195.858807 115.888042 
L 196.248441 109.874275 
L 197.806977 118.894914 
L 198.19661 114.685276 
L 198.586244 119.496297 
L 198.975878 115.888042 
L 199.365512 117.090787 
L 199.755146 120.699042 
L 200.14478 112.881148 
L 200.534414 114.083914 
L 200.924048 109.272892 
L 201.313682 127.915575 
L 201.703316 109.272892 
L 202.092949 114.083914 
L 202.482583 117.090787 
L 202.872217 121.901808 
L 203.261851 120.699042 
L 203.651485 118.293531 
L 204.041119 118.894914 
L 204.430753 115.888042 
L 204.820387 106.265998 
L 205.210021 111.07702 
L 205.599654 105.664637 
L 205.989288 121.300425 
L 206.378922 117.090787 
L 206.768556 103.860487 
L 207.15819 125.510064 
L 207.547824 98.448104 
L 207.937458 120.09768 
L 208.716726 106.265998 
L 209.10636 122.50317 
L 209.495993 109.874275 
L 209.885627 105.664637 
L 210.275261 112.881148 
L 210.664895 109.874275 
L 211.054529 108.070126 
L 211.444163 108.070126 
L 211.833797 111.07702 
L 212.223431 107.468764 
L 212.613065 115.286659 
L 213.002698 108.070126 
L 213.392332 109.874275 
L 213.781966 114.685276 
L 214.1716 103.860487 
L 214.561234 106.867381 
L 214.950868 111.07702 
L 215.340502 107.468764 
L 215.730136 108.671509 
L 216.509404 102.05636 
L 216.899037 116.489403 
L 217.288671 107.468764 
L 217.678305 111.678403 
L 218.067939 103.860487 
L 218.457573 112.881148 
L 219.236841 95.441231 
L 219.626475 103.259126 
L 220.016109 105.063254 
L 220.405742 110.475637 
L 220.795376 90.028827 
L 221.18501 106.265998 
L 221.574644 104.46187 
L 221.964278 104.46187 
L 222.353912 100.252232 
L 222.743546 106.867381 
L 223.13318 99.049487 
L 223.912448 104.46187 
L 224.302081 104.46187 
L 224.691715 103.259126 
L 225.081349 106.867381 
L 225.470983 97.245359 
L 225.860617 96.643976 
L 226.250251 100.252232 
L 226.639885 100.252232 
L 227.029519 94.839848 
L 227.419153 103.259126 
L 227.808787 99.65087 
L 228.19842 99.049487 
L 228.588054 103.259126 
L 228.977688 111.678403 
L 229.367322 95.441231 
L 229.756956 111.678403 
L 230.14659 99.049487 
L 230.536224 109.874275 
L 230.925858 103.860487 
L 231.315492 105.063254 
L 231.705125 93.637082 
L 232.094759 97.846721 
L 232.484393 94.839848 
L 232.874027 90.028827 
L 233.263661 97.245359 
L 233.653295 96.042593 
L 234.042929 96.643976 
L 234.432563 100.853615 
L 234.822197 94.238465 
L 235.211831 99.049487 
L 235.601464 100.252232 
L 235.991098 90.63021 
L 236.380732 91.231593 
L 236.770366 92.434337 
L 237.16 90.63021 
L 237.549634 93.637082 
L 237.939268 99.049487 
L 238.328902 96.643976 
L 238.718536 108.671509 
L 239.108169 93.035721 
L 239.497803 99.049487 
L 239.887437 96.042593 
L 240.277071 103.259126 
L 240.666705 98.448104 
L 241.056339 102.05636 
L 241.445973 99.65087 
L 241.835607 99.65087 
L 242.225241 93.035721 
L 242.614875 89.427444 
L 243.004508 87.623316 
L 243.394142 94.238465 
L 243.783776 94.238465 
L 244.17341 91.832954 
L 244.563044 94.839848 
L 244.952678 88.826082 
L 245.342312 98.448104 
L 245.731946 89.427444 
L 246.12158 108.671509 
L 246.511213 96.042593 
L 246.900847 90.028827 
L 247.290481 97.846721 
L 247.680115 96.042593 
L 248.069749 96.042593 
L 248.459383 99.65087 
L 248.849017 88.826082 
L 249.238651 94.839848 
L 249.628285 85.819188 
L 250.017919 99.65087 
L 250.407552 102.05636 
L 250.797186 90.028827 
L 251.18682 88.224699 
L 251.576454 85.217826 
L 251.966088 93.637082 
L 252.745356 77.399911 
L 253.13499 91.231593 
L 253.524624 94.238465 
L 253.914258 90.028827 
L 254.303891 96.643976 
L 254.693525 94.238465 
L 255.083159 89.427444 
L 255.472793 93.035721 
L 255.862427 91.832954 
L 256.252061 98.448104 
L 256.641695 79.805421 
L 257.031329 95.441231 
L 257.420963 92.434337 
L 257.810596 83.413677 
L 258.20023 101.454998 
L 258.589864 78.001294 
L 258.979498 83.413677 
L 259.369132 94.839848 
L 259.758766 95.441231 
L 260.1484 83.413677 
L 260.538034 88.826082 
L 260.927668 79.204038 
L 261.706935 97.846721 
L 262.096569 85.217826 
L 262.486203 99.049487 
L 262.875837 97.245359 
L 263.265471 87.623316 
L 263.655105 81.008188 
L 264.044739 86.420571 
L 264.434373 74.994421 
L 264.824007 83.413677 
L 265.21364 70.183399 
L 265.603274 84.01506 
L 265.992908 82.812315 
L 266.772176 92.434337 
L 267.16181 86.420571 
L 267.551444 75.595783 
L 268.330712 82.210932 
L 268.720346 88.826082 
L 269.109979 84.616443 
L 269.499613 93.035721 
L 269.889247 82.812315 
L 270.668515 90.63021 
L 271.058149 86.420571 
L 271.447783 97.245359 
L 271.837417 86.420571 
L 272.227051 84.616443 
L 272.616684 84.616443 
L 273.006318 95.441231 
L 273.395952 79.204038 
L 273.785586 84.01506 
L 274.17522 84.01506 
L 274.564854 91.231593 
L 274.954488 88.224699 
L 275.344122 82.210932 
L 275.733756 79.805421 
L 276.12339 83.413677 
L 276.513023 78.001294 
L 276.902657 74.393038 
L 277.292291 82.210932 
L 277.681925 76.197166 
L 278.071559 73.190272 
L 278.461193 92.434337 
L 278.850827 75.595783 
L 279.240461 78.001294 
L 279.630095 72.58891 
L 280.019729 79.805421 
L 280.409362 74.393038 
L 280.798996 86.420571 
L 281.18863 72.58891 
L 281.578264 78.602677 
L 281.967898 77.399911 
L 282.357532 81.609549 
L 282.747166 81.008188 
L 283.526434 71.386144 
L 284.305701 78.001294 
L 284.695335 84.01506 
L 285.084969 72.58891 
L 285.474603 73.791655 
L 285.864237 84.616443 
L 286.253871 75.595783 
L 286.643505 79.805421 
L 287.033139 71.386144 
L 287.422773 71.987527 
L 287.812406 81.609549 
L 288.20204 69.582016 
L 288.591674 70.784782 
L 288.981308 79.805421 
L 289.370942 71.386144 
L 289.760576 88.224699 
L 290.15021 85.217826 
L 290.539844 75.595783 
L 290.929478 81.008188 
L 291.319111 70.183399 
L 291.708745 69.582016 
L 292.098379 73.791655 
L 292.488013 83.413677 
L 292.877647 77.399911 
L 293.267281 82.812315 
L 293.656915 82.210932 
L 294.046549 76.798549 
L 294.436183 67.777888 
L 295.21545 78.602677 
L 295.605084 65.372378 
L 295.994718 76.197166 
L 296.384352 74.994421 
L 296.773986 78.001294 
L 297.16362 69.582016 
L 297.553254 71.987527 
L 297.942888 88.224699 
L 298.332522 80.406805 
L 298.722155 76.197166 
L 299.111789 73.791655 
L 299.501423 75.595783 
L 299.891057 71.987527 
L 300.280691 64.169633 
L 300.670325 79.204038 
L 301.059959 70.784782 
L 301.449593 74.393038 
L 301.839227 66.575144 
L 302.228861 77.399911 
L 302.618494 67.176505 
L 303.008128 86.420571 
L 303.397762 76.197166 
L 303.787396 82.210932 
L 304.566664 71.386144 
L 304.956298 74.393038 
L 305.345932 67.777888 
L 305.735566 71.987527 
L 306.1252 83.413677 
L 306.514833 73.190272 
L 306.904467 70.784782 
L 307.294101 70.183399 
L 307.683735 68.980633 
L 308.463003 71.386144 
L 308.852637 71.386144 
L 309.242271 68.379272 
L 309.631905 74.393038 
L 310.021538 71.987527 
L 310.411172 74.994421 
L 310.800806 71.987527 
L 311.19044 67.176505 
L 311.580074 67.777888 
L 311.969708 65.973761 
L 312.359342 68.379272 
L 312.748976 72.58891 
L 313.13861 68.379272 
L 313.528244 81.008188 
L 313.917877 74.994421 
L 314.307511 71.987527 
L 314.697145 67.176505 
L 315.086779 71.386144 
L 315.476413 72.58891 
L 315.866047 76.197166 
L 316.255681 67.176505 
L 316.645315 69.582016 
L 317.034949 68.379272 
L 317.814216 58.757228 
L 318.20385 65.973761 
L 318.593484 64.169633 
L 318.983118 68.980633 
L 319.372752 62.966867 
L 319.762386 65.372378 
L 320.15202 76.798549 
L 320.541654 68.980633 
L 320.931288 64.169633 
L 321.320921 68.980633 
L 321.710555 66.575144 
L 322.100189 69.582016 
L 322.489823 65.372378 
L 322.879457 77.399911 
L 323.269091 64.169633 
L 323.658725 65.973761 
L 324.048359 67.176505 
L 324.437993 73.190272 
L 324.827626 65.372378 
L 325.21726 71.386144 
L 325.606894 62.966867 
L 325.996528 70.183399 
L 326.386162 68.980633 
L 326.775796 70.784782 
L 327.16543 59.358611 
L 327.555064 66.575144 
L 327.944698 69.582016 
L 328.334332 62.365505 
L 328.723965 62.365505 
L 329.113599 76.197166 
L 329.503233 65.973761 
L 329.892867 69.582016 
L 330.282501 59.959994 
L 330.672135 67.777888 
L 331.061769 68.379272 
L 331.451403 70.784782 
L 331.841037 69.582016 
L 332.230671 56.9531 
L 332.620304 67.176505 
L 333.009938 70.784782 
L 333.399572 69.582016 
L 333.789206 53.946228 
L 334.17884 68.980633 
L 334.568474 53.344845 
L 334.958108 65.372378 
L 335.347742 66.575144 
L 335.737376 56.351739 
L 336.127009 72.58891 
L 336.516643 59.959994 
L 336.906277 71.386144 
L 337.295911 68.980633 
L 337.685545 65.372378 
L 338.075179 59.358611 
L 338.854447 70.183399 
L 339.244081 62.365505 
L 339.633715 71.987527 
L 340.023348 63.56825 
L 340.412982 65.372378 
L 340.802616 68.980633 
L 341.19225 64.169633 
L 341.581884 64.770994 
L 341.971518 59.358611 
L 342.361152 65.372378 
L 342.750786 57.554483 
L 343.14042 59.358611 
L 343.530053 52.743462 
L 343.919687 51.540717 
L 344.309321 63.56825 
L 344.698955 65.973761 
L 345.088589 61.162739 
L 345.478223 64.169633 
L 345.867857 56.9531 
L 346.257491 67.176505 
L 346.647125 61.764122 
L 347.036759 67.176505 
L 347.426392 64.770994 
L 348.20566 52.1421 
L 348.595294 53.344845 
L 348.984928 50.939334 
L 349.374562 62.365505 
L 349.764196 64.770994 
L 350.15383 55.148972 
L 350.543464 53.344845 
L 350.933097 58.155866 
L 351.322731 54.547589 
L 351.712365 55.148972 
L 352.101999 64.169633 
L 352.491633 65.973761 
L 352.881267 61.162739 
L 353.270901 70.183399 
L 353.660535 62.365505 
L 354.050169 62.966867 
L 354.439803 50.939334 
L 354.829436 66.575144 
L 355.21907 65.372378 
L 355.608704 73.190272 
L 355.998338 59.959994 
L 356.387972 51.540717 
L 357.16724 58.155866 
L 357.556874 56.9531 
L 357.946508 63.56825 
L 358.336142 60.561377 
L 358.725775 61.162739 
L 359.115409 53.946228 
L 359.505043 64.169633 
L 359.894677 59.959994 
L 360.284311 60.561377 
L 360.673945 51.540717 
L 361.063579 58.155866 
L 361.453213 50.337951 
L 361.842847 56.351739 
L 362.23248 55.750355 
L 362.622114 58.155866 
L 363.011748 55.750355 
L 363.401382 60.561377 
L 364.18065 50.939334 
L 364.570284 52.743462 
L 364.959918 56.9531 
L 365.349552 58.155866 
L 365.739186 58.155866 
L 366.128819 53.344845 
L 366.518453 58.757228 
L 366.908087 50.939334 
L 367.297721 50.939334 
L 367.687355 55.750355 
L 368.076989 63.56825 
L 368.466623 55.148972 
L 368.856257 41.918695 
L 369.245891 59.959994 
L 370.025158 49.135206 
L 370.414792 46.128333 
L 371.19406 60.561377 
L 371.583694 47.932461 
L 371.973328 58.155866 
L 372.362962 56.9531 
L 372.752596 46.729695 
L 373.14223 56.351739 
L 373.531863 48.533823 
L 373.921497 49.736589 
L 374.311131 55.750355 
L 374.700765 57.554483 
L 375.090399 55.148972 
L 375.480033 58.757228 
L 375.869667 57.554483 
L 376.648935 46.729695 
L 377.038568 48.533823 
L 377.428202 55.750355 
L 377.817836 43.121439 
L 378.20747 55.750355 
L 378.986738 52.1421 
L 379.376372 46.729695 
L 380.15564 57.554483 
L 380.545274 45.52695 
L 380.934907 40.114545 
L 381.324541 56.351739 
L 381.714175 46.729695 
L 382.103809 56.351739 
L 382.493443 56.351739 
L 382.883077 48.533823 
L 383.272711 60.561377 
L 384.051979 51.540717 
L 384.441613 54.547589 
L 384.831246 49.135206 
L 385.22088 56.9531 
L 385.610514 50.939334 
L 386.000148 46.729695 
L 386.389782 52.743462 
L 386.779416 45.52695 
L 387.16905 55.750355 
L 387.558684 54.547589 
L 387.948318 55.750355 
L 388.337951 57.554483 
L 388.727585 47.932461 
L 389.117219 47.932461 
L 389.506853 60.561377 
L 389.896487 46.729695 
L 390.286121 50.337951 
L 390.675755 49.736589 
L 391.065389 59.358611 
L 391.455023 46.128333 
L 391.844657 49.135206 
L 392.23429 48.533823 
L 392.623924 49.135206 
L 393.013558 53.344845 
L 393.792826 43.722823 
L 394.18246 53.344845 
L 394.572094 49.135206 
L 394.961728 49.135206 
L 395.351362 44.925567 
L 396.130629 51.540717 
L 396.520263 41.317312 
L 396.909897 46.729695 
L 397.299531 58.155866 
L 397.689165 55.148972 
L 398.078799 47.331078 
L 398.468433 50.939334 
L 398.858067 59.959994 
L 399.247701 44.324184 
L 400.026968 60.561377 
L 400.416602 52.743462 
L 400.806236 49.135206 
L 401.19587 47.932461 
L 401.585504 52.1421 
L 401.975138 51.540717 
L 402.364772 57.554483 
L 402.754406 46.128333 
L 403.144039 55.750355 
L 403.533673 55.750355 
L 403.923307 54.547589 
L 404.312941 53.946228 
L 404.702575 56.351739 
L 405.092209 61.162739 
L 405.481843 47.932461 
L 405.871477 47.331078 
L 406.261111 51.540717 
L 406.650745 52.743462 
L 407.040378 50.337951 
L 407.430012 46.128333 
L 407.819646 56.9531 
L 408.20928 55.148972 
L 408.598914 50.939334 
L 408.988548 56.9531 
L 409.378182 49.135206 
L 409.378182 49.135206 
" clip-path="url(#pfa09cacd01)" style="fill: none; stroke: #1f77b4; stroke-width: 1.5; stroke-linecap: square"/>
   </g>
   <g id="line2d_15">
    <path d="M 64.941818 301.407108 
L 65.331452 304.805455 
L 65.721086 298.008762 
L 66.11072 298.008762 
L 66.500354 294.610415 
L 67.279622 294.610415 
L 67.669255 298.008762 
L 68.058889 304.805455 
L 68.448523 301.407108 
L 68.838157 301.407108 
L 69.227791 294.610415 
L 69.617425 294.610415 
L 70.396693 281.01703 
L 70.786327 277.618686 
L 71.565594 277.618686 
L 72.344862 264.0253 
L 72.734496 264.0253 
L 73.12413 253.830259 
L 73.513764 247.033566 
L 73.903398 243.635217 
L 74.293032 247.033566 
L 74.682666 247.033566 
L 75.851567 226.643487 
L 76.630835 226.643487 
L 77.020469 223.245144 
L 77.410103 223.245144 
L 77.799737 219.8468 
L 78.189371 223.245144 
L 78.579005 223.245144 
L 78.968638 226.643487 
L 80.13754 226.643487 
L 80.527174 223.245144 
L 81.306442 223.245144 
L 82.08571 216.448445 
L 82.864977 216.448445 
L 83.644245 209.651758 
L 84.033879 209.651758 
L 84.813147 216.448445 
L 86.371682 216.448445 
L 87.15095 209.651758 
L 87.540584 209.651758 
L 87.930218 206.253414 
L 90.268021 206.253414 
L 90.657655 202.85506 
L 91.047289 202.85506 
L 91.436923 199.456716 
L 91.826557 202.85506 
L 92.216191 199.456716 
L 92.605825 202.85506 
L 92.995459 199.456716 
L 93.385093 199.456716 
L 93.774726 202.85506 
L 95.333262 202.85506 
L 95.722896 199.456716 
L 96.502164 199.456716 
L 96.891798 196.058372 
L 97.281432 199.456716 
L 97.671065 199.456716 
L 98.060699 196.058372 
L 98.450333 196.058372 
L 98.839967 199.456716 
L 99.229601 199.456716 
L 99.619235 196.058372 
L 100.008869 199.456716 
L 100.398503 199.456716 
L 100.788137 196.058372 
L 101.567404 196.058372 
L 101.957038 192.660029 
L 102.346672 196.058372 
L 104.294842 196.058372 
L 104.684476 192.660029 
L 110.13935 192.660029 
L 110.528984 189.261674 
L 113.646055 189.261674 
L 114.035689 185.86333 
L 114.425323 185.86333 
L 114.814957 189.261674 
L 115.594225 189.261674 
L 115.983858 185.86333 
L 116.763126 185.86333 
L 117.15276 189.261674 
L 117.542394 189.261674 
L 118.321662 182.464987 
L 118.711296 182.464987 
L 119.10093 185.86333 
L 119.880197 179.066643 
L 120.269831 179.066643 
L 120.659465 175.668289 
L 121.828367 175.668289 
L 122.218001 172.269945 
L 122.607635 172.269945 
L 122.997269 175.668289 
L 123.386903 172.269945 
L 124.555804 172.269945 
L 124.945438 168.871601 
L 128.452143 168.871601 
L 128.841777 165.473257 
L 134.296652 165.473257 
L 134.686285 162.074903 
L 135.075919 165.473257 
L 136.244821 155.278216 
L 139.361892 155.278216 
L 139.751526 158.676559 
L 140.14116 158.676559 
L 140.530794 155.278216 
L 152.999079 155.278216 
L 153.388712 151.879861 
L 156.505784 151.879861 
L 156.895418 148.481528 
L 157.285051 151.879861 
L 158.453953 151.879861 
L 158.843587 148.481528 
L 160.012489 148.481528 
L 160.402123 151.879861 
L 160.791756 151.879861 
L 161.18139 148.481528 
L 161.571024 148.481528 
L 162.350292 141.684841 
L 164.298462 141.684841 
L 164.688095 138.286486 
L 165.467363 138.286486 
L 165.856997 141.684841 
L 166.246631 138.286486 
L 167.415533 138.286486 
L 167.805167 141.684841 
L 168.1948 141.684841 
L 168.584434 134.888132 
L 169.753336 134.888132 
L 170.532604 128.091444 
L 176.766746 128.091444 
L 177.15638 124.69309 
L 180.273451 124.69309 
L 180.663085 128.091444 
L 190.014299 128.091444 
L 190.403933 124.69309 
L 190.793566 124.69309 
L 191.1832 128.091444 
L 191.572834 124.69309 
L 193.910638 124.69309 
L 194.300271 121.294757 
L 200.924048 121.294757 
L 201.313682 124.69309 
L 201.703316 121.294757 
L 209.10636 121.294757 
L 209.495993 124.69309 
L 209.885627 121.294757 
L 210.275261 121.294757 
L 210.664895 124.69309 
L 212.223431 124.69309 
L 212.613065 121.294757 
L 213.392332 121.294757 
L 213.781966 124.69309 
L 214.1716 121.294757 
L 224.302081 121.294757 
L 224.691715 124.69309 
L 226.250251 124.69309 
L 226.639885 121.294757 
L 227.029519 124.69309 
L 230.14659 124.69309 
L 230.536224 121.294757 
L 231.315492 121.294757 
L 231.705125 124.69309 
L 235.601464 124.69309 
L 235.991098 121.294757 
L 236.380732 124.69309 
L 241.835607 124.69309 
L 242.225241 121.294757 
L 243.004508 121.294757 
L 243.394142 124.69309 
L 245.342312 124.69309 
L 245.731946 121.294757 
L 246.511213 121.294757 
L 246.900847 117.896402 
L 247.290481 121.294757 
L 247.680115 121.294757 
L 248.069749 124.69309 
L 248.459383 124.69309 
L 248.849017 121.294757 
L 249.238651 124.69309 
L 249.628285 121.294757 
L 252.745356 121.294757 
L 253.13499 124.69309 
L 253.914258 124.69309 
L 254.693525 117.896402 
L 255.862427 117.896402 
L 256.252061 114.498069 
L 256.641695 121.294757 
L 258.20023 121.294757 
L 258.589864 114.498069 
L 259.758766 114.498069 
L 260.1484 117.896402 
L 261.317302 117.896402 
L 261.706935 121.294757 
L 262.096569 121.294757 
L 262.486203 117.896402 
L 264.044739 117.896402 
L 264.434373 114.498069 
L 264.824007 117.896402 
L 265.21364 114.498069 
L 265.603274 114.498069 
L 265.992908 117.896402 
L 266.772176 111.099715 
L 267.16181 111.099715 
L 267.941078 117.896402 
L 268.720346 111.099715 
L 269.109979 111.099715 
L 269.499613 117.896402 
L 269.889247 117.896402 
L 270.278881 121.294757 
L 273.395952 121.294757 
L 274.564854 111.099715 
L 274.954488 114.498069 
L 281.18863 114.498069 
L 281.578264 117.896402 
L 282.357532 117.896402 
L 282.747166 114.498069 
L 283.1368 114.498069 
L 283.526434 117.896402 
L 283.916067 114.498069 
L 284.305701 114.498069 
L 284.695335 117.896402 
L 287.033139 117.896402 
L 287.422773 121.294757 
L 287.812406 114.498069 
L 288.20204 114.498069 
L 288.591674 111.099715 
L 289.370942 111.099715 
L 290.15021 117.896402 
L 291.319111 117.896402 
L 291.708745 114.498069 
L 292.877647 114.498069 
L 293.267281 117.896402 
L 294.825817 117.896402 
L 295.605084 111.099715 
L 295.994718 111.099715 
L 296.384352 117.896402 
L 296.773986 114.498069 
L 297.553254 114.498069 
L 297.942888 117.896402 
L 298.332522 114.498069 
L 298.722155 114.498069 
L 299.111789 111.099715 
L 299.891057 111.099715 
L 300.280691 117.896402 
L 300.670325 117.896402 
L 301.059959 114.498069 
L 301.449593 114.498069 
L 301.839227 111.099715 
L 303.397762 111.099715 
L 304.17703 117.896402 
L 304.566664 117.896402 
L 305.345932 111.099715 
L 307.683735 111.099715 
L 308.073369 107.70136 
L 308.463003 107.70136 
L 308.852637 111.099715 
L 309.242271 107.70136 
L 310.021538 107.70136 
L 310.800806 114.498069 
L 311.969708 104.303028 
L 312.359342 114.498069 
L 312.748976 111.099715 
L 314.307511 111.099715 
L 314.697145 107.70136 
L 315.476413 107.70136 
L 315.866047 104.303028 
L 317.424582 104.303028 
L 317.814216 107.70136 
L 318.593484 107.70136 
L 318.983118 111.099715 
L 319.372752 111.099715 
L 319.762386 104.303028 
L 320.931288 104.303028 
L 321.710555 111.099715 
L 322.100189 111.099715 
L 322.489823 107.70136 
L 322.879457 111.099715 
L 323.269091 107.70136 
L 323.658725 107.70136 
L 324.048359 114.498069 
L 326.386162 114.498069 
L 326.775796 111.099715 
L 327.555064 111.099715 
L 327.944698 107.70136 
L 328.723965 107.70136 
L 329.113599 104.303028 
L 334.958108 104.303028 
L 335.347742 107.70136 
L 336.906277 107.70136 
L 337.295911 104.303028 
L 337.685545 107.70136 
L 338.075179 107.70136 
L 338.464813 104.303028 
L 343.14042 104.303028 
L 343.530053 100.904673 
L 344.698955 100.904673 
L 345.088589 107.70136 
L 345.867857 100.904673 
L 346.257491 104.303028 
L 351.712365 104.303028 
L 352.101999 100.904673 
L 353.660535 100.904673 
L 354.050169 97.506319 
L 354.439803 97.506319 
L 354.829436 100.904673 
L 355.608704 100.904673 
L 355.998338 97.506319 
L 356.777606 104.303028 
L 357.946508 104.303028 
L 358.336142 100.904673 
L 358.725775 104.303028 
L 359.505043 104.303028 
L 359.894677 100.904673 
L 360.284311 100.904673 
L 360.673945 97.506319 
L 363.791016 97.506319 
L 364.18065 100.904673 
L 364.570284 100.904673 
L 364.959918 97.506319 
L 365.349552 100.904673 
L 365.739186 97.506319 
L 366.128819 97.506319 
L 366.908087 104.303028 
L 367.687355 104.303028 
L 368.076989 100.904673 
L 370.025158 100.904673 
L 370.414792 97.506319 
L 370.804426 90.709631 
L 371.19406 90.709631 
L 371.973328 97.506319 
L 372.752596 97.506319 
L 373.14223 100.904673 
L 373.531863 100.904673 
L 373.921497 97.506319 
L 374.311131 100.904673 
L 374.700765 97.506319 
L 375.480033 97.506319 
L 376.259301 104.303028 
L 376.648935 104.303028 
L 377.038568 97.506319 
L 377.817836 97.506319 
L 378.20747 90.709631 
L 379.376372 100.904673 
L 379.766006 100.904673 
L 380.15564 104.303028 
L 383.272711 104.303028 
L 383.662345 100.904673 
L 384.051979 104.303028 
L 385.610514 104.303028 
L 386.000148 100.904673 
L 391.844657 100.904673 
L 392.23429 97.506319 
L 392.623924 100.904673 
L 394.961728 100.904673 
L 395.351362 104.303028 
L 395.740995 104.303028 
L 396.130629 100.904673 
L 396.909897 100.904673 
L 397.299531 104.303028 
L 399.637334 104.303028 
L 400.026968 100.904673 
L 400.416602 104.303028 
L 400.806236 104.303028 
L 401.19587 100.904673 
L 406.261111 100.904673 
L 406.650745 104.303028 
L 407.430012 104.303028 
L 407.819646 100.904673 
L 409.378182 100.904673 
L 409.378182 100.904673 
" clip-path="url(#pfa09cacd01)" style="fill: none; stroke: #ff7f0e; stroke-width: 1.5; stroke-linecap: square"/>
   </g>
   <g id="patch_3">
    <path d="M 47.72 318.04 
L 47.72 26.88 
" style="fill: none; stroke: #000000; stroke-width: 0.8; stroke-linejoin: miter; stroke-linecap: square"/>
   </g>
   <g id="patch_4">
    <path d="M 426.6 318.04 
L 426.6 26.88 
" style="fill: none; stroke: #000000; stroke-width: 0.8; stroke-linejoin: miter; stroke-linecap: square"/>
   </g>
   <g id="patch_5">
    <path d="M 47.72 318.04 
L 426.6 318.04 
" style="fill: none; stroke: #000000; stroke-width: 0.8; stroke-linejoin: miter; stroke-linecap: square"/>
   </g>
   <g id="patch_6">
    <path d="M 47.72 26.88 
L 426.6 26.88 
" style="fill: none; stroke: #000000; stroke-width: 0.8; stroke-linejoin: miter; stroke-linecap: square"/>
   </g>
   <g id="text_16">
    <!-- Accuracy - Subject 3 -->
    <g transform="translate(175.632812 20.88) scale(0.12 -0.12)">
     <defs>
      <path id="DejaVuSans-20" transform="scale(0.015625)"/>
      <path id="DejaVuSans-2d" d="M 313 2009 
L 1997 2009 
L 1997 1497 
L 313 1497 
L 313 2009 
z
" transform="scale(0.015625)"/>
      <path id="DejaVuSans-53" d="M 3425 4513 
L 3425 3897 
Q 3066 4069 2747 4153 
Q 2428 4238 2131 4238 
Q 1616 4238 1336 4038 
Q 1056 3838 1056 3469 
Q 1056 3159 1242 3001 
Q 1428 2844 1947 2747 
L 2328 2669 
Q 3034 2534 3370 2195 
Q 3706 1856 3706 1288 
Q 3706 609 3251 259 
Q 2797 -91 1919 -91 
Q 1588 -91 1214 -16 
Q 841 59 441 206 
L 441 856 
Q 825 641 1194 531 
Q 1563 422 1919 422 
Q 2459 422 2753 634 
Q 3047 847 3047 1241 
Q 3047 1584 2836 1778 
Q 2625 1972 2144 2069 
L 1759 2144 
Q 1053 2284 737 2584 
Q 422 2884 422 3419 
Q 422 4038 858 4394 
Q 1294 4750 2059 4750 
Q 2388 4750 2728 4690 
Q 3069 4631 3425 4513 
z
" transform="scale(0.015625)"/>
      <path id="DejaVuSans-62" d="M 3116 1747 
Q 3116 2381 2855 2742 
Q 2594 3103 2138 3103 
Q 1681 3103 1420 2742 
Q 1159 2381 1159 1747 
Q 1159 1113 1420 752 
Q 1681 391 2138 391 
Q 2594 391 2855 752 
Q 3116 1113 3116 1747 
z
M 1159 2969 
Q 1341 3281 1617 3432 
Q 1894 3584 2278 3584 
Q 2916 3584 3314 3078 
Q 3713 2572 3713 1747 
Q 3713 922 3314 415 
Q 2916 -91 2278 -91 
Q 1894 -91 1617 61 
Q 1341 213 1159 525 
L 1159 0 
L 581 0 
L 581 4863 
L 1159 4863 
L 1159 2969 
z
" transform="scale(0.015625)"/>
      <path id="DejaVuSans-6a" d="M 603 3500 
L 1178 3500 
L 1178 -63 
Q 1178 -731 923 -1031 
Q 669 -1331 103 -1331 
L -116 -1331 
L -116 -844 
L 38 -844 
Q 366 -844 484 -692 
Q 603 -541 603 -63 
L 603 3500 
z
M 603 4863 
L 1178 4863 
L 1178 4134 
L 603 4134 
L 603 4863 
z
" transform="scale(0.015625)"/>
      <path id="DejaVuSans-65" d="M 3597 1894 
L 3597 1613 
L 953 1613 
Q 991 1019 1311 708 
Q 1631 397 2203 397 
Q 2534 397 2845 478 
Q 3156 559 3463 722 
L 3463 178 
Q 3153 47 2828 -22 
Q 2503 -91 2169 -91 
Q 1331 -91 842 396 
Q 353 884 353 1716 
Q 353 2575 817 3079 
Q 1281 3584 2069 3584 
Q 2775 3584 3186 3129 
Q 3597 2675 3597 1894 
z
M 3022 2063 
Q 3016 2534 2758 2815 
Q 2500 3097 2075 3097 
Q 1594 3097 1305 2825 
Q 1016 2553 972 2059 
L 3022 2063 
z
" transform="scale(0.015625)"/>
      <path id="DejaVuSans-74" d="M 1172 4494 
L 1172 3500 
L 2356 3500 
L 2356 3053 
L 1172 3053 
L 1172 1153 
Q 1172 725 1289 603 
Q 1406 481 1766 481 
L 2356 481 
L 2356 0 
L 1766 0 
Q 1100 0 847 248 
Q 594 497 594 1153 
L 594 3053 
L 172 3053 
L 172 3500 
L 594 3500 
L 594 4494 
L 1172 4494 
z
" transform="scale(0.015625)"/>
     </defs>
     <use xlink:href="#DejaVuSans-41"/>
     <use xlink:href="#DejaVuSans-63" x="66.658203"/>
     <use xlink:href="#DejaVuSans-63" x="121.638672"/>
     <use xlink:href="#DejaVuSans-75" x="176.619141"/>
     <use xlink:href="#DejaVuSans-72" x="239.998047"/>
     <use xlink:href="#DejaVuSans-61" x="281.111328"/>
     <use xlink:href="#DejaVuSans-63" x="342.390625"/>
     <use xlink:href="#DejaVuSans-79" x="397.371094"/>
     <use xlink:href="#DejaVuSans-20" x="456.550781"/>
     <use xlink:href="#DejaVuSans-2d" x="488.337891"/>
     <use xlink:href="#DejaVuSans-20" x="524.421875"/>
     <use xlink:href="#DejaVuSans-53" x="556.208984"/>
     <use xlink:href="#DejaVuSans-75" x="619.685547"/>
     <use xlink:href="#DejaVuSans-62" x="683.064453"/>
     <use xlink:href="#DejaVuSans-6a" x="746.541016"/>
     <use xlink:href="#DejaVuSans-65" x="774.324219"/>
     <use xlink:href="#DejaVuSans-63" x="835.847656"/>
     <use xlink:href="#DejaVuSans-74" x="890.828125"/>
     <use xlink:href="#DejaVuSans-20" x="930.037109"/>
     <use xlink:href="#DejaVuSans-33" x="961.824219"/>
    </g>
   </g>
   <g id="legend_1">
    <g id="patch_7">
     <path d="M 54.72 64.23625 
L 184.935625 64.23625 
Q 186.935625 64.23625 186.935625 62.23625 
L 186.935625 33.88 
Q 186.935625 31.88 184.935625 31.88 
L 54.72 31.88 
Q 52.72 31.88 52.72 33.88 
L 52.72 62.23625 
Q 52.72 64.23625 54.72 64.23625 
z
" style="fill: #ffffff; opacity: 0.8; stroke: #cccccc; stroke-linejoin: miter"/>
    </g>
    <g id="line2d_16">
     <path d="M 56.72 39.978437 
L 66.72 39.978437 
L 76.72 39.978437 
" style="fill: none; stroke: #1f77b4; stroke-width: 1.5; stroke-linecap: square"/>
    </g>
    <g id="text_17">
     <!-- Training Accuracy -->
     <g transform="translate(84.72 43.478437) scale(0.1 -0.1)">
      <defs>
       <path id="DejaVuSans-54" d="M -19 4666 
L 3928 4666 
L 3928 4134 
L 2272 4134 
L 2272 0 
L 1638 0 
L 1638 4134 
L -19 4134 
L -19 4666 
z
" transform="scale(0.015625)"/>
       <path id="DejaVuSans-69" d="M 603 3500 
L 1178 3500 
L 1178 0 
L 603 0 
L 603 3500 
z
M 603 4863 
L 1178 4863 
L 1178 4134 
L 603 4134 
L 603 4863 
z
" transform="scale(0.015625)"/>
       <path id="DejaVuSans-6e" d="M 3513 2113 
L 3513 0 
L 2938 0 
L 2938 2094 
Q 2938 2591 2744 2837 
Q 2550 3084 2163 3084 
Q 1697 3084 1428 2787 
Q 1159 2491 1159 1978 
L 1159 0 
L 581 0 
L 581 3500 
L 1159 3500 
L 1159 2956 
Q 1366 3272 1645 3428 
Q 1925 3584 2291 3584 
Q 2894 3584 3203 3211 
Q 3513 2838 3513 2113 
z
" transform="scale(0.015625)"/>
       <path id="DejaVuSans-67" d="M 2906 1791 
Q 2906 2416 2648 2759 
Q 2391 3103 1925 3103 
Q 1463 3103 1205 2759 
Q 947 2416 947 1791 
Q 947 1169 1205 825 
Q 1463 481 1925 481 
Q 2391 481 2648 825 
Q 2906 1169 2906 1791 
z
M 3481 434 
Q 3481 -459 3084 -895 
Q 2688 -1331 1869 -1331 
Q 1566 -1331 1297 -1286 
Q 1028 -1241 775 -1147 
L 775 -588 
Q 1028 -725 1275 -790 
Q 1522 -856 1778 -856 
Q 2344 -856 2625 -561 
Q 2906 -266 2906 331 
L 2906 616 
Q 2728 306 2450 153 
Q 2172 0 1784 0 
Q 1141 0 747 490 
Q 353 981 353 1791 
Q 353 2603 747 3093 
Q 1141 3584 1784 3584 
Q 2172 3584 2450 3431 
Q 2728 3278 2906 2969 
L 2906 3500 
L 3481 3500 
L 3481 434 
z
" transform="scale(0.015625)"/>
      </defs>
      <use xlink:href="#DejaVuSans-54"/>
      <use xlink:href="#DejaVuSans-72" x="46.333984"/>
      <use xlink:href="#DejaVuSans-61" x="87.447266"/>
      <use xlink:href="#DejaVuSans-69" x="148.726562"/>
      <use xlink:href="#DejaVuSans-6e" x="176.509766"/>
      <use xlink:href="#DejaVuSans-69" x="239.888672"/>
      <use xlink:href="#DejaVuSans-6e" x="267.671875"/>
      <use xlink:href="#DejaVuSans-67" x="331.050781"/>
      <use xlink:href="#DejaVuSans-20" x="394.527344"/>
      <use xlink:href="#DejaVuSans-41" x="426.314453"/>
      <use xlink:href="#DejaVuSans-63" x="492.972656"/>
      <use xlink:href="#DejaVuSans-63" x="547.953125"/>
      <use xlink:href="#DejaVuSans-75" x="602.933594"/>
      <use xlink:href="#DejaVuSans-72" x="666.3125"/>
      <use xlink:href="#DejaVuSans-61" x="707.425781"/>
      <use xlink:href="#DejaVuSans-63" x="768.705078"/>
      <use xlink:href="#DejaVuSans-79" x="823.685547"/>
     </g>
    </g>
    <g id="line2d_17">
     <path d="M 56.72 54.656563 
L 66.72 54.656563 
L 76.72 54.656563 
" style="fill: none; stroke: #ff7f0e; stroke-width: 1.5; stroke-linecap: square"/>
    </g>
    <g id="text_18">
     <!-- Validation Accuracy -->
     <g transform="translate(84.72 58.156563) scale(0.1 -0.1)">
      <defs>
       <path id="DejaVuSans-56" d="M 1831 0 
L 50 4666 
L 709 4666 
L 2188 738 
L 3669 4666 
L 4325 4666 
L 2547 0 
L 1831 0 
z
" transform="scale(0.015625)"/>
       <path id="DejaVuSans-6c" d="M 603 4863 
L 1178 4863 
L 1178 0 
L 603 0 
L 603 4863 
z
" transform="scale(0.015625)"/>
       <path id="DejaVuSans-64" d="M 2906 2969 
L 2906 4863 
L 3481 4863 
L 3481 0 
L 2906 0 
L 2906 525 
Q 2725 213 2448 61 
Q 2172 -91 1784 -91 
Q 1150 -91 751 415 
Q 353 922 353 1747 
Q 353 2572 751 3078 
Q 1150 3584 1784 3584 
Q 2172 3584 2448 3432 
Q 2725 3281 2906 2969 
z
M 947 1747 
Q 947 1113 1208 752 
Q 1469 391 1925 391 
Q 2381 391 2643 752 
Q 2906 1113 2906 1747 
Q 2906 2381 2643 2742 
Q 2381 3103 1925 3103 
Q 1469 3103 1208 2742 
Q 947 2381 947 1747 
z
" transform="scale(0.015625)"/>
      </defs>
      <use xlink:href="#DejaVuSans-56"/>
      <use xlink:href="#DejaVuSans-61" x="60.658203"/>
      <use xlink:href="#DejaVuSans-6c" x="121.9375"/>
      <use xlink:href="#DejaVuSans-69" x="149.720703"/>
      <use xlink:href="#DejaVuSans-64" x="177.503906"/>
      <use xlink:href="#DejaVuSans-61" x="240.980469"/>
      <use xlink:href="#DejaVuSans-74" x="302.259766"/>
      <use xlink:href="#DejaVuSans-69" x="341.46875"/>
      <use xlink:href="#DejaVuSans-6f" x="369.251953"/>
      <use xlink:href="#DejaVuSans-6e" x="430.433594"/>
      <use xlink:href="#DejaVuSans-20" x="493.8125"/>
      <use xlink:href="#DejaVuSans-41" x="525.599609"/>
      <use xlink:href="#DejaVuSans-63" x="592.257812"/>
      <use xlink:href="#DejaVuSans-63" x="647.238281"/>
      <use xlink:href="#DejaVuSans-75" x="702.21875"/>
      <use xlink:href="#DejaVuSans-72" x="765.597656"/>
      <use xlink:href="#DejaVuSans-61" x="806.710938"/>
      <use xlink:href="#DejaVuSans-63" x="867.990234"/>
      <use xlink:href="#DejaVuSans-79" x="922.970703"/>
     </g>
    </g>
   </g>
  </g>
  <g id="axes_2">
   <g id="patch_8">
    <path d="M 474.32 318.04 
L 853.2 318.04 
L 853.2 26.88 
L 474.32 26.88 
z
" style="fill: #ffffff"/>
   </g>
   <g id="matplotlib.axis_3">
    <g id="xtick_6">
     <g id="line2d_18">
      <g>
       <use xlink:href="#m835ccb22ba" x="491.541818" y="318.04" style="stroke: #000000; stroke-width: 0.8"/>
      </g>
     </g>
     <g id="text_19">
      <!-- 0 -->
      <g transform="translate(488.360568 332.638438) scale(0.1 -0.1)">
       <use xlink:href="#DejaVuSans-30"/>
      </g>
     </g>
    </g>
    <g id="xtick_7">
     <g id="line2d_19">
      <g>
       <use xlink:href="#m835ccb22ba" x="569.468597" y="318.04" style="stroke: #000000; stroke-width: 0.8"/>
      </g>
     </g>
     <g id="text_20">
      <!-- 200 -->
      <g transform="translate(559.924847 332.638438) scale(0.1 -0.1)">
       <use xlink:href="#DejaVuSans-32"/>
       <use xlink:href="#DejaVuSans-30" x="63.623047"/>
       <use xlink:href="#DejaVuSans-30" x="127.246094"/>
      </g>
     </g>
    </g>
    <g id="xtick_8">
     <g id="line2d_20">
      <g>
       <use xlink:href="#m835ccb22ba" x="647.395376" y="318.04" style="stroke: #000000; stroke-width: 0.8"/>
      </g>
     </g>
     <g id="text_21">
      <!-- 400 -->
      <g transform="translate(637.851626 332.638438) scale(0.1 -0.1)">
       <use xlink:href="#DejaVuSans-34"/>
       <use xlink:href="#DejaVuSans-30" x="63.623047"/>
       <use xlink:href="#DejaVuSans-30" x="127.246094"/>
      </g>
     </g>
    </g>
    <g id="xtick_9">
     <g id="line2d_21">
      <g>
       <use xlink:href="#m835ccb22ba" x="725.322155" y="318.04" style="stroke: #000000; stroke-width: 0.8"/>
      </g>
     </g>
     <g id="text_22">
      <!-- 600 -->
      <g transform="translate(715.778405 332.638438) scale(0.1 -0.1)">
       <use xlink:href="#DejaVuSans-36"/>
       <use xlink:href="#DejaVuSans-30" x="63.623047"/>
       <use xlink:href="#DejaVuSans-30" x="127.246094"/>
      </g>
     </g>
    </g>
    <g id="xtick_10">
     <g id="line2d_22">
      <g>
       <use xlink:href="#m835ccb22ba" x="803.248935" y="318.04" style="stroke: #000000; stroke-width: 0.8"/>
      </g>
     </g>
     <g id="text_23">
      <!-- 800 -->
      <g transform="translate(793.705185 332.638438) scale(0.1 -0.1)">
       <use xlink:href="#DejaVuSans-38"/>
       <use xlink:href="#DejaVuSans-30" x="63.623047"/>
       <use xlink:href="#DejaVuSans-30" x="127.246094"/>
      </g>
     </g>
    </g>
    <g id="text_24">
     <!-- Epochs -->
     <g transform="translate(645.844375 346.316563) scale(0.1 -0.1)">
      <use xlink:href="#DejaVuSans-45"/>
      <use xlink:href="#DejaVuSans-70" x="63.183594"/>
      <use xlink:href="#DejaVuSans-6f" x="126.660156"/>
      <use xlink:href="#DejaVuSans-63" x="187.841797"/>
      <use xlink:href="#DejaVuSans-68" x="242.822266"/>
      <use xlink:href="#DejaVuSans-73" x="306.201172"/>
     </g>
    </g>
   </g>
   <g id="matplotlib.axis_4">
    <g id="ytick_9">
     <g id="line2d_23">
      <g>
       <use xlink:href="#m7b1f440d4c" x="474.32" y="293.44548" style="stroke: #000000; stroke-width: 0.8"/>
      </g>
     </g>
     <g id="text_25">
      <!-- 1.0 -->
      <g transform="translate(451.416875 297.244698) scale(0.1 -0.1)">
       <use xlink:href="#DejaVuSans-31"/>
       <use xlink:href="#DejaVuSans-2e" x="63.623047"/>
       <use xlink:href="#DejaVuSans-30" x="95.410156"/>
      </g>
     </g>
    </g>
    <g id="ytick_10">
     <g id="line2d_24">
      <g>
       <use xlink:href="#m7b1f440d4c" x="474.32" y="231.388426" style="stroke: #000000; stroke-width: 0.8"/>
      </g>
     </g>
     <g id="text_26">
      <!-- 1.5 -->
      <g transform="translate(451.416875 235.187645) scale(0.1 -0.1)">
       <use xlink:href="#DejaVuSans-31"/>
       <use xlink:href="#DejaVuSans-2e" x="63.623047"/>
       <use xlink:href="#DejaVuSans-35" x="95.410156"/>
      </g>
     </g>
    </g>
    <g id="ytick_11">
     <g id="line2d_25">
      <g>
       <use xlink:href="#m7b1f440d4c" x="474.32" y="169.331373" style="stroke: #000000; stroke-width: 0.8"/>
      </g>
     </g>
     <g id="text_27">
      <!-- 2.0 -->
      <g transform="translate(451.416875 173.130591) scale(0.1 -0.1)">
       <use xlink:href="#DejaVuSans-32"/>
       <use xlink:href="#DejaVuSans-2e" x="63.623047"/>
       <use xlink:href="#DejaVuSans-30" x="95.410156"/>
      </g>
     </g>
    </g>
    <g id="ytick_12">
     <g id="line2d_26">
      <g>
       <use xlink:href="#m7b1f440d4c" x="474.32" y="107.274319" style="stroke: #000000; stroke-width: 0.8"/>
      </g>
     </g>
     <g id="text_28">
      <!-- 2.5 -->
      <g transform="translate(451.416875 111.073538) scale(0.1 -0.1)">
       <use xlink:href="#DejaVuSans-32"/>
       <use xlink:href="#DejaVuSans-2e" x="63.623047"/>
       <use xlink:href="#DejaVuSans-35" x="95.410156"/>
      </g>
     </g>
    </g>
    <g id="ytick_13">
     <g id="line2d_27">
      <g>
       <use xlink:href="#m7b1f440d4c" x="474.32" y="45.217266" style="stroke: #000000; stroke-width: 0.8"/>
      </g>
     </g>
     <g id="text_29">
      <!-- 3.0 -->
      <g transform="translate(451.416875 49.016485) scale(0.1 -0.1)">
       <use xlink:href="#DejaVuSans-33"/>
       <use xlink:href="#DejaVuSans-2e" x="63.623047"/>
       <use xlink:href="#DejaVuSans-30" x="95.410156"/>
      </g>
     </g>
    </g>
    <g id="text_30">
     <!-- Loss -->
     <g transform="translate(445.337187 183.427188) rotate(-90) scale(0.1 -0.1)">
      <defs>
       <path id="DejaVuSans-4c" d="M 628 4666 
L 1259 4666 
L 1259 531 
L 3531 531 
L 3531 0 
L 628 0 
L 628 4666 
z
" transform="scale(0.015625)"/>
      </defs>
      <use xlink:href="#DejaVuSans-4c"/>
      <use xlink:href="#DejaVuSans-6f" x="53.962891"/>
      <use xlink:href="#DejaVuSans-73" x="115.144531"/>
      <use xlink:href="#DejaVuSans-73" x="167.244141"/>
     </g>
    </g>
   </g>
   <g id="line2d_28">
    <path d="M 491.541818 40.114545 
L 491.931452 40.200419 
L 492.321086 53.075362 
L 492.71072 47.741092 
L 493.100354 59.69732 
L 493.489988 57.223414 
L 493.879622 55.6157 
L 494.269255 63.670725 
L 494.658889 60.730582 
L 495.048523 66.569885 
L 495.438157 70.727998 
L 495.827791 68.365651 
L 496.217425 77.990336 
L 496.607059 76.193979 
L 496.996693 70.713468 
L 497.386327 78.828002 
L 497.775961 82.450989 
L 498.165594 82.888316 
L 498.555228 83.570776 
L 498.944862 85.524055 
L 499.72413 82.729057 
L 500.113764 84.586343 
L 500.503398 88.037051 
L 500.893032 88.884392 
L 501.282666 92.265502 
L 501.672299 93.206588 
L 502.061933 95.083137 
L 502.451567 98.466644 
L 502.841201 99.743767 
L 503.230835 94.932075 
L 503.620469 93.26796 
L 504.010103 101.772444 
L 504.789371 96.614359 
L 505.568638 108.385968 
L 505.958272 103.276383 
L 506.347906 102.537641 
L 506.73754 104.819441 
L 507.127174 109.099676 
L 507.516808 106.519657 
L 507.906442 103.092149 
L 508.296076 104.450469 
L 509.464977 116.869976 
L 509.854611 107.541409 
L 510.244245 111.798326 
L 510.633879 111.740713 
L 511.023513 114.955283 
L 511.413147 110.52656 
L 512.192415 116.761821 
L 512.582049 119.496749 
L 512.971682 120.775381 
L 513.361316 121.647224 
L 514.140584 120.015363 
L 514.530218 120.291507 
L 514.919852 123.827527 
L 515.309486 122.804325 
L 515.69912 119.948694 
L 516.088754 121.954261 
L 516.478387 122.817286 
L 516.868021 128.475224 
L 517.257655 126.502296 
L 517.647289 125.950274 
L 518.036923 129.965374 
L 518.426557 126.751868 
L 518.816191 129.051659 
L 519.205825 126.51579 
L 519.595459 129.606729 
L 520.374726 131.544207 
L 520.76436 130.37595 
L 521.153994 132.568148 
L 521.543628 131.81106 
L 521.933262 134.703531 
L 522.322896 134.599164 
L 522.71253 135.711434 
L 523.102164 135.446771 
L 523.491798 132.967362 
L 523.881432 140.818948 
L 524.271065 138.152434 
L 525.050333 135.05966 
L 525.439967 140.272519 
L 525.829601 143.989221 
L 526.608869 134.133518 
L 526.998503 140.367921 
L 527.388137 143.28087 
L 527.77777 145.016003 
L 528.167404 144.781435 
L 528.557038 143.508159 
L 528.946672 144.241071 
L 529.336306 141.346114 
L 529.72594 144.990437 
L 530.115574 143.943385 
L 530.505208 146.792654 
L 530.894842 150.715754 
L 531.284476 149.032612 
L 531.674109 148.167368 
L 532.063743 145.288745 
L 532.453377 150.001987 
L 532.843011 150.927449 
L 533.232645 151.0786 
L 533.622279 149.542585 
L 534.011913 150.037467 
L 534.401547 148.332427 
L 534.791181 152.761358 
L 535.180814 155.233784 
L 535.570448 151.57872 
L 535.960082 149.409159 
L 536.349716 154.8802 
L 536.73935 155.246893 
L 537.128984 154.166492 
L 537.518618 154.196497 
L 537.908252 158.165789 
L 538.297886 154.749584 
L 538.68752 157.31105 
L 539.077153 157.007416 
L 539.466787 161.958748 
L 539.856421 160.814844 
L 540.246055 164.182816 
L 540.635689 160.1262 
L 541.414957 160.770103 
L 541.804591 159.031743 
L 542.194225 167.764109 
L 542.583858 167.362647 
L 542.973492 167.254343 
L 543.363126 167.691019 
L 543.75276 166.56203 
L 544.142394 163.703114 
L 544.532028 163.126561 
L 544.921662 165.603781 
L 545.311296 166.407268 
L 545.70093 164.028912 
L 546.090564 168.336135 
L 546.480197 168.690992 
L 546.869831 168.35531 
L 547.259465 170.794461 
L 547.649099 168.124203 
L 548.038733 173.015229 
L 548.428367 171.103851 
L 548.818001 170.790214 
L 549.207635 171.551061 
L 549.597269 169.200639 
L 550.376536 172.340685 
L 550.76617 175.869218 
L 551.155804 174.328808 
L 551.545438 176.799207 
L 551.935072 173.235579 
L 552.71434 176.477374 
L 553.103974 172.668392 
L 553.493608 177.301782 
L 553.883241 178.06692 
L 554.272875 179.472675 
L 554.662509 176.258607 
L 555.441777 178.73886 
L 555.831411 178.090977 
L 556.221045 181.875754 
L 556.610679 178.715009 
L 557.000313 174.119229 
L 557.389947 178.233384 
L 557.77958 179.509605 
L 558.169214 179.015596 
L 558.558848 181.944672 
L 558.948482 182.961689 
L 559.338116 181.639084 
L 559.72775 182.721542 
L 560.117384 182.330673 
L 560.507018 185.269647 
L 560.896652 185.658282 
L 561.286285 179.359223 
L 561.675919 181.781358 
L 562.065553 182.37972 
L 562.455187 184.073634 
L 562.844821 190.160347 
L 563.234455 184.575632 
L 563.624089 183.885701 
L 564.013723 187.157205 
L 564.403357 188.294746 
L 564.792991 188.373947 
L 565.182624 189.119125 
L 565.961892 186.965972 
L 566.351526 191.404402 
L 566.74116 189.269655 
L 567.130794 193.215363 
L 567.520428 187.552142 
L 567.910062 190.508546 
L 568.299696 190.006222 
L 568.689329 193.168076 
L 569.078963 193.644745 
L 569.468597 195.158493 
L 569.858231 190.416799 
L 570.247865 188.981201 
L 570.637499 194.384271 
L 571.027133 193.922975 
L 571.416767 189.694376 
L 571.806401 187.763512 
L 572.196035 189.16144 
L 572.585668 194.373219 
L 572.975302 193.8955 
L 573.364936 191.823486 
L 573.75457 192.940388 
L 574.144204 195.851916 
L 574.923472 199.273713 
L 575.313106 198.25171 
L 575.70274 195.079736 
L 576.092374 198.287501 
L 576.482007 191.69765 
L 576.871641 205.600662 
L 577.261275 199.481916 
L 577.650909 198.153172 
L 578.040543 196.279715 
L 578.430177 197.37284 
L 578.819811 200.230956 
L 579.209445 201.062452 
L 579.599079 198.126007 
L 579.988712 202.212096 
L 580.378346 200.539251 
L 580.76798 202.262046 
L 581.157614 206.473792 
L 581.547248 198.998945 
L 581.936882 203.026946 
L 582.326516 199.320734 
L 582.71615 202.471077 
L 583.105784 201.818504 
L 583.495418 203.65083 
L 583.885051 202.311093 
L 584.274685 207.770223 
L 584.664319 203.395415 
L 585.053953 205.552296 
L 585.443587 204.055474 
L 587.002123 211.246113 
L 587.391756 207.948525 
L 587.78139 208.733429 
L 588.171024 203.830789 
L 588.950292 209.375142 
L 589.339926 207.228588 
L 589.72956 210.795515 
L 590.119194 207.147138 
L 590.508828 209.2566 
L 590.898462 209.904896 
L 591.288095 213.499595 
L 591.677729 204.940381 
L 592.067363 209.282403 
L 592.456997 209.169439 
L 592.846631 212.604567 
L 593.236265 211.875664 
L 593.625899 210.219879 
L 594.015533 214.320852 
L 594.405167 212.001204 
L 594.7948 211.843469 
L 595.184434 210.130543 
L 595.574068 216.246256 
L 595.963702 212.179994 
L 596.74297 217.788885 
L 597.132604 210.702273 
L 597.522238 221.683785 
L 597.911872 215.284974 
L 598.301506 218.93338 
L 598.691139 220.967148 
L 599.080773 214.129264 
L 599.470407 213.43007 
L 599.860041 213.689821 
L 600.249675 217.705823 
L 601.028943 219.0376 
L 601.418577 217.801521 
L 601.808211 218.742296 
L 602.197845 217.912384 
L 602.587478 210.901155 
L 602.977112 219.086159 
L 603.366746 218.934653 
L 603.75638 217.62137 
L 604.146014 216.718412 
L 604.535648 219.24061 
L 604.925282 220.031092 
L 605.314916 219.338527 
L 605.70455 218.911409 
L 606.094183 223.762383 
L 606.483817 218.243464 
L 606.873451 220.024227 
L 607.263085 218.282524 
L 607.652719 218.699833 
L 608.042353 225.991733 
L 608.431987 218.227973 
L 609.211255 223.498993 
L 609.600889 225.424235 
L 609.990522 222.368612 
L 610.380156 221.108815 
L 610.76979 220.544409 
L 611.159424 227.048505 
L 611.549058 223.496448 
L 611.938692 226.633771 
L 612.328326 222.633823 
L 612.71796 224.295067 
L 613.107594 223.446468 
L 613.497227 229.085217 
L 614.276495 221.451495 
L 614.666129 230.294206 
L 615.055763 225.615985 
L 615.445397 229.531125 
L 615.835031 231.095918 
L 616.224665 226.62803 
L 616.614299 230.282651 
L 617.003933 232.800603 
L 617.393566 224.222747 
L 617.7832 225.603498 
L 618.172834 229.302948 
L 618.562468 229.599244 
L 618.952102 225.622539 
L 619.341736 230.530343 
L 619.73137 232.220573 
L 620.121004 228.946213 
L 620.510638 230.416713 
L 620.900271 230.868377 
L 621.289905 227.581219 
L 621.679539 231.155751 
L 622.069173 232.829927 
L 622.458807 233.055057 
L 622.848441 230.592055 
L 623.238075 231.994275 
L 623.627709 230.364633 
L 624.017343 231.459519 
L 624.406977 232.940495 
L 624.79661 232.94554 
L 625.186244 227.864451 
L 625.575878 230.884327 
L 625.965512 232.136223 
L 626.355146 228.343575 
L 626.74478 234.947038 
L 627.134414 234.874895 
L 627.524048 235.931534 
L 627.913682 226.55645 
L 628.303316 237.351123 
L 628.692949 235.343219 
L 629.082583 232.443867 
L 629.472217 234.102197 
L 629.861851 238.988962 
L 630.641119 233.464213 
L 631.030753 235.920852 
L 631.420387 240.449253 
L 631.810021 237.268978 
L 632.199654 239.575827 
L 632.589288 234.06944 
L 632.978922 236.803229 
L 633.368556 241.338851 
L 633.75819 233.207258 
L 634.147824 241.684667 
L 634.537458 235.227873 
L 635.316726 240.419115 
L 635.70636 239.83185 
L 636.095993 237.632328 
L 636.485627 238.877166 
L 636.875261 236.940754 
L 637.264895 237.773758 
L 637.654529 237.865802 
L 638.044163 245.649669 
L 638.433797 243.243053 
L 639.213065 242.65641 
L 639.602698 241.49851 
L 639.992332 239.772076 
L 640.381966 239.739289 
L 640.7716 243.328542 
L 641.161234 239.836436 
L 641.550868 244.575512 
L 641.940502 238.635851 
L 642.330136 241.386152 
L 642.71977 243.172227 
L 643.109404 242.443738 
L 643.499037 240.448499 
L 644.278305 243.636023 
L 644.667939 245.079448 
L 645.057573 240.829455 
L 645.447207 244.767513 
L 645.836841 250.967132 
L 646.226475 243.457101 
L 646.616109 249.507536 
L 647.005742 243.086576 
L 647.395376 250.733969 
L 647.78501 244.34618 
L 648.174644 242.802338 
L 648.564278 243.357941 
L 648.953912 245.850859 
L 649.343546 246.551014 
L 649.73318 248.634169 
L 650.122814 245.884445 
L 650.512448 249.209331 
L 650.902081 246.065942 
L 651.291715 249.741231 
L 651.681349 246.843152 
L 652.070983 244.903633 
L 652.460617 252.500691 
L 652.850251 252.232226 
L 653.239885 249.223772 
L 653.629519 249.380427 
L 654.019153 250.152799 
L 654.408787 249.078361 
L 654.79842 246.380939 
L 655.188054 249.035972 
L 655.577688 244.835854 
L 655.967322 248.968179 
L 656.356956 248.316464 
L 656.74659 251.389456 
L 657.136224 246.84944 
L 657.525858 250.942838 
L 657.915492 253.105326 
L 658.305125 252.701511 
L 658.694759 254.592013 
L 659.084393 254.615893 
L 659.474027 254.167869 
L 659.863661 252.166608 
L 660.253295 254.049564 
L 660.642929 253.831019 
L 661.032563 252.637772 
L 661.422197 255.944534 
L 661.811831 251.864719 
L 662.201464 252.396471 
L 662.591098 254.849426 
L 662.980732 258.627146 
L 663.370366 252.313187 
L 663.76 253.08803 
L 664.149634 252.518105 
L 664.928902 256.599326 
L 665.318536 248.546505 
L 665.708169 257.379718 
L 666.097803 253.770076 
L 666.487437 257.694123 
L 666.877071 251.46808 
L 667.266705 250.240759 
L 667.656339 249.851222 
L 668.045973 259.110191 
L 668.435607 253.495086 
L 668.825241 259.535844 
L 669.214875 259.234503 
L 669.604508 259.664713 
L 669.994142 250.641201 
L 670.383776 257.470503 
L 670.77341 254.120568 
L 671.163044 256.006187 
L 671.552678 255.968355 
L 671.942312 256.138563 
L 672.331946 258.727489 
L 672.72158 254.078474 
L 673.111213 254.449295 
L 673.500847 257.825478 
L 673.890481 255.636061 
L 674.280115 255.354117 
L 674.669749 257.324649 
L 675.059383 255.249838 
L 675.449017 261.730528 
L 675.838651 257.096264 
L 676.228285 260.913665 
L 676.617919 255.938483 
L 677.007552 256.744234 
L 677.397186 254.346318 
L 677.78682 259.191818 
L 678.176454 259.220211 
L 678.566088 259.481115 
L 678.955722 261.217048 
L 679.345356 263.506483 
L 680.124624 258.946744 
L 680.514258 261.153605 
L 680.903891 260.457992 
L 681.293525 257.011634 
L 681.683159 258.703343 
L 682.072793 257.646629 
L 682.462427 262.787064 
L 682.852061 257.101443 
L 683.241695 266.156988 
L 683.631329 259.349731 
L 684.020963 259.347512 
L 684.410596 265.45411 
L 684.80023 259.169477 
L 685.189864 264.249308 
L 685.579498 263.81895 
L 685.969132 260.868406 
L 686.358766 262.549876 
L 686.7484 264.779418 
L 687.138034 264.59653 
L 687.527668 268.318071 
L 687.917302 261.533999 
L 688.306935 259.608002 
L 688.696569 267.689245 
L 689.086203 258.83776 
L 689.475837 258.893747 
L 689.865471 263.433481 
L 690.255105 266.001339 
L 690.644739 267.185678 
L 691.034373 271.978772 
L 691.424007 265.375191 
L 691.81364 272.104535 
L 692.203274 266.038461 
L 692.592908 268.288243 
L 692.982542 263.823226 
L 693.372176 265.382559 
L 693.76181 266.426667 
L 694.151444 269.295525 
L 694.541078 268.732805 
L 694.930712 268.873319 
L 695.320346 260.824419 
L 695.709979 265.574842 
L 696.099613 265.353175 
L 696.489247 266.191062 
L 696.878881 268.021864 
L 697.268515 265.19797 
L 697.658149 265.394455 
L 698.047783 263.054109 
L 698.437417 266.443681 
L 698.827051 266.502153 
L 699.216684 267.818632 
L 699.606318 259.854097 
L 699.995952 270.484333 
L 700.385586 269.066356 
L 700.77522 273.084992 
L 701.164854 266.213921 
L 701.554488 267.766049 
L 701.944122 266.780073 
L 702.333756 268.124042 
L 702.72339 264.962972 
L 703.113023 271.527819 
L 703.502657 271.170269 
L 703.892291 267.748398 
L 704.281925 273.712589 
L 704.671559 274.523992 
L 705.061193 267.340336 
L 705.450827 268.605726 
L 705.840461 270.742071 
L 706.230095 274.989771 
L 706.619729 271.47741 
L 707.009362 272.143891 
L 707.398996 268.725319 
L 707.78863 272.381167 
L 708.178264 270.028644 
L 708.567898 273.433101 
L 708.957532 272.411675 
L 709.347166 272.950604 
L 709.7368 274.838975 
L 710.126434 275.896975 
L 710.516067 268.524706 
L 710.905701 274.700355 
L 711.295335 263.312779 
L 711.684969 274.531065 
L 712.074603 275.254123 
L 712.464237 266.798582 
L 713.243505 274.328632 
L 713.633139 276.225807 
L 714.022773 272.51227 
L 714.412406 274.383509 
L 714.80204 273.107865 
L 715.191674 271.057586 
L 715.970942 275.580425 
L 716.360576 267.805997 
L 716.75021 270.88979 
L 717.139844 275.214915 
L 717.529478 271.807691 
L 717.919111 281.536434 
L 718.308745 275.117146 
L 718.698379 273.702928 
L 719.088013 271.040246 
L 719.477647 275.205831 
L 719.867281 270.219403 
L 720.256915 274.44778 
L 720.646549 270.47331 
L 721.036183 277.454799 
L 721.425817 275.541261 
L 721.81545 272.647487 
L 722.205084 278.195243 
L 722.594718 274.795091 
L 722.984352 275.022425 
L 723.373986 273.773118 
L 723.76362 279.778782 
L 724.153254 281.374408 
L 724.542888 272.751322 
L 724.932522 270.118438 
L 725.322155 278.937299 
L 725.711789 279.575979 
L 726.101423 278.495001 
L 726.491057 281.266401 
L 727.270325 274.956244 
L 727.659959 276.20712 
L 728.439227 280.799911 
L 728.828861 276.86425 
L 729.218494 282.323469 
L 729.608128 274.782648 
L 729.997762 276.670591 
L 730.387396 275.062994 
L 730.77703 275.851731 
L 731.166664 277.724848 
L 731.556298 276.914614 
L 731.945932 281.805817 
L 732.7252 274.727224 
L 733.114833 276.703392 
L 733.504467 279.261588 
L 733.894101 285.167929 
L 734.283735 280.434254 
L 734.673369 277.276306 
L 735.063003 279.876343 
L 735.452637 278.970796 
L 735.842271 277.630733 
L 736.231905 279.968934 
L 736.621538 275.913413 
L 737.011172 279.867836 
L 737.400806 278.86307 
L 737.79044 280.99616 
L 738.180074 278.597993 
L 738.569708 280.663496 
L 738.959342 278.321967 
L 739.348976 279.779817 
L 739.73861 279.430657 
L 740.128244 280.705471 
L 740.517877 280.06654 
L 740.907511 278.616354 
L 741.686779 282.042886 
L 742.076413 280.064469 
L 742.466047 280.920732 
L 742.855681 285.722881 
L 743.245315 281.431401 
L 743.634949 281.255822 
L 744.024582 284.717789 
L 744.414216 284.693894 
L 744.80385 283.75704 
L 745.193484 283.507291 
L 745.583118 283.654152 
L 745.972752 287.798179 
L 746.362386 283.560954 
L 746.75202 281.46472 
L 747.141654 281.183841 
L 747.531288 283.541039 
L 747.920921 277.421717 
L 748.310555 283.186745 
L 748.700189 287.235164 
L 749.089823 287.326586 
L 749.479457 279.859654 
L 750.258725 284.401327 
L 750.648359 284.059579 
L 751.037993 280.180525 
L 751.427626 286.89534 
L 751.81726 279.077931 
L 752.206894 286.767092 
L 752.596528 282.428651 
L 752.986162 282.768164 
L 753.375796 284.301161 
L 753.76543 289.655835 
L 754.155064 282.576147 
L 754.934332 287.716108 
L 755.323965 287.952467 
L 755.713599 280.038414 
L 756.103233 287.619404 
L 756.492867 282.560775 
L 756.882501 291.510073 
L 757.272135 285.92521 
L 757.661769 284.381383 
L 758.051403 281.742521 
L 758.441037 285.963161 
L 758.830671 287.365232 
L 759.609938 284.842013 
L 759.999572 285.34086 
L 760.389206 292.780878 
L 760.77884 285.776381 
L 761.168474 293.1393 
L 761.558108 289.281064 
L 761.947742 287.79485 
L 762.337376 290.624544 
L 762.727009 283.565526 
L 763.116643 290.407952 
L 763.506277 281.436697 
L 763.895911 283.935016 
L 764.285545 289.209483 
L 764.675179 287.63164 
L 765.064813 283.583547 
L 765.454447 284.557953 
L 765.844081 286.448499 
L 766.233715 283.339568 
L 766.623348 290.654121 
L 767.012982 287.399335 
L 767.402616 287.553061 
L 767.79225 290.699277 
L 768.181884 286.304021 
L 768.571518 286.122523 
L 768.961152 289.424566 
L 769.350786 290.51883 
L 769.74042 287.712395 
L 770.130053 293.308295 
L 770.519687 291.570838 
L 770.909321 287.746365 
L 771.298955 288.932909 
L 771.688589 288.561763 
L 772.078223 291.318471 
L 772.467857 287.589488 
L 772.857491 288.822313 
L 773.247125 291.980246 
L 774.026392 287.371579 
L 774.416026 292.741374 
L 774.80566 295.750146 
L 775.195294 295.767413 
L 775.584928 293.713523 
L 775.974562 286.872362 
L 776.364196 289.029791 
L 776.75383 296.739429 
L 777.143464 293.284001 
L 777.533097 291.143824 
L 777.922731 294.896628 
L 778.312365 292.543054 
L 778.701999 291.513787 
L 779.091633 290.092422 
L 779.870901 290.104333 
L 780.260535 292.520846 
L 780.650169 288.596266 
L 781.039803 294.189578 
L 781.429436 287.624879 
L 781.81907 288.909089 
L 782.208704 286.583494 
L 782.987972 295.354979 
L 783.377606 294.01607 
L 783.76724 292.077438 
L 784.156874 292.670252 
L 784.546508 290.58328 
L 784.936142 290.599643 
L 785.325775 291.830885 
L 785.715409 296.929256 
L 786.105043 290.268401 
L 786.494677 291.072139 
L 786.884311 294.103874 
L 787.273945 295.483471 
L 787.663579 294.636159 
L 788.053213 294.538272 
L 788.442847 293.091067 
L 788.83248 294.286252 
L 789.222114 295.121823 
L 789.611748 295.663555 
L 790.391016 292.032519 
L 790.78065 295.899559 
L 791.170284 295.099719 
L 791.559918 297.721528 
L 791.949552 295.413865 
L 792.339186 292.356734 
L 792.728819 298.088317 
L 793.118453 292.238399 
L 793.508087 297.655185 
L 793.897721 293.607143 
L 794.287355 296.056466 
L 794.676989 290.511255 
L 795.066623 292.689678 
L 795.456257 303.01844 
L 795.845891 292.831893 
L 796.235524 294.172688 
L 797.014792 299.208733 
L 797.79406 295.073531 
L 798.183694 297.680618 
L 798.573328 294.659381 
L 798.962962 296.706028 
L 799.352596 296.531181 
L 799.74223 295.724528 
L 800.131863 295.873911 
L 800.521497 297.28406 
L 800.911131 294.204632 
L 801.300765 297.240362 
L 801.690399 294.655031 
L 802.080033 294.152626 
L 802.469667 298.003058 
L 802.859301 296.884854 
L 803.248935 298.804244 
L 803.638568 296.73718 
L 804.028202 293.946339 
L 804.417836 302.594762 
L 804.80747 296.844522 
L 805.197104 296.555483 
L 805.586738 299.781003 
L 806.75564 296.097864 
L 807.145274 301.881276 
L 807.534907 302.410417 
L 807.924541 298.039854 
L 808.314175 302.743613 
L 808.703809 297.472304 
L 809.093443 299.180555 
L 809.483077 298.773943 
L 809.872711 297.131185 
L 810.262345 296.82525 
L 810.651979 299.030165 
L 811.041613 292.422959 
L 811.431246 300.365686 
L 811.82088 297.770272 
L 812.210514 297.146351 
L 812.600148 300.057938 
L 812.989782 299.324841 
L 813.379416 303.506664 
L 813.76905 295.338563 
L 814.158684 301.348895 
L 814.548318 299.937835 
L 814.937951 295.056826 
L 815.327585 299.987867 
L 815.717219 300.92339 
L 816.106853 294.044951 
L 816.496487 302.239632 
L 816.886121 302.722041 
L 817.275755 301.427859 
L 817.665389 292.972244 
L 818.055023 301.711549 
L 818.444657 302.421343 
L 818.83429 298.040616 
L 819.223924 299.109965 
L 819.613558 299.307138 
L 820.003192 298.396227 
L 820.392826 304.805455 
L 820.78246 300.713544 
L 821.172094 302.495795 
L 821.561728 300.410539 
L 821.951362 303.415982 
L 822.340995 302.036481 
L 822.730629 301.819386 
L 823.120263 303.19845 
L 823.899531 298.349873 
L 824.289165 299.514897 
L 825.068433 297.788685 
L 825.458067 294.086712 
L 825.847701 301.262319 
L 826.237334 297.56596 
L 826.626968 295.669148 
L 827.016602 299.588912 
L 827.79587 301.061136 
L 828.185504 299.916049 
L 828.575138 300.647031 
L 828.964772 297.154836 
L 829.354406 299.505539 
L 829.744039 300.08517 
L 830.133673 299.871352 
L 830.523307 295.424185 
L 830.912941 298.538287 
L 831.302575 297.344345 
L 831.692209 294.21109 
L 832.471477 300.833203 
L 832.861111 302.666898 
L 833.250745 298.895866 
L 833.640378 302.086986 
L 834.030012 303.944952 
L 834.419646 294.772515 
L 834.80928 299.435704 
L 835.198914 298.320659 
L 835.588548 298.165528 
L 835.978182 299.158968 
L 835.978182 299.158968 
" clip-path="url(#p2c3a63a25e)" style="fill: none; stroke: #1f77b4; stroke-width: 1.5; stroke-linecap: square"/>
   </g>
   <g id="line2d_29">
    <path d="M 491.541818 69.055449 
L 492.71072 77.380493 
L 493.879622 83.594922 
L 495.048523 88.501779 
L 496.217425 92.446599 
L 497.386327 95.556211 
L 499.72413 100.44333 
L 500.893032 102.738949 
L 502.451567 105.069427 
L 504.399737 107.775859 
L 506.73754 111.276635 
L 508.296076 113.326826 
L 515.69912 121.87333 
L 517.257655 123.424407 
L 523.491798 130.677276 
L 525.439967 132.644464 
L 526.998503 134.153344 
L 527.388137 134.451948 
L 529.336306 136.607157 
L 530.894842 138.033952 
L 533.232645 140.474656 
L 534.791181 142.22352 
L 535.570448 142.775305 
L 535.960082 143.016207 
L 537.518618 144.496561 
L 538.297886 145.119572 
L 539.856421 146.615551 
L 542.194225 148.611146 
L 546.480197 152.001665 
L 547.649099 152.719309 
L 551.935072 156.451369 
L 553.103974 157.554703 
L 553.883241 158.052662 
L 556.221045 159.898645 
L 557.000313 160.704055 
L 557.77958 161.241104 
L 559.72775 162.723116 
L 560.117384 162.882642 
L 561.675919 164.143992 
L 564.403357 166.073096 
L 565.182624 166.451536 
L 567.910062 168.34229 
L 568.689329 168.582037 
L 574.144204 171.703115 
L 574.923472 172.164647 
L 576.482007 172.86279 
L 576.871641 173.148937 
L 577.650909 173.984412 
L 578.430177 174.464513 
L 578.819811 174.866005 
L 579.988712 175.558052 
L 580.378346 175.626644 
L 580.76798 175.889783 
L 581.157614 175.915113 
L 581.936882 176.358122 
L 583.495418 177.357443 
L 584.664319 177.823829 
L 586.222855 178.653075 
L 587.391756 179.451813 
L 588.950292 180.449892 
L 589.72956 181.01881 
L 590.898462 181.598678 
L 591.677729 182.162906 
L 592.456997 182.53892 
L 594.405167 183.917629 
L 595.184434 184.321296 
L 595.963702 184.868155 
L 596.74297 185.342678 
L 597.522238 185.776513 
L 597.911872 186.01518 
L 599.470407 186.330814 
L 602.587478 188.106458 
L 602.977112 188.507343 
L 603.75638 188.954983 
L 604.146014 189.361964 
L 605.314916 189.876657 
L 605.70455 189.945264 
L 606.094183 190.131747 
L 607.263085 190.982225 
L 608.042353 191.434126 
L 608.431987 191.459604 
L 609.600889 192.429897 
L 611.938692 193.707877 
L 613.107594 193.796414 
L 613.886861 194.245651 
L 614.666129 194.972912 
L 615.835031 195.580847 
L 616.614299 196.029167 
L 617.7832 196.837034 
L 619.341736 197.699348 
L 620.510638 198.336652 
L 621.289905 198.774408 
L 622.069173 199.063779 
L 622.848441 199.474267 
L 623.238075 199.838519 
L 623.627709 199.834051 
L 625.965512 200.57621 
L 626.74478 200.718203 
L 628.692949 201.795601 
L 629.861851 202.304583 
L 630.251485 202.515286 
L 630.641119 202.482425 
L 631.810021 203.251779 
L 632.199654 203.363974 
L 632.978922 203.96386 
L 634.147824 204.3713 
L 635.316726 204.607259 
L 635.70636 204.858488 
L 636.095993 204.874896 
L 636.875261 205.210711 
L 639.213065 206.21126 
L 640.381966 206.984195 
L 641.161234 207.355474 
L 641.940502 207.118464 
L 643.499037 207.996314 
L 644.667939 208.287757 
L 645.057573 208.376308 
L 645.447207 208.681319 
L 645.836841 208.711013 
L 646.616109 209.023777 
L 647.395376 209.662146 
L 648.174644 210.047481 
L 648.953912 210.696177 
L 649.343546 210.863841 
L 650.122814 210.928157 
L 651.291715 211.548579 
L 652.460617 212.164044 
L 652.850251 212.366684 
L 653.629519 212.518931 
L 655.577688 213.372945 
L 655.967322 213.651205 
L 656.74659 213.771093 
L 657.915492 214.456009 
L 658.694759 214.569476 
L 660.253295 215.059327 
L 661.032563 215.045301 
L 661.422197 215.155646 
L 662.201464 215.202178 
L 662.591098 215.459221 
L 663.370366 215.590414 
L 664.928902 216.454962 
L 665.318536 216.4913 
L 666.877071 217.127908 
L 667.656339 217.229746 
L 668.045973 217.34672 
L 669.214875 217.269561 
L 669.994142 217.58444 
L 670.77341 218.259029 
L 671.552678 217.990445 
L 673.111213 218.429015 
L 674.280115 218.829604 
L 674.669749 219.101991 
L 675.059383 219.222308 
L 675.449017 219.209554 
L 675.838651 218.982561 
L 676.228285 218.885561 
L 676.617919 219.161276 
L 677.397186 219.466124 
L 677.78682 220.041982 
L 678.176454 220.382797 
L 678.566088 220.499076 
L 679.345356 221.160703 
L 679.73499 221.19022 
L 680.124624 221.079476 
L 680.903891 221.397107 
L 681.683159 221.715063 
L 683.241695 222.548112 
L 684.410596 222.943479 
L 685.189864 223.419511 
L 685.579498 223.60811 
L 686.358766 223.660309 
L 686.7484 223.942253 
L 688.306935 224.133766 
L 688.696569 223.942149 
L 689.475837 224.000799 
L 690.255105 224.389167 
L 690.644739 224.543026 
L 691.034373 224.914306 
L 692.203274 225.000253 
L 692.982542 224.830193 
L 693.372176 225.030007 
L 694.151444 225.120615 
L 695.709979 225.277285 
L 696.099613 225.442936 
L 697.658149 225.292036 
L 698.827051 225.940481 
L 699.216684 226.102892 
L 700.385586 226.043458 
L 701.164854 226.366948 
L 701.944122 226.363086 
L 702.72339 226.561909 
L 703.502657 226.369434 
L 703.892291 226.671322 
L 705.061193 226.59912 
L 705.450827 226.765984 
L 706.619729 226.683262 
L 707.398996 227.087358 
L 707.78863 227.411411 
L 708.567898 227.736055 
L 708.957532 227.769345 
L 709.347166 227.651261 
L 709.7368 227.703919 
L 710.126434 227.887339 
L 711.295335 228.751252 
L 711.684969 228.746636 
L 712.074603 228.858357 
L 712.464237 228.845425 
L 712.853871 229.024422 
L 713.243505 229.354126 
L 713.633139 229.532797 
L 714.022773 229.56048 
L 714.80204 230.028552 
L 715.191674 230.125211 
L 715.581308 230.070246 
L 716.360576 230.283257 
L 716.75021 230.025386 
L 717.139844 230.096478 
L 717.529478 229.903751 
L 717.919111 229.899535 
L 718.308745 230.140895 
L 718.698379 230.575129 
L 719.867281 229.897315 
L 720.646549 230.115017 
L 722.984352 229.87675 
L 723.373986 229.893764 
L 723.76362 230.079537 
L 724.153254 230.437575 
L 724.542888 230.572673 
L 724.932522 230.950271 
L 725.711789 231.19962 
L 726.491057 231.74096 
L 727.270325 231.810736 
L 728.049593 232.357727 
L 728.439227 232.614844 
L 729.608128 232.473577 
L 730.387396 232.325236 
L 731.556298 232.502635 
L 732.335566 232.740932 
L 733.504467 232.742752 
L 734.283735 232.70381 
L 736.231905 233.043102 
L 737.011172 233.610141 
L 737.79044 233.277759 
L 738.180074 233.379641 
L 738.569708 233.63735 
L 740.517877 234.046684 
L 741.297145 234.566067 
L 741.686779 234.734929 
L 742.076413 235.252537 
L 742.466047 235.339416 
L 743.245315 235.311704 
L 743.634949 235.410982 
L 744.024582 235.339283 
L 745.193484 235.631244 
L 745.583118 235.508396 
L 745.972752 235.555461 
L 746.362386 235.462293 
L 746.75202 235.063435 
L 747.141654 234.990078 
L 747.920921 235.120753 
L 748.310555 235.104448 
L 748.700189 235.206153 
L 749.089823 235.722029 
L 749.869091 235.471866 
L 751.037993 235.79836 
L 751.427626 235.984088 
L 751.81726 236.423057 
L 752.206894 236.655673 
L 752.986162 236.792103 
L 753.375796 236.804531 
L 753.76543 236.611213 
L 754.155064 236.750172 
L 754.934332 236.606463 
L 756.492867 237.238825 
L 756.882501 236.749225 
L 757.272135 236.446597 
L 758.830671 236.880714 
L 759.609938 236.52892 
L 761.558108 236.842482 
L 762.337376 236.652418 
L 762.727009 236.544322 
L 763.895911 237.189438 
L 764.285545 237.325793 
L 766.233715 236.909136 
L 767.012982 237.363981 
L 767.402616 237.767885 
L 768.181884 238.237555 
L 768.961152 239.129002 
L 769.350786 239.41386 
L 769.74042 239.542996 
L 770.130053 239.382612 
L 770.519687 239.386785 
L 771.298955 239.057509 
L 772.467857 239.795896 
L 772.857491 239.676156 
L 774.416026 240.296001 
L 775.584928 240.168079 
L 775.974562 240.244527 
L 776.364196 240.605465 
L 776.75383 240.806906 
L 778.701999 241.251527 
L 779.091633 241.416661 
L 779.481267 241.914487 
L 780.260535 242.224646 
L 780.650169 242.176176 
L 781.039803 242.240522 
L 782.598338 242.006885 
L 783.377606 242.192569 
L 784.546508 241.971686 
L 784.936142 241.584309 
L 785.325775 241.423511 
L 785.715409 241.491423 
L 786.105043 241.813537 
L 786.494677 241.679104 
L 787.273945 241.982576 
L 788.83248 242.161543 
L 789.611748 241.775127 
L 790.001382 241.704479 
L 791.559918 242.003852 
L 793.508087 241.716226 
L 793.897721 242.165094 
L 794.676989 242.558256 
L 795.456257 242.012818 
L 796.235524 241.971598 
L 796.625158 241.718209 
L 797.014792 241.800605 
L 797.404426 242.022524 
L 798.183694 243.005822 
L 798.573328 243.091754 
L 798.962962 243.04571 
L 799.352596 242.713728 
L 800.131863 242.602554 
L 800.911131 243.029968 
L 801.300765 243.425068 
L 801.690399 243.548478 
L 802.469667 243.356831 
L 802.859301 243.491382 
L 803.638568 244.371584 
L 804.80747 244.700371 
L 806.366006 244.570777 
L 807.145274 244.362604 
L 807.534907 244.000704 
L 809.093443 243.362054 
L 809.872711 243.51902 
L 810.262345 243.351431 
L 810.651979 243.362187 
L 811.041613 243.525323 
L 811.431246 243.824119 
L 811.82088 243.870163 
L 812.600148 243.587376 
L 814.937951 243.591947 
L 835.978182 243.594404 
L 835.978182 243.594404 
" clip-path="url(#p2c3a63a25e)" style="fill: none; stroke: #ff7f0e; stroke-width: 1.5; stroke-linecap: square"/>
   </g>
   <g id="patch_9">
    <path d="M 474.32 318.04 
L 474.32 26.88 
" style="fill: none; stroke: #000000; stroke-width: 0.8; stroke-linejoin: miter; stroke-linecap: square"/>
   </g>
   <g id="patch_10">
    <path d="M 853.2 318.04 
L 853.2 26.88 
" style="fill: none; stroke: #000000; stroke-width: 0.8; stroke-linejoin: miter; stroke-linecap: square"/>
   </g>
   <g id="patch_11">
    <path d="M 474.32 318.04 
L 853.2 318.04 
" style="fill: none; stroke: #000000; stroke-width: 0.8; stroke-linejoin: miter; stroke-linecap: square"/>
   </g>
   <g id="patch_12">
    <path d="M 474.32 26.88 
L 853.2 26.88 
" style="fill: none; stroke: #000000; stroke-width: 0.8; stroke-linejoin: miter; stroke-linecap: square"/>
   </g>
   <g id="text_31">
    <!-- Loss - Subject 3 Window Size:30.0 -->
    <g transform="translate(561.300625 20.88) scale(0.12 -0.12)">
     <defs>
      <path id="DejaVuSans-57" d="M 213 4666 
L 850 4666 
L 1831 722 
L 2809 4666 
L 3519 4666 
L 4500 722 
L 5478 4666 
L 6119 4666 
L 4947 0 
L 4153 0 
L 3169 4050 
L 2175 0 
L 1381 0 
L 213 4666 
z
" transform="scale(0.015625)"/>
      <path id="DejaVuSans-77" d="M 269 3500 
L 844 3500 
L 1563 769 
L 2278 3500 
L 2956 3500 
L 3675 769 
L 4391 3500 
L 4966 3500 
L 4050 0 
L 3372 0 
L 2619 2869 
L 1863 0 
L 1184 0 
L 269 3500 
z
" transform="scale(0.015625)"/>
      <path id="DejaVuSans-7a" d="M 353 3500 
L 3084 3500 
L 3084 2975 
L 922 459 
L 3084 459 
L 3084 0 
L 275 0 
L 275 525 
L 2438 3041 
L 353 3041 
L 353 3500 
z
" transform="scale(0.015625)"/>
      <path id="DejaVuSans-3a" d="M 750 794 
L 1409 794 
L 1409 0 
L 750 0 
L 750 794 
z
M 750 3309 
L 1409 3309 
L 1409 2516 
L 750 2516 
L 750 3309 
z
" transform="scale(0.015625)"/>
     </defs>
     <use xlink:href="#DejaVuSans-4c"/>
     <use xlink:href="#DejaVuSans-6f" x="53.962891"/>
     <use xlink:href="#DejaVuSans-73" x="115.144531"/>
     <use xlink:href="#DejaVuSans-73" x="167.244141"/>
     <use xlink:href="#DejaVuSans-20" x="219.34375"/>
     <use xlink:href="#DejaVuSans-2d" x="251.130859"/>
     <use xlink:href="#DejaVuSans-20" x="287.214844"/>
     <use xlink:href="#DejaVuSans-53" x="319.001953"/>
     <use xlink:href="#DejaVuSans-75" x="382.478516"/>
     <use xlink:href="#DejaVuSans-62" x="445.857422"/>
     <use xlink:href="#DejaVuSans-6a" x="509.333984"/>
     <use xlink:href="#DejaVuSans-65" x="537.117188"/>
     <use xlink:href="#DejaVuSans-63" x="598.640625"/>
     <use xlink:href="#DejaVuSans-74" x="653.621094"/>
     <use xlink:href="#DejaVuSans-20" x="692.830078"/>
     <use xlink:href="#DejaVuSans-33" x="724.617188"/>
     <use xlink:href="#DejaVuSans-20" x="788.240234"/>
     <use xlink:href="#DejaVuSans-57" x="820.027344"/>
     <use xlink:href="#DejaVuSans-69" x="916.654297"/>
     <use xlink:href="#DejaVuSans-6e" x="944.4375"/>
     <use xlink:href="#DejaVuSans-64" x="1007.816406"/>
     <use xlink:href="#DejaVuSans-6f" x="1071.292969"/>
     <use xlink:href="#DejaVuSans-77" x="1132.474609"/>
     <use xlink:href="#DejaVuSans-20" x="1214.261719"/>
     <use xlink:href="#DejaVuSans-53" x="1246.048828"/>
     <use xlink:href="#DejaVuSans-69" x="1309.525391"/>
     <use xlink:href="#DejaVuSans-7a" x="1337.308594"/>
     <use xlink:href="#DejaVuSans-65" x="1389.798828"/>
     <use xlink:href="#DejaVuSans-3a" x="1451.322266"/>
     <use xlink:href="#DejaVuSans-33" x="1485.013672"/>
     <use xlink:href="#DejaVuSans-30" x="1548.636719"/>
     <use xlink:href="#DejaVuSans-2e" x="1612.259766"/>
     <use xlink:href="#DejaVuSans-30" x="1644.046875"/>
    </g>
   </g>
   <g id="legend_2">
    <g id="patch_13">
     <path d="M 739.70625 64.23625 
L 846.2 64.23625 
Q 848.2 64.23625 848.2 62.23625 
L 848.2 33.88 
Q 848.2 31.88 846.2 31.88 
L 739.70625 31.88 
Q 737.70625 31.88 737.70625 33.88 
L 737.70625 62.23625 
Q 737.70625 64.23625 739.70625 64.23625 
z
" style="fill: #ffffff; opacity: 0.8; stroke: #cccccc; stroke-linejoin: miter"/>
    </g>
    <g id="line2d_30">
     <path d="M 741.70625 39.978437 
L 751.70625 39.978437 
L 761.70625 39.978437 
" style="fill: none; stroke: #1f77b4; stroke-width: 1.5; stroke-linecap: square"/>
    </g>
    <g id="text_32">
     <!-- Training Loss -->
     <g transform="translate(769.70625 43.478437) scale(0.1 -0.1)">
      <use xlink:href="#DejaVuSans-54"/>
      <use xlink:href="#DejaVuSans-72" x="46.333984"/>
      <use xlink:href="#DejaVuSans-61" x="87.447266"/>
      <use xlink:href="#DejaVuSans-69" x="148.726562"/>
      <use xlink:href="#DejaVuSans-6e" x="176.509766"/>
      <use xlink:href="#DejaVuSans-69" x="239.888672"/>
      <use xlink:href="#DejaVuSans-6e" x="267.671875"/>
      <use xlink:href="#DejaVuSans-67" x="331.050781"/>
      <use xlink:href="#DejaVuSans-20" x="394.527344"/>
      <use xlink:href="#DejaVuSans-4c" x="426.314453"/>
      <use xlink:href="#DejaVuSans-6f" x="480.277344"/>
      <use xlink:href="#DejaVuSans-73" x="541.458984"/>
      <use xlink:href="#DejaVuSans-73" x="593.558594"/>
     </g>
    </g>
    <g id="line2d_31">
     <path d="M 741.70625 54.656563 
L 751.70625 54.656563 
L 761.70625 54.656563 
" style="fill: none; stroke: #ff7f0e; stroke-width: 1.5; stroke-linecap: square"/>
    </g>
    <g id="text_33">
     <!-- Validation Loss -->
     <g transform="translate(769.70625 58.156563) scale(0.1 -0.1)">
      <use xlink:href="#DejaVuSans-56"/>
      <use xlink:href="#DejaVuSans-61" x="60.658203"/>
      <use xlink:href="#DejaVuSans-6c" x="121.9375"/>
      <use xlink:href="#DejaVuSans-69" x="149.720703"/>
      <use xlink:href="#DejaVuSans-64" x="177.503906"/>
      <use xlink:href="#DejaVuSans-61" x="240.980469"/>
      <use xlink:href="#DejaVuSans-74" x="302.259766"/>
      <use xlink:href="#DejaVuSans-69" x="341.46875"/>
      <use xlink:href="#DejaVuSans-6f" x="369.251953"/>
      <use xlink:href="#DejaVuSans-6e" x="430.433594"/>
      <use xlink:href="#DejaVuSans-20" x="493.8125"/>
      <use xlink:href="#DejaVuSans-4c" x="525.599609"/>
      <use xlink:href="#DejaVuSans-6f" x="579.5625"/>
      <use xlink:href="#DejaVuSans-73" x="640.744141"/>
      <use xlink:href="#DejaVuSans-73" x="692.84375"/>
     </g>
    </g>
   </g>
  </g>
 </g>
 <defs>
  <clipPath id="pfa09cacd01">
   <rect x="47.72" y="26.88" width="378.88" height="291.16"/>
  </clipPath>
  <clipPath id="p2c3a63a25e">
   <rect x="474.32" y="26.88" width="378.88" height="291.16"/>
  </clipPath>
 </defs>
</svg>
