<?xml version="1.0" encoding="utf-8" standalone="no"?>
<!DOCTYPE svg PUBLIC "-//W3C//DTD SVG 1.1//EN"
  "http://www.w3.org/Graphics/SVG/1.1/DTD/svg11.dtd">
<svg xmlns:xlink="http://www.w3.org/1999/xlink" width="864pt" height="360pt" viewBox="0 0 864 360" xmlns="http://www.w3.org/2000/svg" version="1.1">
 <metadata>
  <rdf:RDF xmlns:dc="http://purl.org/dc/elements/1.1/" xmlns:cc="http://creativecommons.org/ns#" xmlns:rdf="http://www.w3.org/1999/02/22-rdf-syntax-ns#">
   <cc:Work>
    <dc:type rdf:resource="http://purl.org/dc/dcmitype/StillImage"/>
    <dc:date>2024-10-21T16:57:04.758050</dc:date>
    <dc:format>image/svg+xml</dc:format>
    <dc:creator>
     <cc:Agent>
      <dc:title>Matplotlib v3.8.3, https://matplotlib.org/</dc:title>
     </cc:Agent>
    </dc:creator>
   </cc:Work>
  </rdf:RDF>
 </metadata>
 <defs>
  <style type="text/css">*{stroke-linejoin: round; stroke-linecap: butt}</style>
 </defs>
 <g id="figure_1">
  <g id="patch_1">
   <path d="M 0 360 
L 864 360 
L 864 0 
L 0 0 
z
" style="fill: #ffffff"/>
  </g>
  <g id="axes_1">
   <g id="patch_2">
    <path d="M 54.11 318.04 
L 429.795 318.04 
L 429.795 26.88 
L 54.11 26.88 
z
" style="fill: #ffffff"/>
   </g>
   <g id="matplotlib.axis_1">
    <g id="xtick_1">
     <g id="line2d_1">
      <defs>
       <path id="m3763a9902c" d="M 0 0 
L 0 3.5 
" style="stroke: #000000; stroke-width: 0.8"/>
      </defs>
      <g>
       <use xlink:href="#m3763a9902c" x="71.186591" y="318.04" style="stroke: #000000; stroke-width: 0.8"/>
      </g>
     </g>
     <g id="text_1">
      <!-- 0 -->
      <g transform="translate(68.005341 332.638438) scale(0.1 -0.1)">
       <defs>
        <path id="DejaVuSans-30" d="M 2034 4250 
Q 1547 4250 1301 3770 
Q 1056 3291 1056 2328 
Q 1056 1369 1301 889 
Q 1547 409 2034 409 
Q 2525 409 2770 889 
Q 3016 1369 3016 2328 
Q 3016 3291 2770 3770 
Q 2525 4250 2034 4250 
z
M 2034 4750 
Q 2819 4750 3233 4129 
Q 3647 3509 3647 2328 
Q 3647 1150 3233 529 
Q 2819 -91 2034 -91 
Q 1250 -91 836 529 
Q 422 1150 422 2328 
Q 422 3509 836 4129 
Q 1250 4750 2034 4750 
z
" transform="scale(0.015625)"/>
       </defs>
       <use xlink:href="#DejaVuSans-30"/>
      </g>
     </g>
    </g>
    <g id="xtick_2">
     <g id="line2d_2">
      <g>
       <use xlink:href="#m3763a9902c" x="123.810908" y="318.04" style="stroke: #000000; stroke-width: 0.8"/>
      </g>
     </g>
     <g id="text_2">
      <!-- 100 -->
      <g transform="translate(114.267158 332.638438) scale(0.1 -0.1)">
       <defs>
        <path id="DejaVuSans-31" d="M 794 531 
L 1825 531 
L 1825 4091 
L 703 3866 
L 703 4441 
L 1819 4666 
L 2450 4666 
L 2450 531 
L 3481 531 
L 3481 0 
L 794 0 
L 794 531 
z
" transform="scale(0.015625)"/>
       </defs>
       <use xlink:href="#DejaVuSans-31"/>
       <use xlink:href="#DejaVuSans-30" x="63.623047"/>
       <use xlink:href="#DejaVuSans-30" x="127.246094"/>
      </g>
     </g>
    </g>
    <g id="xtick_3">
     <g id="line2d_3">
      <g>
       <use xlink:href="#m3763a9902c" x="176.435225" y="318.04" style="stroke: #000000; stroke-width: 0.8"/>
      </g>
     </g>
     <g id="text_3">
      <!-- 200 -->
      <g transform="translate(166.891475 332.638438) scale(0.1 -0.1)">
       <defs>
        <path id="DejaVuSans-32" d="M 1228 531 
L 3431 531 
L 3431 0 
L 469 0 
L 469 531 
Q 828 903 1448 1529 
Q 2069 2156 2228 2338 
Q 2531 2678 2651 2914 
Q 2772 3150 2772 3378 
Q 2772 3750 2511 3984 
Q 2250 4219 1831 4219 
Q 1534 4219 1204 4116 
Q 875 4013 500 3803 
L 500 4441 
Q 881 4594 1212 4672 
Q 1544 4750 1819 4750 
Q 2544 4750 2975 4387 
Q 3406 4025 3406 3419 
Q 3406 3131 3298 2873 
Q 3191 2616 2906 2266 
Q 2828 2175 2409 1742 
Q 1991 1309 1228 531 
z
" transform="scale(0.015625)"/>
       </defs>
       <use xlink:href="#DejaVuSans-32"/>
       <use xlink:href="#DejaVuSans-30" x="63.623047"/>
       <use xlink:href="#DejaVuSans-30" x="127.246094"/>
      </g>
     </g>
    </g>
    <g id="xtick_4">
     <g id="line2d_4">
      <g>
       <use xlink:href="#m3763a9902c" x="229.059542" y="318.04" style="stroke: #000000; stroke-width: 0.8"/>
      </g>
     </g>
     <g id="text_4">
      <!-- 300 -->
      <g transform="translate(219.515792 332.638438) scale(0.1 -0.1)">
       <defs>
        <path id="DejaVuSans-33" d="M 2597 2516 
Q 3050 2419 3304 2112 
Q 3559 1806 3559 1356 
Q 3559 666 3084 287 
Q 2609 -91 1734 -91 
Q 1441 -91 1130 -33 
Q 819 25 488 141 
L 488 750 
Q 750 597 1062 519 
Q 1375 441 1716 441 
Q 2309 441 2620 675 
Q 2931 909 2931 1356 
Q 2931 1769 2642 2001 
Q 2353 2234 1838 2234 
L 1294 2234 
L 1294 2753 
L 1863 2753 
Q 2328 2753 2575 2939 
Q 2822 3125 2822 3475 
Q 2822 3834 2567 4026 
Q 2313 4219 1838 4219 
Q 1578 4219 1281 4162 
Q 984 4106 628 3988 
L 628 4550 
Q 988 4650 1302 4700 
Q 1616 4750 1894 4750 
Q 2613 4750 3031 4423 
Q 3450 4097 3450 3541 
Q 3450 3153 3228 2886 
Q 3006 2619 2597 2516 
z
" transform="scale(0.015625)"/>
       </defs>
       <use xlink:href="#DejaVuSans-33"/>
       <use xlink:href="#DejaVuSans-30" x="63.623047"/>
       <use xlink:href="#DejaVuSans-30" x="127.246094"/>
      </g>
     </g>
    </g>
    <g id="xtick_5">
     <g id="line2d_5">
      <g>
       <use xlink:href="#m3763a9902c" x="281.683859" y="318.04" style="stroke: #000000; stroke-width: 0.8"/>
      </g>
     </g>
     <g id="text_5">
      <!-- 400 -->
      <g transform="translate(272.140109 332.638438) scale(0.1 -0.1)">
       <defs>
        <path id="DejaVuSans-34" d="M 2419 4116 
L 825 1625 
L 2419 1625 
L 2419 4116 
z
M 2253 4666 
L 3047 4666 
L 3047 1625 
L 3713 1625 
L 3713 1100 
L 3047 1100 
L 3047 0 
L 2419 0 
L 2419 1100 
L 313 1100 
L 313 1709 
L 2253 4666 
z
" transform="scale(0.015625)"/>
       </defs>
       <use xlink:href="#DejaVuSans-34"/>
       <use xlink:href="#DejaVuSans-30" x="63.623047"/>
       <use xlink:href="#DejaVuSans-30" x="127.246094"/>
      </g>
     </g>
    </g>
    <g id="xtick_6">
     <g id="line2d_6">
      <g>
       <use xlink:href="#m3763a9902c" x="334.308177" y="318.04" style="stroke: #000000; stroke-width: 0.8"/>
      </g>
     </g>
     <g id="text_6">
      <!-- 500 -->
      <g transform="translate(324.764427 332.638438) scale(0.1 -0.1)">
       <defs>
        <path id="DejaVuSans-35" d="M 691 4666 
L 3169 4666 
L 3169 4134 
L 1269 4134 
L 1269 2991 
Q 1406 3038 1543 3061 
Q 1681 3084 1819 3084 
Q 2600 3084 3056 2656 
Q 3513 2228 3513 1497 
Q 3513 744 3044 326 
Q 2575 -91 1722 -91 
Q 1428 -91 1123 -41 
Q 819 9 494 109 
L 494 744 
Q 775 591 1075 516 
Q 1375 441 1709 441 
Q 2250 441 2565 725 
Q 2881 1009 2881 1497 
Q 2881 1984 2565 2268 
Q 2250 2553 1709 2553 
Q 1456 2553 1204 2497 
Q 953 2441 691 2322 
L 691 4666 
z
" transform="scale(0.015625)"/>
       </defs>
       <use xlink:href="#DejaVuSans-35"/>
       <use xlink:href="#DejaVuSans-30" x="63.623047"/>
       <use xlink:href="#DejaVuSans-30" x="127.246094"/>
      </g>
     </g>
    </g>
    <g id="xtick_7">
     <g id="line2d_7">
      <g>
       <use xlink:href="#m3763a9902c" x="386.932494" y="318.04" style="stroke: #000000; stroke-width: 0.8"/>
      </g>
     </g>
     <g id="text_7">
      <!-- 600 -->
      <g transform="translate(377.388744 332.638438) scale(0.1 -0.1)">
       <defs>
        <path id="DejaVuSans-36" d="M 2113 2584 
Q 1688 2584 1439 2293 
Q 1191 2003 1191 1497 
Q 1191 994 1439 701 
Q 1688 409 2113 409 
Q 2538 409 2786 701 
Q 3034 994 3034 1497 
Q 3034 2003 2786 2293 
Q 2538 2584 2113 2584 
z
M 3366 4563 
L 3366 3988 
Q 3128 4100 2886 4159 
Q 2644 4219 2406 4219 
Q 1781 4219 1451 3797 
Q 1122 3375 1075 2522 
Q 1259 2794 1537 2939 
Q 1816 3084 2150 3084 
Q 2853 3084 3261 2657 
Q 3669 2231 3669 1497 
Q 3669 778 3244 343 
Q 2819 -91 2113 -91 
Q 1303 -91 875 529 
Q 447 1150 447 2328 
Q 447 3434 972 4092 
Q 1497 4750 2381 4750 
Q 2619 4750 2861 4703 
Q 3103 4656 3366 4563 
z
" transform="scale(0.015625)"/>
       </defs>
       <use xlink:href="#DejaVuSans-36"/>
       <use xlink:href="#DejaVuSans-30" x="63.623047"/>
       <use xlink:href="#DejaVuSans-30" x="127.246094"/>
      </g>
     </g>
    </g>
    <g id="text_8">
     <!-- Epochs -->
     <g transform="translate(224.036875 346.316563) scale(0.1 -0.1)">
      <defs>
       <path id="DejaVuSans-45" d="M 628 4666 
L 3578 4666 
L 3578 4134 
L 1259 4134 
L 1259 2753 
L 3481 2753 
L 3481 2222 
L 1259 2222 
L 1259 531 
L 3634 531 
L 3634 0 
L 628 0 
L 628 4666 
z
" transform="scale(0.015625)"/>
       <path id="DejaVuSans-70" d="M 1159 525 
L 1159 -1331 
L 581 -1331 
L 581 3500 
L 1159 3500 
L 1159 2969 
Q 1341 3281 1617 3432 
Q 1894 3584 2278 3584 
Q 2916 3584 3314 3078 
Q 3713 2572 3713 1747 
Q 3713 922 3314 415 
Q 2916 -91 2278 -91 
Q 1894 -91 1617 61 
Q 1341 213 1159 525 
z
M 3116 1747 
Q 3116 2381 2855 2742 
Q 2594 3103 2138 3103 
Q 1681 3103 1420 2742 
Q 1159 2381 1159 1747 
Q 1159 1113 1420 752 
Q 1681 391 2138 391 
Q 2594 391 2855 752 
Q 3116 1113 3116 1747 
z
" transform="scale(0.015625)"/>
       <path id="DejaVuSans-6f" d="M 1959 3097 
Q 1497 3097 1228 2736 
Q 959 2375 959 1747 
Q 959 1119 1226 758 
Q 1494 397 1959 397 
Q 2419 397 2687 759 
Q 2956 1122 2956 1747 
Q 2956 2369 2687 2733 
Q 2419 3097 1959 3097 
z
M 1959 3584 
Q 2709 3584 3137 3096 
Q 3566 2609 3566 1747 
Q 3566 888 3137 398 
Q 2709 -91 1959 -91 
Q 1206 -91 779 398 
Q 353 888 353 1747 
Q 353 2609 779 3096 
Q 1206 3584 1959 3584 
z
" transform="scale(0.015625)"/>
       <path id="DejaVuSans-63" d="M 3122 3366 
L 3122 2828 
Q 2878 2963 2633 3030 
Q 2388 3097 2138 3097 
Q 1578 3097 1268 2742 
Q 959 2388 959 1747 
Q 959 1106 1268 751 
Q 1578 397 2138 397 
Q 2388 397 2633 464 
Q 2878 531 3122 666 
L 3122 134 
Q 2881 22 2623 -34 
Q 2366 -91 2075 -91 
Q 1284 -91 818 406 
Q 353 903 353 1747 
Q 353 2603 823 3093 
Q 1294 3584 2113 3584 
Q 2378 3584 2631 3529 
Q 2884 3475 3122 3366 
z
" transform="scale(0.015625)"/>
       <path id="DejaVuSans-68" d="M 3513 2113 
L 3513 0 
L 2938 0 
L 2938 2094 
Q 2938 2591 2744 2837 
Q 2550 3084 2163 3084 
Q 1697 3084 1428 2787 
Q 1159 2491 1159 1978 
L 1159 0 
L 581 0 
L 581 4863 
L 1159 4863 
L 1159 2956 
Q 1366 3272 1645 3428 
Q 1925 3584 2291 3584 
Q 2894 3584 3203 3211 
Q 3513 2838 3513 2113 
z
" transform="scale(0.015625)"/>
       <path id="DejaVuSans-73" d="M 2834 3397 
L 2834 2853 
Q 2591 2978 2328 3040 
Q 2066 3103 1784 3103 
Q 1356 3103 1142 2972 
Q 928 2841 928 2578 
Q 928 2378 1081 2264 
Q 1234 2150 1697 2047 
L 1894 2003 
Q 2506 1872 2764 1633 
Q 3022 1394 3022 966 
Q 3022 478 2636 193 
Q 2250 -91 1575 -91 
Q 1294 -91 989 -36 
Q 684 19 347 128 
L 347 722 
Q 666 556 975 473 
Q 1284 391 1588 391 
Q 1994 391 2212 530 
Q 2431 669 2431 922 
Q 2431 1156 2273 1281 
Q 2116 1406 1581 1522 
L 1381 1569 
Q 847 1681 609 1914 
Q 372 2147 372 2553 
Q 372 3047 722 3315 
Q 1072 3584 1716 3584 
Q 2034 3584 2315 3537 
Q 2597 3491 2834 3397 
z
" transform="scale(0.015625)"/>
      </defs>
      <use xlink:href="#DejaVuSans-45"/>
      <use xlink:href="#DejaVuSans-70" x="63.183594"/>
      <use xlink:href="#DejaVuSans-6f" x="126.660156"/>
      <use xlink:href="#DejaVuSans-63" x="187.841797"/>
      <use xlink:href="#DejaVuSans-68" x="242.822266"/>
      <use xlink:href="#DejaVuSans-73" x="306.201172"/>
     </g>
    </g>
   </g>
   <g id="matplotlib.axis_2">
    <g id="ytick_1">
     <g id="line2d_8">
      <defs>
       <path id="m3341d6494c" d="M 0 0 
L -3.5 0 
" style="stroke: #000000; stroke-width: 0.8"/>
      </defs>
      <g>
       <use xlink:href="#m3341d6494c" x="54.11" y="277.241447" style="stroke: #000000; stroke-width: 0.8"/>
      </g>
     </g>
     <g id="text_9">
      <!-- 0.12 -->
      <g transform="translate(24.844375 281.040665) scale(0.1 -0.1)">
       <defs>
        <path id="DejaVuSans-2e" d="M 684 794 
L 1344 794 
L 1344 0 
L 684 0 
L 684 794 
z
" transform="scale(0.015625)"/>
       </defs>
       <use xlink:href="#DejaVuSans-30"/>
       <use xlink:href="#DejaVuSans-2e" x="63.623047"/>
       <use xlink:href="#DejaVuSans-31" x="95.410156"/>
       <use xlink:href="#DejaVuSans-32" x="159.033203"/>
      </g>
     </g>
    </g>
    <g id="ytick_2">
     <g id="line2d_9">
      <g>
       <use xlink:href="#m3341d6494c" x="54.11" y="234.637081" style="stroke: #000000; stroke-width: 0.8"/>
      </g>
     </g>
     <g id="text_10">
      <!-- 0.14 -->
      <g transform="translate(24.844375 238.4363) scale(0.1 -0.1)">
       <use xlink:href="#DejaVuSans-30"/>
       <use xlink:href="#DejaVuSans-2e" x="63.623047"/>
       <use xlink:href="#DejaVuSans-31" x="95.410156"/>
       <use xlink:href="#DejaVuSans-34" x="159.033203"/>
      </g>
     </g>
    </g>
    <g id="ytick_3">
     <g id="line2d_10">
      <g>
       <use xlink:href="#m3341d6494c" x="54.11" y="192.032716" style="stroke: #000000; stroke-width: 0.8"/>
      </g>
     </g>
     <g id="text_11">
      <!-- 0.16 -->
      <g transform="translate(24.844375 195.831935) scale(0.1 -0.1)">
       <use xlink:href="#DejaVuSans-30"/>
       <use xlink:href="#DejaVuSans-2e" x="63.623047"/>
       <use xlink:href="#DejaVuSans-31" x="95.410156"/>
       <use xlink:href="#DejaVuSans-36" x="159.033203"/>
      </g>
     </g>
    </g>
    <g id="ytick_4">
     <g id="line2d_11">
      <g>
       <use xlink:href="#m3341d6494c" x="54.11" y="149.42835" style="stroke: #000000; stroke-width: 0.8"/>
      </g>
     </g>
     <g id="text_12">
      <!-- 0.18 -->
      <g transform="translate(24.844375 153.227569) scale(0.1 -0.1)">
       <defs>
        <path id="DejaVuSans-38" d="M 2034 2216 
Q 1584 2216 1326 1975 
Q 1069 1734 1069 1313 
Q 1069 891 1326 650 
Q 1584 409 2034 409 
Q 2484 409 2743 651 
Q 3003 894 3003 1313 
Q 3003 1734 2745 1975 
Q 2488 2216 2034 2216 
z
M 1403 2484 
Q 997 2584 770 2862 
Q 544 3141 544 3541 
Q 544 4100 942 4425 
Q 1341 4750 2034 4750 
Q 2731 4750 3128 4425 
Q 3525 4100 3525 3541 
Q 3525 3141 3298 2862 
Q 3072 2584 2669 2484 
Q 3125 2378 3379 2068 
Q 3634 1759 3634 1313 
Q 3634 634 3220 271 
Q 2806 -91 2034 -91 
Q 1263 -91 848 271 
Q 434 634 434 1313 
Q 434 1759 690 2068 
Q 947 2378 1403 2484 
z
M 1172 3481 
Q 1172 3119 1398 2916 
Q 1625 2713 2034 2713 
Q 2441 2713 2670 2916 
Q 2900 3119 2900 3481 
Q 2900 3844 2670 4047 
Q 2441 4250 2034 4250 
Q 1625 4250 1398 4047 
Q 1172 3844 1172 3481 
z
" transform="scale(0.015625)"/>
       </defs>
       <use xlink:href="#DejaVuSans-30"/>
       <use xlink:href="#DejaVuSans-2e" x="63.623047"/>
       <use xlink:href="#DejaVuSans-31" x="95.410156"/>
       <use xlink:href="#DejaVuSans-38" x="159.033203"/>
      </g>
     </g>
    </g>
    <g id="ytick_5">
     <g id="line2d_12">
      <g>
       <use xlink:href="#m3341d6494c" x="54.11" y="106.823985" style="stroke: #000000; stroke-width: 0.8"/>
      </g>
     </g>
     <g id="text_13">
      <!-- 0.20 -->
      <g transform="translate(24.844375 110.623204) scale(0.1 -0.1)">
       <use xlink:href="#DejaVuSans-30"/>
       <use xlink:href="#DejaVuSans-2e" x="63.623047"/>
       <use xlink:href="#DejaVuSans-32" x="95.410156"/>
       <use xlink:href="#DejaVuSans-30" x="159.033203"/>
      </g>
     </g>
    </g>
    <g id="ytick_6">
     <g id="line2d_13">
      <g>
       <use xlink:href="#m3341d6494c" x="54.11" y="64.21962" style="stroke: #000000; stroke-width: 0.8"/>
      </g>
     </g>
     <g id="text_14">
      <!-- 0.22 -->
      <g transform="translate(24.844375 68.018838) scale(0.1 -0.1)">
       <use xlink:href="#DejaVuSans-30"/>
       <use xlink:href="#DejaVuSans-2e" x="63.623047"/>
       <use xlink:href="#DejaVuSans-32" x="95.410156"/>
       <use xlink:href="#DejaVuSans-32" x="159.033203"/>
      </g>
     </g>
    </g>
    <g id="text_15">
     <!-- Accuracy -->
     <g transform="translate(18.764687 195.288125) rotate(-90) scale(0.1 -0.1)">
      <defs>
       <path id="DejaVuSans-41" d="M 2188 4044 
L 1331 1722 
L 3047 1722 
L 2188 4044 
z
M 1831 4666 
L 2547 4666 
L 4325 0 
L 3669 0 
L 3244 1197 
L 1141 1197 
L 716 0 
L 50 0 
L 1831 4666 
z
" transform="scale(0.015625)"/>
       <path id="DejaVuSans-75" d="M 544 1381 
L 544 3500 
L 1119 3500 
L 1119 1403 
Q 1119 906 1312 657 
Q 1506 409 1894 409 
Q 2359 409 2629 706 
Q 2900 1003 2900 1516 
L 2900 3500 
L 3475 3500 
L 3475 0 
L 2900 0 
L 2900 538 
Q 2691 219 2414 64 
Q 2138 -91 1772 -91 
Q 1169 -91 856 284 
Q 544 659 544 1381 
z
M 1991 3584 
L 1991 3584 
z
" transform="scale(0.015625)"/>
       <path id="DejaVuSans-72" d="M 2631 2963 
Q 2534 3019 2420 3045 
Q 2306 3072 2169 3072 
Q 1681 3072 1420 2755 
Q 1159 2438 1159 1844 
L 1159 0 
L 581 0 
L 581 3500 
L 1159 3500 
L 1159 2956 
Q 1341 3275 1631 3429 
Q 1922 3584 2338 3584 
Q 2397 3584 2469 3576 
Q 2541 3569 2628 3553 
L 2631 2963 
z
" transform="scale(0.015625)"/>
       <path id="DejaVuSans-61" d="M 2194 1759 
Q 1497 1759 1228 1600 
Q 959 1441 959 1056 
Q 959 750 1161 570 
Q 1363 391 1709 391 
Q 2188 391 2477 730 
Q 2766 1069 2766 1631 
L 2766 1759 
L 2194 1759 
z
M 3341 1997 
L 3341 0 
L 2766 0 
L 2766 531 
Q 2569 213 2275 61 
Q 1981 -91 1556 -91 
Q 1019 -91 701 211 
Q 384 513 384 1019 
Q 384 1609 779 1909 
Q 1175 2209 1959 2209 
L 2766 2209 
L 2766 2266 
Q 2766 2663 2505 2880 
Q 2244 3097 1772 3097 
Q 1472 3097 1187 3025 
Q 903 2953 641 2809 
L 641 3341 
Q 956 3463 1253 3523 
Q 1550 3584 1831 3584 
Q 2591 3584 2966 3190 
Q 3341 2797 3341 1997 
z
" transform="scale(0.015625)"/>
       <path id="DejaVuSans-79" d="M 2059 -325 
Q 1816 -950 1584 -1140 
Q 1353 -1331 966 -1331 
L 506 -1331 
L 506 -850 
L 844 -850 
Q 1081 -850 1212 -737 
Q 1344 -625 1503 -206 
L 1606 56 
L 191 3500 
L 800 3500 
L 1894 763 
L 2988 3500 
L 3597 3500 
L 2059 -325 
z
" transform="scale(0.015625)"/>
      </defs>
      <use xlink:href="#DejaVuSans-41"/>
      <use xlink:href="#DejaVuSans-63" x="66.658203"/>
      <use xlink:href="#DejaVuSans-63" x="121.638672"/>
      <use xlink:href="#DejaVuSans-75" x="176.619141"/>
      <use xlink:href="#DejaVuSans-72" x="239.998047"/>
      <use xlink:href="#DejaVuSans-61" x="281.111328"/>
      <use xlink:href="#DejaVuSans-63" x="342.390625"/>
      <use xlink:href="#DejaVuSans-79" x="397.371094"/>
     </g>
    </g>
   </g>
   <g id="line2d_14">
    <path d="M 71.186591 304.805455 
L 71.712834 289.586182 
L 72.76532 270.18414 
L 73.291564 255.544426 
L 73.817807 249.018281 
L 74.34405 245.314254 
L 75.922779 231.329678 
L 76.449023 223.266486 
L 76.975266 222.359374 
L 77.501509 218.504157 
L 78.027752 213.691452 
L 78.553995 214.422169 
L 79.080238 212.582742 
L 79.606482 209.937017 
L 80.132725 204.821931 
L 80.658968 202.327397 
L 81.185211 204.847135 
L 81.711454 200.840727 
L 82.237698 202.680154 
L 82.763941 196.733567 
L 83.290184 197.817042 
L 83.816427 192.399606 
L 84.34267 193.70985 
L 84.868913 193.155527 
L 85.395157 192.424778 
L 85.9214 192.349198 
L 86.447643 190.509771 
L 86.973886 189.90504 
L 87.500129 183.353691 
L 88.026372 185.848256 
L 88.552616 184.31121 
L 89.078859 184.034033 
L 89.605102 182.396203 
L 90.131345 184.134816 
L 90.657588 180.884361 
L 91.183831 180.934736 
L 91.710075 179.473301 
L 92.236318 175.718867 
L 92.762561 173.728281 
L 93.288804 175.618084 
L 93.815047 181.514295 
L 94.34129 177.986631 
L 94.867534 172.644774 
L 95.393777 172.669978 
L 95.92002 170.301431 
L 96.446263 174.660596 
L 96.972506 170.074629 
L 97.498749 170.780175 
L 98.024993 170.125037 
L 98.551236 169.217925 
L 99.077479 166.043049 
L 99.603722 167.454109 
L 100.129965 167.958056 
L 100.656209 166.496589 
L 101.182452 162.6162 
L 101.708695 171.611676 
L 102.234938 165.463522 
L 102.761181 165.513898 
L 103.287424 166.824174 
L 103.813668 164.55641 
L 104.339911 163.926476 
L 104.866154 164.052463 
L 105.392397 156.971962 
L 105.91864 164.78318 
L 106.444883 155.888488 
L 106.971127 154.729402 
L 107.49737 159.365713 
L 108.023613 158.836562 
L 108.549856 155.283725 
L 109.076099 160.953167 
L 109.602342 158.660199 
L 110.128586 159.18935 
L 110.654829 158.987752 
L 111.181072 154.930968 
L 111.707315 154.704198 
L 112.233558 151.88208 
L 112.759801 156.367232 
L 114.338531 152.940382 
L 114.864774 151.151362 
L 115.391017 152.663205 
L 115.91726 150.294626 
L 116.443504 153.59552 
L 116.969747 154.527804 
L 118.022233 152.008067 
L 118.548476 149.185948 
L 119.074719 150.748198 
L 119.600963 148.253632 
L 120.127206 152.411231 
L 120.653449 145.910289 
L 121.179692 146.74179 
L 121.705935 151.378132 
L 122.232179 145.834678 
L 122.758422 148.75758 
L 123.284665 142.810993 
L 123.810908 142.911776 
L 124.337151 144.020486 
L 124.863394 142.735413 
L 125.389638 144.600013 
L 125.915881 144.776407 
L 126.442124 144.423618 
L 126.968367 145.381138 
L 127.49461 145.280355 
L 128.020853 144.322835 
L 128.547097 144.474026 
L 129.07334 143.340144 
L 129.599583 143.08817 
L 130.125826 144.700796 
L 130.652069 141.475544 
L 131.178312 139.913294 
L 131.704556 137.94788 
L 132.230799 143.340144 
L 132.757042 139.434551 
L 133.283285 138.250261 
L 133.809528 139.459723 
L 134.335771 138.779413 
L 134.862015 144.348039 
L 135.388258 142.559019 
L 135.914501 138.073867 
L 136.440744 140.266051 
L 136.966987 137.897504 
L 137.49323 137.217163 
L 138.019474 139.812511 
L 138.545717 139.308532 
L 139.07196 139.031386 
L 139.598203 135.402939 
L 140.124446 134.319464 
L 140.65069 137.620327 
L 141.176933 133.865893 
L 141.703176 140.392038 
L 142.229419 134.14307 
L 142.755662 129.884688 
L 143.281905 137.49434 
L 143.808149 134.924195 
L 144.334392 135.075386 
L 144.860635 134.697425 
L 145.386878 130.842207 
L 145.913121 129.00278 
L 146.439364 134.898991 
L 146.965608 130.817004 
L 147.491851 131.976089 
L 148.018094 129.153971 
L 148.544337 134.445451 
L 149.07058 133.588715 
L 149.596823 129.305161 
L 150.123067 128.398049 
L 150.64931 128.599616 
L 151.175553 129.305161 
L 151.701796 129.204378 
L 152.754282 129.456352 
L 153.280526 130.439043 
L 153.806769 129.027984 
L 154.333012 126.609029 
L 154.859255 127.591721 
L 155.385498 127.894102 
L 155.911741 130.993398 
L 156.437985 127.742911 
L 156.964228 126.357056 
L 157.490471 129.305161 
L 158.016714 125.802701 
L 158.542957 126.835799 
L 159.069201 124.190075 
L 159.595444 129.632714 
L 160.121687 125.727121 
L 160.64793 127.012194 
L 161.174173 124.139667 
L 161.700416 124.089292 
L 162.22666 129.935096 
L 162.752903 126.886207 
L 163.279146 126.609029 
L 163.805389 121.418364 
L 164.331632 125.449944 
L 164.857875 127.944509 
L 165.384119 122.854595 
L 165.910362 122.275068 
L 166.436605 123.383746 
L 166.962848 124.9712 
L 167.489091 120.007304 
L 168.015334 121.468739 
L 168.541578 128.70043 
L 169.067821 122.829423 
L 169.594064 122.300272 
L 170.120307 122.577449 
L 170.64655 117.462363 
L 171.172793 124.870417 
L 171.699037 120.838805 
L 172.22528 121.216765 
L 172.751523 119.528529 
L 173.277766 124.845213 
L 173.804009 119.150568 
L 174.330252 120.511252 
L 175.382739 121.670337 
L 175.908982 120.662442 
L 176.435225 122.350647 
L 176.961468 122.300272 
L 177.487712 121.77112 
L 178.013955 118.697028 
L 178.540198 118.293864 
L 179.066441 117.689133 
L 179.592684 115.295382 
L 180.118927 119.503357 
L 180.645171 114.917422 
L 181.171414 119.352166 
L 181.697657 119.503357 
L 182.2239 117.185185 
L 182.750143 117.311172 
L 183.276386 122.249864 
L 183.80263 117.285969 
L 184.855116 118.697028 
L 185.381359 115.06858 
L 185.907602 116.278073 
L 186.433845 117.941107 
L 186.960089 118.218284 
L 187.486332 116.933212 
L 188.012575 113.380375 
L 188.538818 115.345758 
L 189.065061 116.706442 
L 189.591304 116.278073 
L 190.117548 113.531534 
L 190.643791 118.293864 
L 191.170034 117.764712 
L 191.696277 114.085889 
L 192.22252 113.859119 
L 192.748763 116.530047 
L 193.275007 115.673343 
L 193.80125 110.835434 
L 194.327493 111.162987 
L 194.853736 114.69062 
L 195.379979 110.608632 
L 195.906223 111.314178 
L 196.432466 114.363067 
L 197.484952 111.742514 
L 198.011195 117.134778 
L 198.537438 112.523639 
L 199.063682 114.640244 
L 199.589925 109.928322 
L 200.116168 114.816607 
L 200.642411 113.607145 
L 201.168654 110.43227 
L 201.694897 111.616527 
L 202.221141 112.37248 
L 202.747384 111.011797 
L 203.273627 111.843329 
L 203.79987 113.758336 
L 204.326113 107.206986 
L 204.852356 114.816607 
L 205.3786 110.507849 
L 205.904843 110.58346 
L 206.431086 103.402176 
L 206.957329 112.271665 
L 207.483572 110.230672 
L 208.009815 108.844816 
L 208.536059 108.970803 
L 209.062302 111.868501 
L 209.588545 109.726724 
L 210.114788 108.214881 
L 210.641031 108.038487 
L 211.167274 113.758336 
L 212.219761 106.325078 
L 212.746004 106.677835 
L 213.272247 109.424375 
L 213.79849 108.340868 
L 214.324734 108.038487 
L 214.850977 102.595848 
L 215.37722 107.736138 
L 215.903463 108.618046 
L 216.429706 108.769236 
L 216.955949 113.304764 
L 218.008436 104.208473 
L 219.060922 109.399171 
L 219.587165 108.41648 
L 220.113408 102.898229 
L 220.639652 109.978698 
L 221.165895 106.274671 
L 221.692138 107.106203 
L 222.744624 110.558256 
L 223.270867 108.517263 
L 223.797111 112.523639 
L 224.323354 107.030592 
L 225.37584 104.158098 
L 225.902083 110.81023 
L 226.428326 106.224295 
L 226.95457 104.309288 
L 227.480813 105.014802 
L 228.007056 104.284085 
L 228.533299 104.888815 
L 229.059542 104.082486 
L 229.585785 104.510855 
L 230.112029 102.419485 
L 230.638272 106.073105 
L 231.164515 101.461966 
L 231.690758 109.625941 
L 232.217001 106.551848 
L 232.743245 102.394281 
L 233.269488 101.587953 
L 233.795731 105.66994 
L 234.321974 105.997493 
L 234.848217 103.553367 
L 235.37446 105.569157 
L 235.900704 105.2164 
L 236.426947 100.580058 
L 236.95319 104.687249 
L 237.479433 104.662045 
L 238.005676 103.175406 
L 238.531919 106.728243 
L 239.058163 103.250986 
L 239.584406 103.225782 
L 240.110649 105.342387 
L 240.636892 101.436762 
L 241.163135 99.471379 
L 241.689378 100.655637 
L 242.215622 102.268294 
L 242.741865 102.343874 
L 243.268108 103.351769 
L 243.794351 101.94071 
L 244.320594 97.909129 
L 244.846837 105.51875 
L 245.373081 103.553367 
L 245.899324 102.747038 
L 246.425567 102.721835 
L 246.95181 103.351769 
L 247.478053 103.175406 
L 248.004296 104.863611 
L 248.53054 101.058801 
L 249.056783 100.630465 
L 249.583026 100.605261 
L 250.109269 100.806828 
L 250.635512 98.715458 
L 251.161755 102.243091 
L 251.687999 101.008426 
L 252.214242 101.260399 
L 252.740485 99.874512 
L 253.266728 99.017808 
L 253.792971 101.310775 
L 254.319215 98.035116 
L 254.845458 101.764347 
L 255.371701 100.37846 
L 255.897944 100.580058 
L 256.424187 100.504478 
L 256.95043 99.748525 
L 257.476674 101.537545 
L 258.002917 100.554854 
L 258.52916 101.033598 
L 259.055403 102.192683 
L 259.581646 99.950123 
L 260.107889 102.948605 
L 260.634133 99.672946 
L 261.160376 100.832031 
L 261.686619 101.361183 
L 262.212862 98.816241 
L 262.739105 98.841445 
L 263.265348 95.767352 
L 263.791592 101.86513 
L 264.317835 97.203584 
L 264.844078 99.773729 
L 265.370321 97.657156 
L 265.896564 92.668056 
L 266.422807 97.253991 
L 266.949051 95.968919 
L 267.475294 100.882439 
L 268.001537 101.461966 
L 268.52778 99.244578 
L 269.054023 100.30288 
L 269.580266 99.496551 
L 270.10651 100.37846 
L 270.632753 93.801938 
L 271.158996 101.965913 
L 272.211482 97.405182 
L 272.737726 98.110696 
L 273.790212 97.304399 
L 274.316455 95.767352 
L 274.842698 99.320189 
L 275.368941 97.657156 
L 275.895185 96.976814 
L 276.421428 94.003504 
L 276.947671 91.685365 
L 277.473914 91.256997 
L 278.000157 95.792524 
L 278.5264 95.565754 
L 279.052644 93.247583 
L 280.10513 97.858722 
L 280.631373 93.37357 
L 281.157616 97.732735 
L 282.210103 98.135899 
L 282.736346 96.548477 
L 283.262589 94.179899 
L 283.788832 94.356293 
L 284.315075 97.052425 
L 284.841318 95.187794 
L 285.367562 94.305886 
L 285.893805 95.994123 
L 286.420048 96.72484 
L 286.946291 94.305886 
L 287.472534 95.691741 
L 287.998777 97.430386 
L 288.525021 97.480761 
L 289.051264 96.976814 
L 289.577507 99.168998 
L 290.10375 97.505965 
L 290.629993 90.274306 
L 291.156237 99.168998 
L 291.68248 96.094906 
L 292.208723 96.775248 
L 292.734966 92.164109 
L 293.261209 94.532656 
L 293.787452 92.617649 
L 294.313696 98.891821 
L 294.839939 94.356293 
L 295.366182 95.414564 
L 295.892425 94.230306 
L 296.418668 97.304399 
L 296.944911 91.307404 
L 297.471155 95.061807 
L 297.997398 93.953129 
L 298.523641 97.405182 
L 299.049884 91.861728 
L 299.576127 94.179899 
L 300.10237 91.307404 
L 300.628614 96.094906 
L 301.154857 93.197207 
L 301.6811 94.48228 
L 302.207343 94.129491 
L 302.733586 96.397287 
L 303.786073 92.138905 
L 304.312316 98.28709 
L 304.838559 90.954616 
L 305.364802 96.573649 
L 305.891045 88.989233 
L 306.417288 94.331089 
L 306.943532 93.37357 
L 307.469775 88.031714 
L 307.996018 91.231793 
L 308.522261 92.718464 
L 309.048504 91.937339 
L 309.574748 88.686852 
L 310.100991 90.929444 
L 311.153477 94.003504 
L 311.67972 91.307404 
L 312.205963 94.759457 
L 312.732207 95.490175 
L 313.25845 90.627062 
L 313.784693 91.483767 
L 314.310936 95.389392 
L 314.837179 96.422459 
L 315.363422 90.022332 
L 315.889666 90.123115 
L 316.415909 92.718464 
L 316.942152 94.104319 
L 317.468395 91.483767 
L 317.994638 89.971924 
L 318.520881 87.930931 
L 319.047125 88.812839 
L 319.573368 83.97493 
L 320.625854 84.35289 
L 321.152097 85.889937 
L 321.67834 83.52139 
L 322.204584 82.589074 
L 322.730827 80.144916 
L 323.25707 82.463087 
L 323.783313 81.757542 
L 324.309556 84.327687 
L 324.835799 83.647377 
L 325.362043 79.288212 
L 325.888286 83.420575 
L 326.414529 81.00162 
L 326.940772 82.009515 
L 327.467015 84.277311 
L 327.993259 78.809436 
L 328.519502 80.951245 
L 329.045745 77.902356 
L 329.571988 81.681962 
L 330.098231 80.17012 
L 330.624474 76.314902 
L 331.150718 79.338587 
L 331.676961 80.447297 
L 332.203204 76.516469 
L 333.25569 83.395403 
L 333.781933 80.17012 
L 334.308177 75.080237 
L 334.83442 79.363791 
L 335.360663 79.388995 
L 335.886906 76.919633 
L 336.413149 79.313415 
L 336.939392 77.348001 
L 337.465636 81.379581 
L 337.991879 77.222014 
L 338.518122 78.53229 
L 339.044365 76.188915 
L 339.570608 75.055033 
L 340.096851 77.851949 
L 340.623095 79.842535 
L 341.149338 75.080237 
L 341.675581 84.982825 
L 342.201824 82.992239 
L 342.728067 76.617283 
L 343.25431 80.522877 
L 343.780554 76.944837 
L 344.306797 80.094509 
L 344.83304 77.272422 
L 345.359283 73.190434 
L 345.885526 79.540185 
L 346.41177 79.691376 
L 346.938013 76.566876 
L 347.464256 77.801541 
L 347.990499 77.776369 
L 348.516742 81.329205 
L 349.569229 77.171607 
L 350.095472 78.406303 
L 350.621715 76.214119 
L 351.147958 76.440889 
L 351.674201 75.609388 
L 352.200444 77.322797 
L 352.726688 74.349488 
L 353.252931 75.18102 
L 353.779174 74.601462 
L 354.305417 76.718067 
L 354.83166 77.473988 
L 355.357903 77.675554 
L 355.884147 80.018929 
L 356.41039 77.171607 
L 356.936633 76.869257 
L 357.462876 75.760547 
L 357.989119 74.248705 
L 358.515362 80.598456 
L 359.041606 74.273908 
L 359.567849 79.892942 
L 360.094092 75.886534 
L 360.620335 76.289699 
L 361.146578 80.069337 
L 361.672821 76.188915 
L 362.199065 77.650382 
L 362.725308 81.404785 
L 363.251551 76.667659 
L 363.777794 81.681962 
L 364.304037 78.658277 
L 364.830281 78.935455 
L 365.356524 77.398408 
L 365.882767 72.585672 
L 366.40901 77.927528 
L 366.935253 77.826745 
L 367.461496 76.138508 
L 367.98774 76.037725 
L 368.513983 77.977935 
L 369.040226 72.610875 
L 369.566469 73.61877 
L 370.092712 75.936942 
L 370.618955 77.398408 
L 371.145199 85.184423 
L 371.671442 77.070824 
L 372.197685 80.422094 
L 372.723928 77.348001 
L 373.250171 79.011034 
L 373.776414 73.291217 
L 374.302658 73.366797 
L 374.828901 78.658277 
L 375.355144 75.810955 
L 375.881387 77.851949 
L 376.40763 75.760547 
L 376.933873 79.288212 
L 377.460117 79.162225 
L 377.98636 76.491297 
L 378.512603 77.574771 
L 379.038846 77.096027 
L 379.565089 78.229909 
L 380.091332 81.757542 
L 381.670062 73.971527 
L 382.196305 79.792159 
L 382.722548 78.784264 
L 383.248791 77.247218 
L 383.775035 78.708653 
L 384.301278 77.776369 
L 385.353764 71.502197 
L 385.880007 80.422094 
L 386.406251 77.751165 
L 386.932494 81.933936 
L 387.458737 75.584185 
L 387.98498 78.15433 
L 388.511223 75.332211 
L 389.037466 78.809436 
L 389.56371 74.752652 
L 390.089953 75.18102 
L 390.616196 76.692863 
L 391.142439 79.288212 
L 391.668682 78.355896 
L 392.194925 77.675554 
L 392.721169 71.22502 
L 393.247412 75.458198 
L 393.773655 76.138508 
L 394.299898 79.867739 
L 394.826141 74.500678 
L 395.352384 72.913257 
L 395.878628 72.258118 
L 396.404871 77.574771 
L 396.931114 75.609388 
L 397.457357 76.188915 
L 397.9836 76.566876 
L 398.509843 78.885047 
L 399.036087 73.01404 
L 399.56233 76.74327 
L 400.088573 78.733857 
L 401.141059 75.432994 
L 401.667302 72.409309 
L 402.193546 80.573284 
L 402.719789 76.113336 
L 403.246032 76.692863 
L 403.772275 78.507087 
L 404.298518 74.324316 
L 404.824762 78.355896 
L 405.351005 77.448784 
L 405.877248 77.700758 
L 406.403491 78.481883 
L 406.929734 78.683449 
L 407.455977 75.911738 
L 407.982221 81.052028 
L 408.508464 73.921152 
L 409.56095 74.702277 
L 410.613436 79.640969 
L 411.13968 74.173125 
L 411.665923 76.415685 
L 412.192166 76.793646 
L 412.718409 76.214119 
L 412.718409 76.214119 
" clip-path="url(#p56dbe3fde5)" style="fill: none; stroke: #1f77b4; stroke-width: 1.5; stroke-linecap: square"/>
   </g>
   <g id="line2d_15">
    <path d="M 71.186591 266.144148 
L 71.712834 246.725313 
L 73.291564 227.734815 
L 73.817807 224.736333 
L 74.34405 220.024411 
L 74.870293 220.309969 
L 75.396536 211.028904 
L 75.922779 206.316982 
L 76.449023 208.030422 
L 76.975266 207.744833 
L 77.501509 203.17569 
L 78.027752 203.461279 
L 78.553995 195.322508 
L 79.080238 195.036918 
L 79.606482 192.181216 
L 80.132725 194.322993 
L 81.185211 187.754852 
L 81.711454 186.755368 
L 82.237698 178.902154 
L 82.763941 180.187227 
L 83.290184 177.045935 
L 83.816427 177.331524 
L 84.34267 172.90516 
L 84.868913 185.613075 
L 85.9214 169.763868 
L 86.447643 172.334013 
L 86.973886 170.763383 
L 88.026372 168.336017 
L 88.552616 168.193238 
L 89.078859 170.049457 
L 89.605102 165.908651 
L 90.131345 158.769394 
L 90.657588 162.481801 
L 91.183831 163.338537 
L 91.710075 166.908166 
L 92.236318 157.769879 
L 92.762561 164.909167 
L 93.288804 158.341026 
L 93.815047 159.054952 
L 94.34129 155.91366 
L 94.867534 157.341543 
L 95.393777 154.628587 
L 95.92002 153.486325 
L 96.446263 155.485323 
L 96.972506 146.204258 
L 97.498749 151.915663 
L 98.024993 150.059476 
L 98.551236 149.488329 
L 99.077479 149.20274 
L 99.603722 146.632595 
L 100.129965 146.347037 
L 100.656209 144.348039 
L 101.182452 147.346552 
L 101.708695 146.918184 
L 102.234938 145.633111 
L 102.761181 142.634598 
L 103.287424 149.631108 
L 103.813668 146.918184 
L 104.866154 138.208266 
L 105.392397 138.779413 
L 105.91864 140.207264 
L 106.444883 138.493823 
L 106.971127 141.206747 
L 107.49737 138.208266 
L 108.023613 141.206747 
L 108.549856 139.636117 
L 109.076099 132.35405 
L 109.602342 139.493338 
L 110.128586 139.350528 
L 110.654829 132.925197 
L 111.181072 129.926684 
L 111.707315 136.066489 
L 112.233558 135.638121 
L 112.759801 134.638606 
L 113.286045 126.928202 
L 113.812288 127.356539 
L 114.338531 131.640124 
L 114.864774 137.065972 
L 115.391017 131.211756 
L 115.91726 131.211756 
L 116.443504 132.068492 
L 116.969747 124.215279 
L 117.49599 127.21376 
L 118.022233 126.071498 
L 118.548476 124.358057 
L 119.074719 120.50284 
L 119.600963 130.926199 
L 120.127206 128.927201 
L 120.653449 120.217282 
L 121.179692 123.358542 
L 121.705935 129.926684 
L 122.758422 119.503357 
L 123.284665 121.073987 
L 123.810908 123.929689 
L 124.337151 118.789431 
L 125.389638 116.504844 
L 125.915881 114.220288 
L 126.442124 115.50536 
L 126.968367 115.648139 
L 127.49461 115.076992 
L 128.020853 115.790918 
L 128.547097 116.219286 
L 129.599583 121.216765 
L 130.125826 122.644617 
L 131.178312 115.076992 
L 131.704556 115.076992 
L 132.230799 114.934213 
L 132.757042 111.078996 
L 133.283285 111.221775 
L 133.809528 112.078479 
L 134.335771 108.366072 
L 134.862015 111.507364 
L 135.388258 106.795442 
L 135.914501 115.933697 
L 136.966987 110.222291 
L 137.49323 108.366072 
L 138.019474 108.65163 
L 138.545717 110.793438 
L 139.07196 109.222777 
L 139.598203 106.795442 
L 140.124446 109.222777 
L 141.176933 104.225297 
L 141.703176 109.936702 
L 142.229419 101.084005 
L 142.755662 110.222291 
L 143.281905 99.941711 
L 143.808149 107.366557 
L 144.334392 105.22478 
L 144.860635 99.798933 
L 145.386878 107.081 
L 145.913121 105.367559 
L 146.439364 103.225782 
L 146.965608 102.940224 
L 147.491851 102.083488 
L 148.018094 100.655637 
L 148.544337 101.94071 
L 149.07058 96.229304 
L 149.596823 96.800451 
L 150.123067 96.229304 
L 150.64931 102.940224 
L 151.175553 101.369563 
L 152.228039 101.655152 
L 152.754282 95.372568 
L 153.280526 91.231793 
L 153.806769 98.085492 
L 154.333012 96.372083 
L 154.859255 96.514862 
L 155.385498 90.660646 
L 155.911741 94.515864 
L 156.437985 92.945234 
L 156.964228 96.800451 
L 157.490471 90.375089 
L 158.016714 91.089014 
L 158.542957 92.659644 
L 159.069201 98.942228 
L 159.595444 91.660161 
L 160.121687 88.661648 
L 160.64793 90.660646 
L 161.174173 88.947237 
L 161.700416 92.088498 
L 162.22666 86.377092 
L 162.752903 85.520388 
L 163.279146 86.377092 
L 163.805389 87.662165 
L 164.331632 89.803942 
L 164.857875 85.663167 
L 165.384119 88.804459 
L 165.910362 94.087496 
L 166.436605 87.376576 
L 166.962848 88.661648 
L 167.489091 86.091503 
L 168.015334 85.520388 
L 168.541578 87.947722 
L 169.067821 88.661648 
L 169.594064 93.088012 
L 170.120307 92.374087 
L 170.64655 92.231308 
L 171.172793 87.947722 
L 171.699037 85.234799 
L 172.22528 88.233312 
L 172.751523 90.375089 
L 173.277766 83.378579 
L 173.804009 89.232795 
L 174.330252 81.807949 
L 174.856496 85.520388 
L 175.382739 83.2358 
L 175.908982 86.66265 
L 176.435225 79.808951 
L 176.961468 84.806462 
L 177.487712 85.805946 
L 178.013955 85.805946 
L 179.066441 74.097514 
L 179.592684 84.949241 
L 180.118927 80.522877 
L 180.645171 79.380583 
L 181.171414 79.523393 
L 181.697657 83.378579 
L 182.2239 83.949726 
L 182.750143 77.524395 
L 183.276386 81.522392 
L 184.328873 85.377577 
L 184.855116 84.520873 
L 185.381359 80.094509 
L 185.907602 79.808951 
L 186.433845 77.381585 
L 186.960089 81.236802 
L 187.486332 81.094024 
L 188.012575 82.664654 
L 188.538818 77.381585 
L 189.065061 77.809953 
L 189.591304 81.807949 
L 190.117548 77.667174 
L 190.643791 77.809953 
L 191.170034 81.522392 
L 191.696277 77.809953 
L 192.22252 81.66517 
L 192.748763 76.810438 
L 193.275007 76.382102 
L 193.80125 76.953248 
L 194.327493 75.953734 
L 194.853736 77.667174 
L 195.379979 78.809436 
L 195.906223 82.950243 
L 196.432466 74.81144 
L 196.958709 75.382587 
L 197.484952 78.523879 
L 198.011195 74.240325 
L 198.537438 79.380583 
L 199.063682 76.096512 
L 199.589925 78.523879 
L 200.116168 79.380583 
L 200.642411 77.524395 
L 201.168654 78.523879 
L 201.694897 72.669663 
L 202.221141 74.668661 
L 202.747384 71.955737 
L 203.273627 73.098031 
L 203.79987 73.526399 
L 204.326113 75.668176 
L 204.852356 75.668176 
L 205.3786 68.814445 
L 206.431086 77.524395 
L 206.957329 77.809953 
L 207.483572 74.525882 
L 208.009815 67.814962 
L 208.536059 71.527401 
L 209.062302 72.098516 
L 209.588545 73.811957 
L 210.114788 67.243815 
L 210.641031 68.386109 
L 211.167274 73.098031 
L 211.693518 69.528403 
L 212.219761 69.100035 
L 212.746004 70.527886 
L 213.272247 73.24081 
L 213.79849 64.816449 
L 214.324734 65.530406 
L 214.850977 67.529405 
L 215.37722 71.812958 
L 215.903463 77.667174 
L 216.429706 67.957741 
L 216.955949 66.101521 
L 217.482193 73.811957 
L 218.008436 69.81396 
L 218.534679 61.675189 
L 219.060922 68.671667 
L 219.587165 64.102523 
L 220.113408 64.530891 
L 220.639652 67.672183 
L 221.165895 62.817451 
L 221.692138 67.957741 
L 222.218381 70.670665 
L 222.744624 71.38459 
L 223.270867 66.101521 
L 223.797111 65.244817 
L 224.323354 74.525882 
L 225.37584 68.10052 
L 225.902083 68.386109 
L 226.428326 76.810438 
L 226.95457 72.669663 
L 227.480813 69.81396 
L 228.007056 74.668661 
L 228.533299 65.958743 
L 229.059542 68.671667 
L 229.585785 66.672668 
L 230.112029 71.812958 
L 230.638272 63.245819 
L 231.164515 71.527401 
L 231.690758 69.242813 
L 232.217001 65.815964 
L 232.743245 64.95926 
L 233.269488 61.675189 
L 233.795731 60.247338 
L 234.321974 66.672668 
L 234.848217 66.672668 
L 235.37446 67.957741 
L 235.900704 63.388598 
L 236.426947 63.388598 
L 236.95319 62.674672 
L 237.479433 58.962265 
L 238.005676 66.101521 
L 238.531919 59.105044 
L 239.058163 61.246821 
L 239.584406 62.103525 
L 240.110649 67.386594 
L 241.163135 58.105529 
L 241.689378 64.245334 
L 242.215622 65.244817 
L 242.741865 66.815447 
L 243.268108 64.102523 
L 243.794351 63.959745 
L 244.320594 57.391603 
L 244.846837 66.387111 
L 245.373081 56.677678 
L 245.899324 63.388598 
L 246.425567 61.104042 
L 246.95181 53.679196 
L 247.478053 53.964754 
L 248.53054 68.528888 
L 249.056783 63.245819 
L 249.583026 56.39212 
L 250.109269 60.532895 
L 250.635512 60.532895 
L 251.161755 61.104042 
L 251.687999 65.102038 
L 252.214242 58.962265 
L 252.740485 62.103525 
L 253.266728 58.105529 
L 253.792971 59.247823 
L 254.319215 58.962265 
L 255.371701 55.820973 
L 255.897944 58.962265 
L 256.424187 66.672668 
L 256.95043 54.393122 
L 257.476674 56.106531 
L 258.002917 61.817968 
L 258.52916 57.248824 
L 259.055403 58.962265 
L 259.581646 56.249341 
L 260.107889 58.248339 
L 260.634133 59.390601 
L 261.160376 56.39212 
L 261.686619 58.962265 
L 262.212862 59.961748 
L 263.265348 60.247338 
L 263.791592 62.246336 
L 264.317835 51.965756 
L 264.844078 57.248824 
L 265.370321 51.25183 
L 265.896564 50.109536 
L 266.422807 61.817968 
L 266.949051 53.821975 
L 267.475294 56.677678 
L 268.001537 58.391118 
L 268.52778 53.108049 
L 269.054023 53.679196 
L 269.580266 57.534414 
L 270.10651 55.820973 
L 270.632753 56.677678 
L 271.158996 52.108534 
L 271.685239 49.395611 
L 272.211482 55.392605 
L 272.737726 49.823979 
L 273.263969 54.393122 
L 273.790212 54.678679 
L 274.316455 62.389114 
L 274.842698 56.534899 
L 275.368941 62.531893 
L 276.421428 57.248824 
L 276.947671 57.96275 
L 277.473914 63.245819 
L 278.000157 59.105044 
L 278.5264 52.965271 
L 279.052644 59.818969 
L 279.578887 55.392605 
L 280.10513 55.392605 
L 280.631373 57.106046 
L 281.157616 54.821458 
L 281.683859 54.535901 
L 282.210103 56.820456 
L 282.736346 52.251345 
L 283.262589 54.393122 
L 283.788832 55.820973 
L 284.315075 60.390116 
L 284.841318 54.821458 
L 285.367562 57.534414 
L 285.893805 55.535416 
L 286.420048 45.112057 
L 286.946291 46.682687 
L 287.472534 52.108534 
L 287.998777 51.537388 
L 288.525021 52.965271 
L 289.051264 56.106531 
L 289.577507 50.252347 
L 290.10375 57.819971 
L 290.629993 51.394609 
L 291.156237 57.96275 
L 291.68248 47.539391 
L 292.208723 49.6812 
L 292.734966 52.965271 
L 293.261209 48.396127 
L 293.787452 51.394609 
L 294.313696 48.681685 
L 294.839939 47.253834 
L 295.366182 57.534414 
L 296.418668 50.109536 
L 297.471155 51.537388 
L 297.997398 54.821458 
L 298.523641 52.108534 
L 299.049884 52.536902 
L 300.10237 45.968761 
L 300.628614 60.675674 
L 301.154857 48.396127 
L 301.6811 48.538906 
L 302.207343 48.538906 
L 303.259829 55.820973 
L 303.786073 45.540393 
L 304.312316 52.82246 
L 304.838559 55.963752 
L 305.364802 47.539391 
L 305.891045 48.253349 
L 306.417288 50.252347 
L 306.943532 54.393122 
L 307.996018 44.255352 
L 308.522261 45.112057 
L 309.048504 52.82246 
L 309.574748 49.966757 
L 310.100991 45.397614 
L 310.627234 49.6812 
L 311.153477 49.6812 
L 311.67972 48.681685 
L 312.205963 51.537388 
L 313.25845 46.968276 
L 313.784693 50.680683 
L 314.310936 51.965756 
L 314.837179 48.967274 
L 315.363422 49.966757 
L 315.889666 41.970765 
L 316.415909 46.682687 
L 316.942152 49.538389 
L 317.468395 44.683689 
L 317.994638 55.963752 
L 318.520881 55.107048 
L 319.047125 55.392605 
L 320.099611 48.681685 
L 320.625854 48.396127 
L 321.152097 50.966272 
L 322.204584 46.682687 
L 322.730827 48.538906 
L 323.25707 46.539908 
L 323.783313 45.397614 
L 324.309556 45.112057 
L 324.835799 45.968761 
L 325.888286 44.683689 
L 326.414529 46.397129 
L 326.940772 46.397129 
L 327.467015 46.25435 
L 327.993259 45.540393 
L 328.519502 45.968761 
L 329.045745 45.397614 
L 329.571988 43.826984 
L 330.098231 43.398616 
L 330.624474 44.398131 
L 331.150718 42.399133 
L 331.676961 42.68469 
L 332.203204 41.11406 
L 332.729447 41.11406 
L 333.25569 42.97028 
L 333.781933 43.398616 
L 334.308177 43.113059 
L 334.83442 44.683689 
L 335.360663 44.112542 
L 335.886906 42.399133 
L 336.413149 41.256839 
L 336.939392 41.970765 
L 337.465636 42.256354 
L 337.991879 43.541395 
L 338.518122 42.399133 
L 339.044365 40.685692 
L 339.570608 41.970765 
L 340.096851 41.11406 
L 340.623095 41.685207 
L 341.149338 42.97028 
L 341.675581 41.827986 
L 342.201824 40.114545 
L 342.728067 40.828471 
L 343.25431 40.257356 
L 343.780554 43.969763 
L 344.306797 44.255352 
L 344.83304 42.399133 
L 345.359283 42.541912 
L 345.885526 40.400135 
L 346.41177 40.971282 
L 346.938013 44.112542 
L 347.464256 44.112542 
L 347.990499 44.683689 
L 348.516742 44.54091 
L 349.042985 43.398616 
L 349.569229 44.255352 
L 350.095472 44.683689 
L 350.621715 44.112542 
L 351.147958 43.969763 
L 351.674201 44.398131 
L 352.200444 43.969763 
L 352.726688 43.113059 
L 353.779174 43.398616 
L 354.305417 43.113059 
L 354.83166 42.97028 
L 355.357903 43.255837 
L 355.884147 42.256354 
L 356.41039 42.541912 
L 356.936633 42.541912 
L 357.462876 42.68469 
L 357.989119 42.97028 
L 358.515362 42.97028 
L 359.041606 41.685207 
L 359.567849 41.542397 
L 360.094092 41.542397 
L 360.620335 41.827986 
L 361.146578 41.11406 
L 361.672821 41.827986 
L 362.725308 42.541912 
L 363.251551 42.256354 
L 363.777794 42.827469 
L 364.304037 41.970765 
L 364.830281 41.827986 
L 365.882767 42.68469 
L 366.40901 42.399133 
L 366.935253 42.256354 
L 367.461496 41.685207 
L 367.98774 41.685207 
L 368.513983 40.828471 
L 369.040226 40.828471 
L 369.566469 40.542914 
L 370.092712 40.542914 
L 370.618955 40.828471 
L 371.671442 41.11406 
L 372.197685 41.399618 
L 372.723928 40.971282 
L 373.250171 41.827986 
L 373.776414 41.827986 
L 374.302658 42.113544 
L 374.828901 41.542397 
L 375.355144 41.685207 
L 375.881387 40.542914 
L 376.40763 40.685692 
L 376.933873 40.971282 
L 377.460117 40.828471 
L 378.512603 40.828471 
L 379.038846 40.542914 
L 379.565089 40.685692 
L 380.091332 40.400135 
L 380.617576 40.400135 
L 381.143819 40.685692 
L 381.670062 40.542914 
L 382.722548 40.828471 
L 383.248791 40.828471 
L 384.301278 40.542914 
L 385.353764 40.828471 
L 385.880007 40.828471 
L 386.406251 40.685692 
L 412.718409 40.685692 
L 412.718409 40.685692 
" clip-path="url(#p56dbe3fde5)" style="fill: none; stroke: #ff7f0e; stroke-width: 1.5; stroke-linecap: square"/>
   </g>
   <g id="patch_3">
    <path d="M 54.11 318.04 
L 54.11 26.88 
" style="fill: none; stroke: #000000; stroke-width: 0.8; stroke-linejoin: miter; stroke-linecap: square"/>
   </g>
   <g id="patch_4">
    <path d="M 429.795 318.04 
L 429.795 26.88 
" style="fill: none; stroke: #000000; stroke-width: 0.8; stroke-linejoin: miter; stroke-linecap: square"/>
   </g>
   <g id="patch_5">
    <path d="M 54.11 318.04 
L 429.795 318.04 
" style="fill: none; stroke: #000000; stroke-width: 0.8; stroke-linejoin: miter; stroke-linecap: square"/>
   </g>
   <g id="patch_6">
    <path d="M 54.11 26.88 
L 429.795 26.88 
" style="fill: none; stroke: #000000; stroke-width: 0.8; stroke-linejoin: miter; stroke-linecap: square"/>
   </g>
   <g id="text_16">
    <!-- Accuracy - All Subject -->
    <g transform="translate(176.804688 20.88) scale(0.12 -0.12)">
     <defs>
      <path id="DejaVuSans-20" transform="scale(0.015625)"/>
      <path id="DejaVuSans-2d" d="M 313 2009 
L 1997 2009 
L 1997 1497 
L 313 1497 
L 313 2009 
z
" transform="scale(0.015625)"/>
      <path id="DejaVuSans-6c" d="M 603 4863 
L 1178 4863 
L 1178 0 
L 603 0 
L 603 4863 
z
" transform="scale(0.015625)"/>
      <path id="DejaVuSans-53" d="M 3425 4513 
L 3425 3897 
Q 3066 4069 2747 4153 
Q 2428 4238 2131 4238 
Q 1616 4238 1336 4038 
Q 1056 3838 1056 3469 
Q 1056 3159 1242 3001 
Q 1428 2844 1947 2747 
L 2328 2669 
Q 3034 2534 3370 2195 
Q 3706 1856 3706 1288 
Q 3706 609 3251 259 
Q 2797 -91 1919 -91 
Q 1588 -91 1214 -16 
Q 841 59 441 206 
L 441 856 
Q 825 641 1194 531 
Q 1563 422 1919 422 
Q 2459 422 2753 634 
Q 3047 847 3047 1241 
Q 3047 1584 2836 1778 
Q 2625 1972 2144 2069 
L 1759 2144 
Q 1053 2284 737 2584 
Q 422 2884 422 3419 
Q 422 4038 858 4394 
Q 1294 4750 2059 4750 
Q 2388 4750 2728 4690 
Q 3069 4631 3425 4513 
z
" transform="scale(0.015625)"/>
      <path id="DejaVuSans-62" d="M 3116 1747 
Q 3116 2381 2855 2742 
Q 2594 3103 2138 3103 
Q 1681 3103 1420 2742 
Q 1159 2381 1159 1747 
Q 1159 1113 1420 752 
Q 1681 391 2138 391 
Q 2594 391 2855 752 
Q 3116 1113 3116 1747 
z
M 1159 2969 
Q 1341 3281 1617 3432 
Q 1894 3584 2278 3584 
Q 2916 3584 3314 3078 
Q 3713 2572 3713 1747 
Q 3713 922 3314 415 
Q 2916 -91 2278 -91 
Q 1894 -91 1617 61 
Q 1341 213 1159 525 
L 1159 0 
L 581 0 
L 581 4863 
L 1159 4863 
L 1159 2969 
z
" transform="scale(0.015625)"/>
      <path id="DejaVuSans-6a" d="M 603 3500 
L 1178 3500 
L 1178 -63 
Q 1178 -731 923 -1031 
Q 669 -1331 103 -1331 
L -116 -1331 
L -116 -844 
L 38 -844 
Q 366 -844 484 -692 
Q 603 -541 603 -63 
L 603 3500 
z
M 603 4863 
L 1178 4863 
L 1178 4134 
L 603 4134 
L 603 4863 
z
" transform="scale(0.015625)"/>
      <path id="DejaVuSans-65" d="M 3597 1894 
L 3597 1613 
L 953 1613 
Q 991 1019 1311 708 
Q 1631 397 2203 397 
Q 2534 397 2845 478 
Q 3156 559 3463 722 
L 3463 178 
Q 3153 47 2828 -22 
Q 2503 -91 2169 -91 
Q 1331 -91 842 396 
Q 353 884 353 1716 
Q 353 2575 817 3079 
Q 1281 3584 2069 3584 
Q 2775 3584 3186 3129 
Q 3597 2675 3597 1894 
z
M 3022 2063 
Q 3016 2534 2758 2815 
Q 2500 3097 2075 3097 
Q 1594 3097 1305 2825 
Q 1016 2553 972 2059 
L 3022 2063 
z
" transform="scale(0.015625)"/>
      <path id="DejaVuSans-74" d="M 1172 4494 
L 1172 3500 
L 2356 3500 
L 2356 3053 
L 1172 3053 
L 1172 1153 
Q 1172 725 1289 603 
Q 1406 481 1766 481 
L 2356 481 
L 2356 0 
L 1766 0 
Q 1100 0 847 248 
Q 594 497 594 1153 
L 594 3053 
L 172 3053 
L 172 3500 
L 594 3500 
L 594 4494 
L 1172 4494 
z
" transform="scale(0.015625)"/>
     </defs>
     <use xlink:href="#DejaVuSans-41"/>
     <use xlink:href="#DejaVuSans-63" x="66.658203"/>
     <use xlink:href="#DejaVuSans-63" x="121.638672"/>
     <use xlink:href="#DejaVuSans-75" x="176.619141"/>
     <use xlink:href="#DejaVuSans-72" x="239.998047"/>
     <use xlink:href="#DejaVuSans-61" x="281.111328"/>
     <use xlink:href="#DejaVuSans-63" x="342.390625"/>
     <use xlink:href="#DejaVuSans-79" x="397.371094"/>
     <use xlink:href="#DejaVuSans-20" x="456.550781"/>
     <use xlink:href="#DejaVuSans-2d" x="488.337891"/>
     <use xlink:href="#DejaVuSans-20" x="524.421875"/>
     <use xlink:href="#DejaVuSans-41" x="556.208984"/>
     <use xlink:href="#DejaVuSans-6c" x="624.617188"/>
     <use xlink:href="#DejaVuSans-6c" x="652.400391"/>
     <use xlink:href="#DejaVuSans-20" x="680.183594"/>
     <use xlink:href="#DejaVuSans-53" x="711.970703"/>
     <use xlink:href="#DejaVuSans-75" x="775.447266"/>
     <use xlink:href="#DejaVuSans-62" x="838.826172"/>
     <use xlink:href="#DejaVuSans-6a" x="902.302734"/>
     <use xlink:href="#DejaVuSans-65" x="930.085938"/>
     <use xlink:href="#DejaVuSans-63" x="991.609375"/>
     <use xlink:href="#DejaVuSans-74" x="1046.589844"/>
    </g>
   </g>
   <g id="legend_1">
    <g id="patch_7">
     <path d="M 61.11 64.23625 
L 191.325625 64.23625 
Q 193.325625 64.23625 193.325625 62.23625 
L 193.325625 33.88 
Q 193.325625 31.88 191.325625 31.88 
L 61.11 31.88 
Q 59.11 31.88 59.11 33.88 
L 59.11 62.23625 
Q 59.11 64.23625 61.11 64.23625 
z
" style="fill: #ffffff; opacity: 0.8; stroke: #cccccc; stroke-linejoin: miter"/>
    </g>
    <g id="line2d_16">
     <path d="M 63.11 39.978437 
L 73.11 39.978437 
L 83.11 39.978437 
" style="fill: none; stroke: #1f77b4; stroke-width: 1.5; stroke-linecap: square"/>
    </g>
    <g id="text_17">
     <!-- Training Accuracy -->
     <g transform="translate(91.11 43.478437) scale(0.1 -0.1)">
      <defs>
       <path id="DejaVuSans-54" d="M -19 4666 
L 3928 4666 
L 3928 4134 
L 2272 4134 
L 2272 0 
L 1638 0 
L 1638 4134 
L -19 4134 
L -19 4666 
z
" transform="scale(0.015625)"/>
       <path id="DejaVuSans-69" d="M 603 3500 
L 1178 3500 
L 1178 0 
L 603 0 
L 603 3500 
z
M 603 4863 
L 1178 4863 
L 1178 4134 
L 603 4134 
L 603 4863 
z
" transform="scale(0.015625)"/>
       <path id="DejaVuSans-6e" d="M 3513 2113 
L 3513 0 
L 2938 0 
L 2938 2094 
Q 2938 2591 2744 2837 
Q 2550 3084 2163 3084 
Q 1697 3084 1428 2787 
Q 1159 2491 1159 1978 
L 1159 0 
L 581 0 
L 581 3500 
L 1159 3500 
L 1159 2956 
Q 1366 3272 1645 3428 
Q 1925 3584 2291 3584 
Q 2894 3584 3203 3211 
Q 3513 2838 3513 2113 
z
" transform="scale(0.015625)"/>
       <path id="DejaVuSans-67" d="M 2906 1791 
Q 2906 2416 2648 2759 
Q 2391 3103 1925 3103 
Q 1463 3103 1205 2759 
Q 947 2416 947 1791 
Q 947 1169 1205 825 
Q 1463 481 1925 481 
Q 2391 481 2648 825 
Q 2906 1169 2906 1791 
z
M 3481 434 
Q 3481 -459 3084 -895 
Q 2688 -1331 1869 -1331 
Q 1566 -1331 1297 -1286 
Q 1028 -1241 775 -1147 
L 775 -588 
Q 1028 -725 1275 -790 
Q 1522 -856 1778 -856 
Q 2344 -856 2625 -561 
Q 2906 -266 2906 331 
L 2906 616 
Q 2728 306 2450 153 
Q 2172 0 1784 0 
Q 1141 0 747 490 
Q 353 981 353 1791 
Q 353 2603 747 3093 
Q 1141 3584 1784 3584 
Q 2172 3584 2450 3431 
Q 2728 3278 2906 2969 
L 2906 3500 
L 3481 3500 
L 3481 434 
z
" transform="scale(0.015625)"/>
      </defs>
      <use xlink:href="#DejaVuSans-54"/>
      <use xlink:href="#DejaVuSans-72" x="46.333984"/>
      <use xlink:href="#DejaVuSans-61" x="87.447266"/>
      <use xlink:href="#DejaVuSans-69" x="148.726562"/>
      <use xlink:href="#DejaVuSans-6e" x="176.509766"/>
      <use xlink:href="#DejaVuSans-69" x="239.888672"/>
      <use xlink:href="#DejaVuSans-6e" x="267.671875"/>
      <use xlink:href="#DejaVuSans-67" x="331.050781"/>
      <use xlink:href="#DejaVuSans-20" x="394.527344"/>
      <use xlink:href="#DejaVuSans-41" x="426.314453"/>
      <use xlink:href="#DejaVuSans-63" x="492.972656"/>
      <use xlink:href="#DejaVuSans-63" x="547.953125"/>
      <use xlink:href="#DejaVuSans-75" x="602.933594"/>
      <use xlink:href="#DejaVuSans-72" x="666.3125"/>
      <use xlink:href="#DejaVuSans-61" x="707.425781"/>
      <use xlink:href="#DejaVuSans-63" x="768.705078"/>
      <use xlink:href="#DejaVuSans-79" x="823.685547"/>
     </g>
    </g>
    <g id="line2d_17">
     <path d="M 63.11 54.656563 
L 73.11 54.656563 
L 83.11 54.656563 
" style="fill: none; stroke: #ff7f0e; stroke-width: 1.5; stroke-linecap: square"/>
    </g>
    <g id="text_18">
     <!-- Validation Accuracy -->
     <g transform="translate(91.11 58.156563) scale(0.1 -0.1)">
      <defs>
       <path id="DejaVuSans-56" d="M 1831 0 
L 50 4666 
L 709 4666 
L 2188 738 
L 3669 4666 
L 4325 4666 
L 2547 0 
L 1831 0 
z
" transform="scale(0.015625)"/>
       <path id="DejaVuSans-64" d="M 2906 2969 
L 2906 4863 
L 3481 4863 
L 3481 0 
L 2906 0 
L 2906 525 
Q 2725 213 2448 61 
Q 2172 -91 1784 -91 
Q 1150 -91 751 415 
Q 353 922 353 1747 
Q 353 2572 751 3078 
Q 1150 3584 1784 3584 
Q 2172 3584 2448 3432 
Q 2725 3281 2906 2969 
z
M 947 1747 
Q 947 1113 1208 752 
Q 1469 391 1925 391 
Q 2381 391 2643 752 
Q 2906 1113 2906 1747 
Q 2906 2381 2643 2742 
Q 2381 3103 1925 3103 
Q 1469 3103 1208 2742 
Q 947 2381 947 1747 
z
" transform="scale(0.015625)"/>
      </defs>
      <use xlink:href="#DejaVuSans-56"/>
      <use xlink:href="#DejaVuSans-61" x="60.658203"/>
      <use xlink:href="#DejaVuSans-6c" x="121.9375"/>
      <use xlink:href="#DejaVuSans-69" x="149.720703"/>
      <use xlink:href="#DejaVuSans-64" x="177.503906"/>
      <use xlink:href="#DejaVuSans-61" x="240.980469"/>
      <use xlink:href="#DejaVuSans-74" x="302.259766"/>
      <use xlink:href="#DejaVuSans-69" x="341.46875"/>
      <use xlink:href="#DejaVuSans-6f" x="369.251953"/>
      <use xlink:href="#DejaVuSans-6e" x="430.433594"/>
      <use xlink:href="#DejaVuSans-20" x="493.8125"/>
      <use xlink:href="#DejaVuSans-41" x="525.599609"/>
      <use xlink:href="#DejaVuSans-63" x="592.257812"/>
      <use xlink:href="#DejaVuSans-63" x="647.238281"/>
      <use xlink:href="#DejaVuSans-75" x="702.21875"/>
      <use xlink:href="#DejaVuSans-72" x="765.597656"/>
      <use xlink:href="#DejaVuSans-61" x="806.710938"/>
      <use xlink:href="#DejaVuSans-63" x="867.990234"/>
      <use xlink:href="#DejaVuSans-79" x="922.970703"/>
     </g>
    </g>
   </g>
  </g>
  <g id="axes_2">
   <g id="patch_8">
    <path d="M 477.515 318.04 
L 853.2 318.04 
L 853.2 26.88 
L 477.515 26.88 
z
" style="fill: #ffffff"/>
   </g>
   <g id="matplotlib.axis_3">
    <g id="xtick_8">
     <g id="line2d_18">
      <g>
       <use xlink:href="#m3763a9902c" x="494.591591" y="318.04" style="stroke: #000000; stroke-width: 0.8"/>
      </g>
     </g>
     <g id="text_19">
      <!-- 0 -->
      <g transform="translate(491.410341 332.638438) scale(0.1 -0.1)">
       <use xlink:href="#DejaVuSans-30"/>
      </g>
     </g>
    </g>
    <g id="xtick_9">
     <g id="line2d_19">
      <g>
       <use xlink:href="#m3763a9902c" x="547.215908" y="318.04" style="stroke: #000000; stroke-width: 0.8"/>
      </g>
     </g>
     <g id="text_20">
      <!-- 100 -->
      <g transform="translate(537.672158 332.638438) scale(0.1 -0.1)">
       <use xlink:href="#DejaVuSans-31"/>
       <use xlink:href="#DejaVuSans-30" x="63.623047"/>
       <use xlink:href="#DejaVuSans-30" x="127.246094"/>
      </g>
     </g>
    </g>
    <g id="xtick_10">
     <g id="line2d_20">
      <g>
       <use xlink:href="#m3763a9902c" x="599.840225" y="318.04" style="stroke: #000000; stroke-width: 0.8"/>
      </g>
     </g>
     <g id="text_21">
      <!-- 200 -->
      <g transform="translate(590.296475 332.638438) scale(0.1 -0.1)">
       <use xlink:href="#DejaVuSans-32"/>
       <use xlink:href="#DejaVuSans-30" x="63.623047"/>
       <use xlink:href="#DejaVuSans-30" x="127.246094"/>
      </g>
     </g>
    </g>
    <g id="xtick_11">
     <g id="line2d_21">
      <g>
       <use xlink:href="#m3763a9902c" x="652.464542" y="318.04" style="stroke: #000000; stroke-width: 0.8"/>
      </g>
     </g>
     <g id="text_22">
      <!-- 300 -->
      <g transform="translate(642.920792 332.638438) scale(0.1 -0.1)">
       <use xlink:href="#DejaVuSans-33"/>
       <use xlink:href="#DejaVuSans-30" x="63.623047"/>
       <use xlink:href="#DejaVuSans-30" x="127.246094"/>
      </g>
     </g>
    </g>
    <g id="xtick_12">
     <g id="line2d_22">
      <g>
       <use xlink:href="#m3763a9902c" x="705.088859" y="318.04" style="stroke: #000000; stroke-width: 0.8"/>
      </g>
     </g>
     <g id="text_23">
      <!-- 400 -->
      <g transform="translate(695.545109 332.638438) scale(0.1 -0.1)">
       <use xlink:href="#DejaVuSans-34"/>
       <use xlink:href="#DejaVuSans-30" x="63.623047"/>
       <use xlink:href="#DejaVuSans-30" x="127.246094"/>
      </g>
     </g>
    </g>
    <g id="xtick_13">
     <g id="line2d_23">
      <g>
       <use xlink:href="#m3763a9902c" x="757.713177" y="318.04" style="stroke: #000000; stroke-width: 0.8"/>
      </g>
     </g>
     <g id="text_24">
      <!-- 500 -->
      <g transform="translate(748.169427 332.638438) scale(0.1 -0.1)">
       <use xlink:href="#DejaVuSans-35"/>
       <use xlink:href="#DejaVuSans-30" x="63.623047"/>
       <use xlink:href="#DejaVuSans-30" x="127.246094"/>
      </g>
     </g>
    </g>
    <g id="xtick_14">
     <g id="line2d_24">
      <g>
       <use xlink:href="#m3763a9902c" x="810.337494" y="318.04" style="stroke: #000000; stroke-width: 0.8"/>
      </g>
     </g>
     <g id="text_25">
      <!-- 600 -->
      <g transform="translate(800.793744 332.638438) scale(0.1 -0.1)">
       <use xlink:href="#DejaVuSans-36"/>
       <use xlink:href="#DejaVuSans-30" x="63.623047"/>
       <use xlink:href="#DejaVuSans-30" x="127.246094"/>
      </g>
     </g>
    </g>
    <g id="text_26">
     <!-- Epochs -->
     <g transform="translate(647.441875 346.316563) scale(0.1 -0.1)">
      <use xlink:href="#DejaVuSans-45"/>
      <use xlink:href="#DejaVuSans-70" x="63.183594"/>
      <use xlink:href="#DejaVuSans-6f" x="126.660156"/>
      <use xlink:href="#DejaVuSans-63" x="187.841797"/>
      <use xlink:href="#DejaVuSans-68" x="242.822266"/>
      <use xlink:href="#DejaVuSans-73" x="306.201172"/>
     </g>
    </g>
   </g>
   <g id="matplotlib.axis_4">
    <g id="ytick_7">
     <g id="line2d_25">
      <g>
       <use xlink:href="#m3341d6494c" x="477.515" y="283.568961" style="stroke: #000000; stroke-width: 0.8"/>
      </g>
     </g>
     <g id="text_27">
      <!-- 2.2 -->
      <g transform="translate(454.611875 287.36818) scale(0.1 -0.1)">
       <use xlink:href="#DejaVuSans-32"/>
       <use xlink:href="#DejaVuSans-2e" x="63.623047"/>
       <use xlink:href="#DejaVuSans-32" x="95.410156"/>
      </g>
     </g>
    </g>
    <g id="ytick_8">
     <g id="line2d_26">
      <g>
       <use xlink:href="#m3341d6494c" x="477.515" y="235.222317" style="stroke: #000000; stroke-width: 0.8"/>
      </g>
     </g>
     <g id="text_28">
      <!-- 2.3 -->
      <g transform="translate(454.611875 239.021536) scale(0.1 -0.1)">
       <use xlink:href="#DejaVuSans-32"/>
       <use xlink:href="#DejaVuSans-2e" x="63.623047"/>
       <use xlink:href="#DejaVuSans-33" x="95.410156"/>
      </g>
     </g>
    </g>
    <g id="ytick_9">
     <g id="line2d_27">
      <g>
       <use xlink:href="#m3341d6494c" x="477.515" y="186.875673" style="stroke: #000000; stroke-width: 0.8"/>
      </g>
     </g>
     <g id="text_29">
      <!-- 2.4 -->
      <g transform="translate(454.611875 190.674892) scale(0.1 -0.1)">
       <use xlink:href="#DejaVuSans-32"/>
       <use xlink:href="#DejaVuSans-2e" x="63.623047"/>
       <use xlink:href="#DejaVuSans-34" x="95.410156"/>
      </g>
     </g>
    </g>
    <g id="ytick_10">
     <g id="line2d_28">
      <g>
       <use xlink:href="#m3341d6494c" x="477.515" y="138.529029" style="stroke: #000000; stroke-width: 0.8"/>
      </g>
     </g>
     <g id="text_30">
      <!-- 2.5 -->
      <g transform="translate(454.611875 142.328248) scale(0.1 -0.1)">
       <use xlink:href="#DejaVuSans-32"/>
       <use xlink:href="#DejaVuSans-2e" x="63.623047"/>
       <use xlink:href="#DejaVuSans-35" x="95.410156"/>
      </g>
     </g>
    </g>
    <g id="ytick_11">
     <g id="line2d_29">
      <g>
       <use xlink:href="#m3341d6494c" x="477.515" y="90.182385" style="stroke: #000000; stroke-width: 0.8"/>
      </g>
     </g>
     <g id="text_31">
      <!-- 2.6 -->
      <g transform="translate(454.611875 93.981604) scale(0.1 -0.1)">
       <use xlink:href="#DejaVuSans-32"/>
       <use xlink:href="#DejaVuSans-2e" x="63.623047"/>
       <use xlink:href="#DejaVuSans-36" x="95.410156"/>
      </g>
     </g>
    </g>
    <g id="ytick_12">
     <g id="line2d_30">
      <g>
       <use xlink:href="#m3341d6494c" x="477.515" y="41.835741" style="stroke: #000000; stroke-width: 0.8"/>
      </g>
     </g>
     <g id="text_32">
      <!-- 2.7 -->
      <g transform="translate(454.611875 45.63496) scale(0.1 -0.1)">
       <defs>
        <path id="DejaVuSans-37" d="M 525 4666 
L 3525 4666 
L 3525 4397 
L 1831 0 
L 1172 0 
L 2766 4134 
L 525 4134 
L 525 4666 
z
" transform="scale(0.015625)"/>
       </defs>
       <use xlink:href="#DejaVuSans-32"/>
       <use xlink:href="#DejaVuSans-2e" x="63.623047"/>
       <use xlink:href="#DejaVuSans-37" x="95.410156"/>
      </g>
     </g>
    </g>
    <g id="text_33">
     <!-- Loss -->
     <g transform="translate(448.532188 183.427188) rotate(-90) scale(0.1 -0.1)">
      <defs>
       <path id="DejaVuSans-4c" d="M 628 4666 
L 1259 4666 
L 1259 531 
L 3531 531 
L 3531 0 
L 628 0 
L 628 4666 
z
" transform="scale(0.015625)"/>
      </defs>
      <use xlink:href="#DejaVuSans-4c"/>
      <use xlink:href="#DejaVuSans-6f" x="53.962891"/>
      <use xlink:href="#DejaVuSans-73" x="115.144531"/>
      <use xlink:href="#DejaVuSans-73" x="167.244141"/>
     </g>
    </g>
   </g>
   <g id="line2d_31">
    <path d="M 494.591591 40.114545 
L 495.117834 98.133345 
L 496.17032 151.390909 
L 497.222807 189.919608 
L 497.74905 203.584095 
L 498.801536 222.586153 
L 499.854023 233.886967 
L 500.906509 240.621925 
L 501.432752 243.184089 
L 501.958995 245.138562 
L 503.537725 249.850693 
L 504.063968 250.479707 
L 504.590211 251.385248 
L 505.116454 251.746841 
L 505.642698 252.942049 
L 506.168941 253.766672 
L 506.695184 253.890238 
L 507.221427 254.906897 
L 507.74767 255.317018 
L 508.273913 255.2293 
L 508.800157 256.141871 
L 509.852643 256.802469 
L 510.378886 256.948167 
L 510.905129 258.027415 
L 511.431372 257.78178 
L 513.010102 258.80743 
L 513.536345 259.03589 
L 514.588831 260.115369 
L 515.115075 259.792159 
L 515.641318 260.002407 
L 516.167561 260.858497 
L 517.220047 261.387229 
L 517.74629 261.254326 
L 518.798777 262.110301 
L 519.851263 262.069727 
L 520.377506 262.796257 
L 520.903749 262.595577 
L 521.956236 263.911584 
L 522.482479 263.234043 
L 523.008722 263.849916 
L 523.534965 263.768653 
L 524.061209 263.831243 
L 524.587452 264.185114 
L 525.113695 264.027543 
L 525.639938 264.386601 
L 526.166181 264.557889 
L 526.692424 264.953717 
L 527.744911 265.115898 
L 528.271154 265.620654 
L 528.797397 265.649471 
L 529.32364 265.411328 
L 529.849883 266.339461 
L 530.376127 265.798512 
L 530.90237 266.349951 
L 531.428613 266.497608 
L 531.954856 267.231861 
L 532.481099 266.645727 
L 533.007342 266.340153 
L 533.533586 267.093771 
L 534.059829 266.717999 
L 534.586072 267.081899 
L 535.112315 267.854997 
L 535.638558 267.609477 
L 536.164801 268.284022 
L 537.217288 268.002309 
L 537.743531 267.943292 
L 538.269774 268.582795 
L 538.796017 268.9943 
L 539.32226 268.767108 
L 539.848504 269.036372 
L 540.374747 268.898051 
L 540.90099 268.994991 
L 541.427233 269.443497 
L 541.953476 269.228869 
L 543.005963 270.02894 
L 543.532206 269.218725 
L 544.058449 270.536116 
L 544.584692 269.553001 
L 545.110935 269.803938 
L 545.637179 270.424422 
L 546.163422 270.20357 
L 546.689665 271.005831 
L 547.215908 270.458311 
L 547.742151 271.148993 
L 548.268394 271.039143 
L 548.794638 270.783019 
L 549.320881 270.984852 
L 549.847124 271.348636 
L 550.89961 271.482692 
L 552.47834 271.179885 
L 553.004583 271.984681 
L 553.530826 271.645911 
L 554.057069 271.949525 
L 554.583312 272.061449 
L 555.109556 272.470303 
L 555.635799 272.429729 
L 556.162042 272.265819 
L 556.688285 272.707408 
L 557.740771 273.055515 
L 558.267015 272.22974 
L 558.793258 272.547763 
L 559.319501 273.286281 
L 559.845744 273.425985 
L 560.371987 272.60701 
L 561.424474 273.305761 
L 561.950717 273.777896 
L 562.47696 273.540791 
L 563.003203 273.027621 
L 563.529446 274.177182 
L 564.05569 273.605802 
L 564.581933 274.483563 
L 565.634419 273.551511 
L 566.160662 275.034541 
L 567.213149 274.583615 
L 567.739392 274.94786 
L 568.265635 274.563904 
L 568.791878 275.345187 
L 569.318121 275.6722 
L 569.844364 274.520218 
L 570.370608 275.716002 
L 570.896851 275.322364 
L 571.423094 275.681537 
L 571.949337 275.744358 
L 573.001823 275.230034 
L 573.528067 275.791387 
L 574.05431 275.946652 
L 574.580553 275.313027 
L 575.106796 275.865965 
L 576.685526 276.250612 
L 577.211769 276.523565 
L 577.738012 276.372911 
L 578.264255 277.032355 
L 578.790498 276.968151 
L 579.316741 276.205773 
L 579.842985 276.821531 
L 580.369228 276.884698 
L 580.895471 277.255859 
L 581.947957 277.557744 
L 582.474201 276.570364 
L 583.000444 276.808852 
L 583.526687 277.238799 
L 584.05293 278.002791 
L 584.579173 278.245083 
L 585.105416 278.18526 
L 585.63166 277.575149 
L 586.157903 277.68961 
L 586.684146 277.614917 
L 587.210389 278.062385 
L 587.736632 277.046764 
L 588.262875 277.928674 
L 589.841605 278.739465 
L 590.367848 278.342023 
L 590.894091 278.837212 
L 591.420334 278.531984 
L 591.946578 277.752546 
L 592.472821 278.708689 
L 592.999064 278.217765 
L 593.525307 278.737275 
L 594.577793 278.897266 
L 595.104037 278.273093 
L 595.63028 279.517289 
L 596.156523 278.877786 
L 596.682766 278.96804 
L 597.209009 279.326061 
L 597.735252 278.85358 
L 598.261496 279.390956 
L 599.313982 279.863092 
L 599.840225 279.251368 
L 600.366468 279.650539 
L 600.892712 279.363292 
L 601.418955 279.97859 
L 601.945198 280.158061 
L 602.471441 279.454469 
L 602.997684 280.476545 
L 603.523927 280.535216 
L 604.050171 280.779122 
L 604.576414 280.821079 
L 605.102657 279.911504 
L 605.6289 280.145497 
L 606.155143 280.524265 
L 606.681386 280.54997 
L 607.20763 280.201632 
L 607.733873 280.67492 
L 608.260116 280.258228 
L 608.786359 281.243534 
L 609.312602 280.532795 
L 609.838845 280.786268 
L 611.417575 281.019685 
L 611.943818 281.83013 
L 612.470061 281.17956 
L 612.996304 281.021298 
L 613.522548 281.537811 
L 614.048791 281.188667 
L 614.575034 281.307392 
L 615.101277 281.264167 
L 615.62752 282.119451 
L 616.153763 281.475798 
L 616.680007 281.609854 
L 617.20625 282.135703 
L 617.732493 282.496029 
L 618.258736 281.64916 
L 618.784979 281.979055 
L 619.311223 281.617576 
L 619.837466 281.501156 
L 620.889952 283.105102 
L 621.416195 281.696074 
L 621.942438 282.518852 
L 622.468682 281.935253 
L 622.994925 282.773708 
L 623.521168 283.027988 
L 624.047411 282.186767 
L 624.573654 282.973697 
L 625.626141 282.691868 
L 626.152384 283.356154 
L 626.678627 283.213453 
L 627.20487 282.596081 
L 628.257356 282.842753 
L 628.7836 282.350101 
L 629.309843 282.794572 
L 629.836086 283.456322 
L 630.362329 283.127579 
L 630.888572 283.607783 
L 631.941059 283.935834 
L 632.993545 283.418629 
L 633.519788 283.559601 
L 634.046031 284.07865 
L 634.572274 283.829903 
L 635.624761 284.412465 
L 636.677247 283.894107 
L 637.20349 283.964305 
L 637.729734 284.243252 
L 638.255977 284.144699 
L 638.78222 284.414078 
L 639.308463 283.423355 
L 639.834706 284.053176 
L 640.360949 284.26158 
L 640.887193 284.081647 
L 641.413436 285.548194 
L 641.939679 284.576836 
L 642.465922 284.278639 
L 642.992165 284.442895 
L 643.518408 284.807947 
L 644.570895 285.182912 
L 645.097138 284.682536 
L 645.623381 283.767659 
L 646.149624 284.561621 
L 646.675867 284.84172 
L 647.202111 284.331316 
L 647.728354 284.459955 
L 648.254597 285.064071 
L 648.78084 284.41915 
L 649.307083 284.546521 
L 649.833326 284.883217 
L 650.35957 285.701269 
L 650.885813 285.492174 
L 651.412056 284.834689 
L 651.938299 285.02707 
L 652.464542 285.590613 
L 653.517029 285.915321 
L 654.043272 285.477074 
L 654.569515 285.88685 
L 655.095758 284.923099 
L 655.622001 285.427048 
L 656.148245 286.3893 
L 656.674488 286.714585 
L 657.200731 285.856073 
L 657.726974 285.944714 
L 658.253217 286.370396 
L 658.77946 285.481109 
L 659.305704 285.542431 
L 659.831947 286.73833 
L 660.35819 286.167872 
L 660.884433 285.923044 
L 661.410676 286.262967 
L 662.463163 285.770545 
L 663.515649 286.432641 
L 664.041892 286.006843 
L 664.568135 286.724498 
L 665.094378 286.963217 
L 665.620622 286.733489 
L 666.146865 286.79873 
L 666.673108 287.32262 
L 667.199351 287.301872 
L 667.725594 287.51454 
L 668.251837 286.116232 
L 668.778081 286.797923 
L 669.304324 286.627443 
L 669.830567 285.723516 
L 670.35681 286.23634 
L 670.883053 286.01837 
L 671.409296 286.34596 
L 671.93554 287.279049 
L 672.461783 287.243893 
L 672.988026 287.825647 
L 673.514269 287.139345 
L 674.040512 287.202281 
L 674.566755 286.768876 
L 675.092999 287.786456 
L 675.619242 287.078945 
L 676.145485 288.169259 
L 677.197971 287.024308 
L 677.724215 287.477885 
L 678.250458 286.9344 
L 678.776701 287.182686 
L 679.302944 286.791007 
L 679.829187 286.972207 
L 680.35543 287.809625 
L 680.881674 287.267292 
L 681.407917 288.054914 
L 681.93416 287.599377 
L 682.460403 288.668136 
L 682.986646 287.286887 
L 683.512889 286.955263 
L 684.039133 288.141019 
L 684.565376 287.409417 
L 685.091619 288.230812 
L 686.144105 287.552118 
L 686.670348 288.837925 
L 687.196592 288.1975 
L 687.722835 288.162919 
L 688.249078 287.558457 
L 688.775321 287.899188 
L 689.301564 288.977283 
L 689.827807 288.60716 
L 690.354051 289.257268 
L 690.880294 287.93907 
L 691.406537 287.44976 
L 691.93278 289.223725 
L 692.459023 287.643409 
L 692.985266 288.487167 
L 693.51151 288.761618 
L 694.037753 289.208625 
L 694.563996 288.200727 
L 695.090239 288.331556 
L 695.616482 288.90674 
L 696.142726 288.301356 
L 696.668969 288.308041 
L 697.195212 288.997916 
L 697.721455 289.010942 
L 698.247698 288.049957 
L 698.773941 288.680239 
L 699.300185 288.676781 
L 699.826428 289.521461 
L 700.352671 290.624915 
L 700.878914 289.212314 
L 701.405157 288.721966 
L 701.9314 289.312827 
L 702.457644 290.190818 
L 702.983887 289.751535 
L 703.51013 289.660934 
L 704.036373 289.846976 
L 704.562616 289.351326 
L 705.088859 290.239231 
L 705.615103 289.408268 
L 706.141346 289.005639 
L 706.667589 289.873026 
L 707.193832 290.128574 
L 707.720075 289.772283 
L 708.246318 289.694708 
L 708.772562 290.135144 
L 709.298805 290.192202 
L 709.825048 288.827897 
L 710.351291 289.808131 
L 710.877534 289.397318 
L 711.930021 289.642261 
L 712.456264 289.222572 
L 712.982507 289.353632 
L 713.50875 290.427578 
L 714.034993 290.047887 
L 714.561237 289.093012 
L 715.08748 289.44135 
L 715.613723 289.556502 
L 716.139966 290.370175 
L 716.666209 290.097106 
L 717.192452 289.690789 
L 718.244939 290.112091 
L 718.771182 290.767155 
L 719.297425 289.848474 
L 719.823668 289.288851 
L 720.349911 290.134568 
L 720.876155 289.875793 
L 721.402398 290.522327 
L 722.981127 290.371558 
L 723.50737 290.122811 
L 724.033614 290.956309 
L 724.559857 290.486595 
L 725.0861 291.263036 
L 725.612343 290.629065 
L 726.138586 291.025931 
L 726.664829 290.082237 
L 727.717316 290.864902 
L 728.243559 291.214854 
L 728.769802 291.334847 
L 729.296045 290.753439 
L 730.348532 290.378935 
L 730.874775 291.840064 
L 731.401018 290.767386 
L 731.927261 291.267646 
L 732.453504 291.231913 
L 732.979748 291.342685 
L 733.505991 290.782832 
L 734.558477 290.958615 
L 735.08472 290.580653 
L 735.610963 291.226381 
L 736.137207 291.608031 
L 736.66345 290.89833 
L 737.189693 290.681396 
L 737.715936 290.769 
L 738.242179 290.680935 
L 738.768422 292.13123 
L 739.294666 291.948646 
L 740.347152 290.787904 
L 741.399638 291.457376 
L 741.925881 292.01723 
L 742.452125 291.463947 
L 742.978368 294.039712 
L 743.504611 295.211981 
L 744.030854 295.775984 
L 744.557097 295.519745 
L 745.08334 296.274285 
L 745.609584 295.701176 
L 746.135827 296.641066 
L 746.66207 295.248405 
L 747.188313 295.431104 
L 747.714556 296.231982 
L 748.240799 295.971823 
L 748.767043 296.886009 
L 749.293286 296.881053 
L 749.819529 297.303738 
L 750.345772 296.417101 
L 750.872015 296.522802 
L 751.398259 297.373014 
L 751.924502 296.597725 
L 752.450745 296.318894 
L 752.976988 296.996896 
L 753.503231 297.082425 
L 754.029474 297.816332 
L 755.081961 296.85823 
L 755.608204 296.586314 
L 756.134447 296.447186 
L 756.66069 296.631614 
L 757.186933 297.035857 
L 757.713177 297.897596 
L 758.23942 297.037355 
L 758.765663 296.423902 
L 759.291906 297.500154 
L 759.818149 296.527873 
L 760.344392 296.872292 
L 760.870636 296.835522 
L 761.396879 296.457906 
L 761.923122 297.313305 
L 762.449365 296.820076 
L 762.975608 298.08041 
L 763.501851 297.092684 
L 764.028095 296.496636 
L 764.554338 296.786994 
L 765.080581 296.366614 
L 765.606824 296.554385 
L 766.133067 296.928312 
L 766.65931 296.394624 
L 768.23804 297.213714 
L 768.764283 297.812989 
L 769.290526 297.111011 
L 770.343013 296.780885 
L 770.869256 297.467764 
L 771.395499 297.866704 
L 771.921742 297.166109 
L 772.447985 298.540096 
L 772.974229 297.56309 
L 773.500472 297.607813 
L 774.026715 297.36264 
L 774.552958 298.635192 
L 775.605444 297.685965 
L 776.131688 298.154872 
L 776.657931 297.402753 
L 777.184174 297.775182 
L 777.710417 297.52436 
L 778.762903 297.696569 
L 779.289147 297.557787 
L 779.81539 297.282068 
L 780.341633 298.909989 
L 780.867876 298.020932 
L 781.394119 298.828034 
L 781.920362 297.950964 
L 782.446606 298.29158 
L 782.972849 297.343505 
L 783.499092 297.711439 
L 784.025335 297.074817 
L 784.551578 297.068708 
L 785.077821 297.297168 
L 785.604065 297.799618 
L 786.130308 297.181324 
L 786.656551 297.342468 
L 787.182794 297.069054 
L 787.709037 297.771378 
L 788.235281 297.128532 
L 788.761524 297.423616 
L 789.287767 297.979205 
L 789.81401 297.756047 
L 790.340253 297.237114 
L 790.866496 297.754203 
L 791.39274 297.957996 
L 791.918983 297.690921 
L 792.445226 298.605107 
L 792.971469 298.396012 
L 793.497712 297.728844 
L 794.023955 297.998455 
L 794.550199 297.346733 
L 795.076442 297.707635 
L 795.602685 296.666655 
L 796.128928 297.430763 
L 796.655171 297.186972 
L 797.181414 297.189278 
L 797.707658 298.033842 
L 798.233901 297.732302 
L 798.760144 297.881228 
L 799.286387 297.481019 
L 799.81263 297.91039 
L 800.338873 297.942435 
L 801.39136 298.459294 
L 801.917603 298.16905 
L 802.443846 298.690174 
L 802.970089 297.20968 
L 804.548819 298.075223 
L 805.075062 298.917942 
L 805.601305 298.13424 
L 806.127548 298.295383 
L 806.653791 297.097871 
L 807.180035 297.207836 
L 807.706278 297.635247 
L 808.232521 297.77887 
L 808.758764 298.218385 
L 809.285007 296.339988 
L 809.811251 297.595134 
L 810.337494 296.991133 
L 810.863737 297.283797 
L 811.38998 298.218385 
L 811.916223 297.573579 
L 812.96871 297.968946 
L 813.494953 298.50298 
L 814.021196 298.027733 
L 814.547439 298.245242 
L 815.073682 298.124788 
L 815.599925 297.697261 
L 816.126169 297.859903 
L 816.652412 298.232793 
L 817.178655 297.465112 
L 817.704898 297.665332 
L 818.231141 298.245934 
L 818.757384 297.592713 
L 819.283628 298.700433 
L 819.809871 297.209565 
L 820.336114 298.74435 
L 821.3886 297.089341 
L 821.914843 296.923125 
L 822.441087 298.278439 
L 822.96733 297.611848 
L 823.493573 298.32616 
L 824.019816 298.492606 
L 824.546059 298.193372 
L 825.072302 298.952062 
L 825.598546 297.112625 
L 826.124789 298.100351 
L 826.651032 297.978974 
L 827.177275 297.195617 
L 827.703518 298.269102 
L 828.229762 297.308925 
L 828.756005 297.872122 
L 829.282248 297.679856 
L 829.808491 297.835582 
L 830.334734 297.369902 
L 830.860977 297.80446 
L 831.387221 297.185358 
L 831.913464 298.804519 
L 832.439707 298.668043 
L 832.96595 297.746595 
L 833.492193 297.926758 
L 834.018436 297.854025 
L 834.54468 298.819619 
L 835.070923 298.350366 
L 835.597166 298.081447 
L 836.123409 298.134931 
L 836.123409 298.134931 
" clip-path="url(#p9128c23999)" style="fill: none; stroke: #1f77b4; stroke-width: 1.5; stroke-linecap: square"/>
   </g>
   <g id="line2d_32">
    <path d="M 494.591591 96.690082 
L 496.17032 166.453705 
L 497.222807 201.25189 
L 497.74905 213.451905 
L 498.801536 230.159912 
L 499.854023 239.84145 
L 500.380266 243.174867 
L 501.432752 247.980019 
L 502.485238 251.104226 
L 503.011482 252.687654 
L 504.063968 254.819178 
L 505.116454 256.618617 
L 505.642698 257.072655 
L 506.695184 258.86783 
L 507.74767 259.857054 
L 508.273913 259.755273 
L 509.3264 261.346194 
L 509.852643 261.900399 
L 510.378886 261.917459 
L 510.905129 262.582436 
L 511.431372 262.650559 
L 511.957616 263.102062 
L 512.483859 263.131916 
L 513.010102 263.753207 
L 513.536345 263.73488 
L 514.062588 264.507517 
L 514.588831 264.612871 
L 515.115075 265.014117 
L 515.641318 264.971122 
L 516.167561 265.166846 
L 516.693804 266.03504 
L 517.220047 265.585497 
L 517.74629 266.340845 
L 518.272534 266.673045 
L 518.798777 266.497378 
L 519.32502 267.184487 
L 519.851263 267.086279 
L 520.377506 267.480954 
L 521.429993 268.618759 
L 521.956236 268.422458 
L 522.482479 268.453119 
L 523.008722 268.963408 
L 523.534965 268.926177 
L 524.061209 269.300104 
L 525.113695 269.677605 
L 525.639938 269.60879 
L 526.166181 270.032974 
L 526.692424 270.185473 
L 527.744911 270.216826 
L 528.271154 270.689191 
L 528.797397 270.964335 
L 529.32364 271.057816 
L 529.849883 270.997532 
L 530.376127 271.700317 
L 530.90237 271.93039 
L 531.428613 271.792761 
L 531.954856 272.273887 
L 532.481099 272.289564 
L 533.007342 272.094531 
L 533.533586 272.520444 
L 534.059829 272.601477 
L 534.586072 272.980476 
L 535.112315 272.399413 
L 535.638558 273.052288 
L 536.164801 273.918868 
L 536.691045 273.608222 
L 537.217288 273.807059 
L 538.269774 273.91979 
L 538.796017 274.205307 
L 539.32226 274.005434 
L 539.848504 274.62027 
L 540.374747 274.386162 
L 540.90099 274.644015 
L 541.427233 275.079726 
L 541.953476 275.330087 
L 542.479719 275.233608 
L 543.005963 275.578834 
L 543.532206 275.555089 
L 544.058449 275.813518 
L 545.110935 275.897778 
L 545.637179 276.424666 
L 546.689665 276.421899 
L 547.215908 276.327149 
L 547.742151 277.34692 
L 548.268394 277.172866 
L 548.794638 277.442592 
L 549.320881 276.866486 
L 549.847124 277.889945 
L 550.373367 277.990227 
L 550.89961 277.369282 
L 551.425853 277.541837 
L 551.952097 276.924465 
L 552.47834 277.458499 
L 553.004583 278.247389 
L 554.057069 278.490142 
L 554.583312 278.286349 
L 555.109556 278.661775 
L 555.635799 278.646905 
L 556.162042 278.351936 
L 556.688285 279.236729 
L 557.740771 279.708979 
L 558.267015 279.171257 
L 558.793258 279.463344 
L 559.319501 279.327559 
L 559.845744 279.704714 
L 560.371987 279.518557 
L 560.89823 280.105614 
L 561.424474 280.357358 
L 561.950717 280.354476 
L 562.47696 280.751227 
L 563.003203 280.203361 
L 563.529446 280.364389 
L 564.581933 281.185093 
L 565.108176 280.893236 
L 565.634419 281.171031 
L 566.160662 280.456834 
L 566.686905 281.287681 
L 567.213149 281.408712 
L 567.739392 281.781487 
L 568.265635 281.442485 
L 568.791878 281.544497 
L 569.318121 281.822637 
L 569.844364 281.376091 
L 570.370608 282.34987 
L 570.896851 282.873876 
L 571.423094 283.046316 
L 571.949337 283.056805 
L 573.001823 282.503637 
L 573.528067 282.930933 
L 574.05431 282.472054 
L 574.580553 283.218871 
L 575.633039 282.63654 
L 576.159282 283.913472 
L 576.685526 283.638444 
L 577.738012 283.843044 
L 578.790498 284.090753 
L 579.316741 283.776073 
L 579.842985 283.774344 
L 580.369228 284.006839 
L 580.895471 284.569574 
L 581.421714 284.485775 
L 581.947957 284.641155 
L 582.474201 284.27668 
L 583.000444 285.171731 
L 583.526687 284.490385 
L 584.05293 285.117325 
L 584.579173 285.243773 
L 585.105416 285.080324 
L 585.63166 285.919931 
L 586.157903 285.180145 
L 586.684146 285.777346 
L 587.210389 285.491252 
L 587.736632 284.904656 
L 588.262875 285.236857 
L 588.789119 285.898838 
L 589.315362 285.429469 
L 589.841605 285.601678 
L 590.894091 286.370512 
L 591.946578 285.944483 
L 592.472821 286.098365 
L 592.999064 285.696774 
L 593.525307 286.456732 
L 594.577793 286.882414 
L 595.104037 286.667786 
L 596.156523 287.352474 
L 596.682766 286.884719 
L 597.209009 287.193636 
L 597.735252 287.006096 
L 598.261496 287.5316 
L 598.787739 287.279626 
L 599.313982 287.55085 
L 599.840225 287.605947 
L 600.366468 288.153583 
L 600.892712 287.609751 
L 601.945198 287.695049 
L 602.471441 288.027365 
L 602.997684 288.161882 
L 603.523927 288.54895 
L 604.050171 288.274383 
L 604.576414 288.305505 
L 605.102657 287.718448 
L 606.155143 288.554483 
L 607.733873 288.773145 
L 608.260116 288.516214 
L 608.786359 288.961838 
L 609.312602 288.630213 
L 609.838845 288.640011 
L 610.365089 288.86582 
L 610.891332 289.57483 
L 611.417575 288.852218 
L 611.943818 289.604223 
L 612.996304 289.228221 
L 613.522548 288.831816 
L 614.048791 289.504401 
L 614.575034 289.561113 
L 615.101277 289.418642 
L 615.62752 289.40481 
L 616.153763 289.018549 
L 616.680007 290.382854 
L 617.20625 289.450341 
L 618.258736 290.15716 
L 618.784979 290.292023 
L 619.311223 289.644682 
L 619.837466 289.468668 
L 620.363709 290.304818 
L 620.889952 289.924436 
L 621.416195 290.07947 
L 621.942438 290.931181 
L 622.468682 290.693154 
L 622.994925 290.709176 
L 623.521168 290.419509 
L 624.047411 290.863749 
L 625.099897 290.599902 
L 625.626141 291.625667 
L 626.152384 292.231397 
L 627.20487 290.871242 
L 628.257356 291.597081 
L 628.7836 291.210704 
L 629.309843 291.434208 
L 629.836086 291.227303 
L 630.362329 291.326663 
L 630.888572 291.95245 
L 631.414815 291.872224 
L 632.467302 291.92467 
L 632.993545 291.357324 
L 633.519788 292.089849 
L 634.046031 292.073481 
L 634.572274 291.931702 
L 635.098518 292.356693 
L 635.624761 292.130653 
L 636.151004 292.379977 
L 636.677247 292.374098 
L 637.20349 292.742723 
L 638.255977 292.915163 
L 638.78222 292.816955 
L 639.308463 291.986338 
L 639.834706 293.541757 
L 640.360949 293.502796 
L 640.887193 292.940637 
L 641.413436 293.341768 
L 642.465922 292.821796 
L 642.992165 293.618409 
L 643.518408 293.06893 
L 644.044652 294.158322 
L 644.570895 293.838224 
L 645.097138 293.999944 
L 645.623381 293.485506 
L 646.149624 293.86877 
L 646.675867 293.309378 
L 647.202111 293.59063 
L 647.728354 294.198435 
L 648.254597 294.347476 
L 648.78084 293.387875 
L 649.307083 293.576452 
L 649.833326 293.318829 
L 650.35957 294.287652 
L 650.885813 294.8301 
L 651.412056 294.541586 
L 651.938299 294.471619 
L 652.464542 294.671838 
L 652.990785 294.589998 
L 653.517029 294.812464 
L 654.569515 294.354853 
L 655.095758 294.748952 
L 655.622001 294.020923 
L 656.148245 294.53271 
L 656.674488 294.611668 
L 657.200731 295.379003 
L 657.726974 295.167488 
L 658.253217 295.264543 
L 658.77946 294.285462 
L 659.305704 295.008649 
L 660.35819 295.268462 
L 661.410676 295.067551 
L 661.936919 295.685154 
L 662.989406 295.048301 
L 663.515649 295.689649 
L 664.041892 296.01793 
L 664.568135 295.675125 
L 665.620622 295.808259 
L 666.146865 296.144263 
L 666.673108 295.846067 
L 667.199351 296.079368 
L 667.725594 296.71403 
L 668.251837 295.360906 
L 668.778081 295.955917 
L 669.304324 296.226334 
L 669.830567 296.02404 
L 670.883053 296.762097 
L 671.409296 295.687228 
L 671.93554 295.34938 
L 672.461783 295.752815 
L 672.988026 296.686597 
L 673.514269 295.905084 
L 674.040512 296.609944 
L 675.092999 296.193944 
L 675.619242 295.951421 
L 676.671728 296.973728 
L 677.197971 296.040523 
L 677.724215 296.500785 
L 678.250458 296.454448 
L 678.776701 297.130606 
L 679.302944 296.685213 
L 680.35543 297.023754 
L 680.881674 297.001968 
L 681.407917 297.552024 
L 681.93416 296.953556 
L 682.460403 297.859903 
L 682.986646 296.65363 
L 683.512889 298.11061 
L 684.039133 297.75743 
L 684.565376 297.255902 
L 685.091619 297.352842 
L 685.617862 297.205991 
L 686.144105 298.003642 
L 686.670348 298.349674 
L 687.196592 297.964105 
L 687.722835 298.02681 
L 688.249078 297.960647 
L 689.301564 298.425751 
L 689.827807 297.996726 
L 690.354051 297.749592 
L 690.880294 298.226684 
L 691.406537 297.694956 
L 691.93278 297.96399 
L 692.459023 297.287255 
L 692.985266 297.875695 
L 693.51151 298.214005 
L 694.037753 297.595249 
L 694.563996 298.244089 
L 695.090239 298.46644 
L 695.616482 298.153489 
L 696.142726 298.100697 
L 696.668969 297.708442 
L 697.195212 298.296421 
L 697.721455 298.470244 
L 698.247698 297.728959 
L 698.773941 298.048596 
L 699.300185 298.868839 
L 699.826428 298.473241 
L 700.352671 298.917712 
L 700.878914 298.648332 
L 701.405157 297.982087 
L 701.9314 298.459524 
L 702.457644 298.601764 
L 702.983887 298.256999 
L 704.036373 299.273888 
L 705.088859 299.118277 
L 705.615103 298.778469 
L 706.667589 299.515373 
L 707.193832 299.370021 
L 707.720075 299.781295 
L 708.246318 298.893506 
L 708.772562 298.370192 
L 709.298805 298.857197 
L 709.825048 299.94486 
L 710.351291 300.153378 
L 710.877534 298.84809 
L 711.403777 299.58949 
L 712.456264 299.629949 
L 712.982507 300.163868 
L 713.50875 300.175049 
L 714.034993 299.700493 
L 714.561237 299.463849 
L 715.08748 300.399705 
L 715.613723 300.339189 
L 716.139966 299.607241 
L 716.666209 299.77922 
L 717.192452 300.265072 
L 717.718696 300.440394 
L 718.244939 300.008718 
L 719.297425 300.920137 
L 719.823668 300.055286 
L 720.349911 300.018054 
L 721.402398 300.724067 
L 722.454884 299.910395 
L 722.981127 300.625513 
L 723.50737 300.665972 
L 724.033614 300.422873 
L 724.559857 301.051888 
L 725.612343 300.252162 
L 726.138586 299.455895 
L 726.664829 299.55053 
L 727.191073 300.480853 
L 727.717316 300.92348 
L 728.243559 300.197641 
L 728.769802 300.485809 
L 729.296045 299.91074 
L 729.822288 300.781931 
L 730.348532 300.902155 
L 730.874775 301.285535 
L 731.401018 300.831957 
L 731.927261 301.743031 
L 732.979748 301.103643 
L 734.032234 301.183869 
L 734.558477 300.625513 
L 735.08472 301.191822 
L 736.137207 301.460626 
L 736.66345 300.679113 
L 737.189693 301.301902 
L 737.715936 300.370888 
L 738.242179 300.715998 
L 738.768422 301.228823 
L 739.294666 301.513879 
L 740.347152 301.012812 
L 740.873395 301.564482 
L 741.399638 301.286226 
L 741.925881 301.157588 
L 742.452125 301.507424 
L 742.978368 302.438554 
L 743.504611 302.907577 
L 744.557097 303.312511 
L 746.66207 303.690704 
L 747.714556 303.743611 
L 749.819529 304.162263 
L 750.872015 304.070625 
L 751.924502 304.285253 
L 753.503231 304.348304 
L 754.029474 304.288019 
L 755.081961 304.349226 
L 756.134447 304.203298 
L 758.23942 304.462649 
L 758.765663 304.338276 
L 759.818149 304.538611 
L 761.396879 304.239953 
L 762.449365 304.390031 
L 763.501851 304.480516 
L 764.554338 304.392221 
L 765.080581 304.570079 
L 766.65931 304.484204 
L 767.185554 304.49746 
L 767.711797 304.387726 
L 769.290526 304.507604 
L 770.343013 304.399944 
L 776.131688 304.59855 
L 796.655171 304.768108 
L 835.597166 304.801535 
L 836.123409 304.801535 
L 836.123409 304.801535 
" clip-path="url(#p9128c23999)" style="fill: none; stroke: #ff7f0e; stroke-width: 1.5; stroke-linecap: square"/>
   </g>
   <g id="patch_9">
    <path d="M 477.515 318.04 
L 477.515 26.88 
" style="fill: none; stroke: #000000; stroke-width: 0.8; stroke-linejoin: miter; stroke-linecap: square"/>
   </g>
   <g id="patch_10">
    <path d="M 853.2 318.04 
L 853.2 26.88 
" style="fill: none; stroke: #000000; stroke-width: 0.8; stroke-linejoin: miter; stroke-linecap: square"/>
   </g>
   <g id="patch_11">
    <path d="M 477.515 318.04 
L 853.2 318.04 
" style="fill: none; stroke: #000000; stroke-width: 0.8; stroke-linejoin: miter; stroke-linecap: square"/>
   </g>
   <g id="patch_12">
    <path d="M 477.515 26.88 
L 853.2 26.88 
" style="fill: none; stroke: #000000; stroke-width: 0.8; stroke-linejoin: miter; stroke-linecap: square"/>
   </g>
   <g id="text_34">
    <!-- Loss - All Subject Window Size:2.0 -->
    <g transform="translate(563.095 20.88) scale(0.12 -0.12)">
     <defs>
      <path id="DejaVuSans-57" d="M 213 4666 
L 850 4666 
L 1831 722 
L 2809 4666 
L 3519 4666 
L 4500 722 
L 5478 4666 
L 6119 4666 
L 4947 0 
L 4153 0 
L 3169 4050 
L 2175 0 
L 1381 0 
L 213 4666 
z
" transform="scale(0.015625)"/>
      <path id="DejaVuSans-77" d="M 269 3500 
L 844 3500 
L 1563 769 
L 2278 3500 
L 2956 3500 
L 3675 769 
L 4391 3500 
L 4966 3500 
L 4050 0 
L 3372 0 
L 2619 2869 
L 1863 0 
L 1184 0 
L 269 3500 
z
" transform="scale(0.015625)"/>
      <path id="DejaVuSans-7a" d="M 353 3500 
L 3084 3500 
L 3084 2975 
L 922 459 
L 3084 459 
L 3084 0 
L 275 0 
L 275 525 
L 2438 3041 
L 353 3041 
L 353 3500 
z
" transform="scale(0.015625)"/>
      <path id="DejaVuSans-3a" d="M 750 794 
L 1409 794 
L 1409 0 
L 750 0 
L 750 794 
z
M 750 3309 
L 1409 3309 
L 1409 2516 
L 750 2516 
L 750 3309 
z
" transform="scale(0.015625)"/>
     </defs>
     <use xlink:href="#DejaVuSans-4c"/>
     <use xlink:href="#DejaVuSans-6f" x="53.962891"/>
     <use xlink:href="#DejaVuSans-73" x="115.144531"/>
     <use xlink:href="#DejaVuSans-73" x="167.244141"/>
     <use xlink:href="#DejaVuSans-20" x="219.34375"/>
     <use xlink:href="#DejaVuSans-2d" x="251.130859"/>
     <use xlink:href="#DejaVuSans-20" x="287.214844"/>
     <use xlink:href="#DejaVuSans-41" x="319.001953"/>
     <use xlink:href="#DejaVuSans-6c" x="387.410156"/>
     <use xlink:href="#DejaVuSans-6c" x="415.193359"/>
     <use xlink:href="#DejaVuSans-20" x="442.976562"/>
     <use xlink:href="#DejaVuSans-53" x="474.763672"/>
     <use xlink:href="#DejaVuSans-75" x="538.240234"/>
     <use xlink:href="#DejaVuSans-62" x="601.619141"/>
     <use xlink:href="#DejaVuSans-6a" x="665.095703"/>
     <use xlink:href="#DejaVuSans-65" x="692.878906"/>
     <use xlink:href="#DejaVuSans-63" x="754.402344"/>
     <use xlink:href="#DejaVuSans-74" x="809.382812"/>
     <use xlink:href="#DejaVuSans-20" x="848.591797"/>
     <use xlink:href="#DejaVuSans-57" x="880.378906"/>
     <use xlink:href="#DejaVuSans-69" x="977.005859"/>
     <use xlink:href="#DejaVuSans-6e" x="1004.789062"/>
     <use xlink:href="#DejaVuSans-64" x="1068.167969"/>
     <use xlink:href="#DejaVuSans-6f" x="1131.644531"/>
     <use xlink:href="#DejaVuSans-77" x="1192.826172"/>
     <use xlink:href="#DejaVuSans-20" x="1274.613281"/>
     <use xlink:href="#DejaVuSans-53" x="1306.400391"/>
     <use xlink:href="#DejaVuSans-69" x="1369.876953"/>
     <use xlink:href="#DejaVuSans-7a" x="1397.660156"/>
     <use xlink:href="#DejaVuSans-65" x="1450.150391"/>
     <use xlink:href="#DejaVuSans-3a" x="1511.673828"/>
     <use xlink:href="#DejaVuSans-32" x="1545.365234"/>
     <use xlink:href="#DejaVuSans-2e" x="1608.988281"/>
     <use xlink:href="#DejaVuSans-30" x="1640.775391"/>
    </g>
   </g>
   <g id="legend_2">
    <g id="patch_13">
     <path d="M 739.70625 64.23625 
L 846.2 64.23625 
Q 848.2 64.23625 848.2 62.23625 
L 848.2 33.88 
Q 848.2 31.88 846.2 31.88 
L 739.70625 31.88 
Q 737.70625 31.88 737.70625 33.88 
L 737.70625 62.23625 
Q 737.70625 64.23625 739.70625 64.23625 
z
" style="fill: #ffffff; opacity: 0.8; stroke: #cccccc; stroke-linejoin: miter"/>
    </g>
    <g id="line2d_33">
     <path d="M 741.70625 39.978437 
L 751.70625 39.978437 
L 761.70625 39.978437 
" style="fill: none; stroke: #1f77b4; stroke-width: 1.5; stroke-linecap: square"/>
    </g>
    <g id="text_35">
     <!-- Training Loss -->
     <g transform="translate(769.70625 43.478437) scale(0.1 -0.1)">
      <use xlink:href="#DejaVuSans-54"/>
      <use xlink:href="#DejaVuSans-72" x="46.333984"/>
      <use xlink:href="#DejaVuSans-61" x="87.447266"/>
      <use xlink:href="#DejaVuSans-69" x="148.726562"/>
      <use xlink:href="#DejaVuSans-6e" x="176.509766"/>
      <use xlink:href="#DejaVuSans-69" x="239.888672"/>
      <use xlink:href="#DejaVuSans-6e" x="267.671875"/>
      <use xlink:href="#DejaVuSans-67" x="331.050781"/>
      <use xlink:href="#DejaVuSans-20" x="394.527344"/>
      <use xlink:href="#DejaVuSans-4c" x="426.314453"/>
      <use xlink:href="#DejaVuSans-6f" x="480.277344"/>
      <use xlink:href="#DejaVuSans-73" x="541.458984"/>
      <use xlink:href="#DejaVuSans-73" x="593.558594"/>
     </g>
    </g>
    <g id="line2d_34">
     <path d="M 741.70625 54.656563 
L 751.70625 54.656563 
L 761.70625 54.656563 
" style="fill: none; stroke: #ff7f0e; stroke-width: 1.5; stroke-linecap: square"/>
    </g>
    <g id="text_36">
     <!-- Validation Loss -->
     <g transform="translate(769.70625 58.156563) scale(0.1 -0.1)">
      <use xlink:href="#DejaVuSans-56"/>
      <use xlink:href="#DejaVuSans-61" x="60.658203"/>
      <use xlink:href="#DejaVuSans-6c" x="121.9375"/>
      <use xlink:href="#DejaVuSans-69" x="149.720703"/>
      <use xlink:href="#DejaVuSans-64" x="177.503906"/>
      <use xlink:href="#DejaVuSans-61" x="240.980469"/>
      <use xlink:href="#DejaVuSans-74" x="302.259766"/>
      <use xlink:href="#DejaVuSans-69" x="341.46875"/>
      <use xlink:href="#DejaVuSans-6f" x="369.251953"/>
      <use xlink:href="#DejaVuSans-6e" x="430.433594"/>
      <use xlink:href="#DejaVuSans-20" x="493.8125"/>
      <use xlink:href="#DejaVuSans-4c" x="525.599609"/>
      <use xlink:href="#DejaVuSans-6f" x="579.5625"/>
      <use xlink:href="#DejaVuSans-73" x="640.744141"/>
      <use xlink:href="#DejaVuSans-73" x="692.84375"/>
     </g>
    </g>
   </g>
  </g>
 </g>
 <defs>
  <clipPath id="p56dbe3fde5">
   <rect x="54.11" y="26.88" width="375.685" height="291.16"/>
  </clipPath>
  <clipPath id="p9128c23999">
   <rect x="477.515" y="26.88" width="375.685" height="291.16"/>
  </clipPath>
 </defs>
</svg>
