<?xml version="1.0" encoding="utf-8" standalone="no"?>
<!DOCTYPE svg PUBLIC "-//W3C//DTD SVG 1.1//EN"
  "http://www.w3.org/Graphics/SVG/1.1/DTD/svg11.dtd">
<svg xmlns:xlink="http://www.w3.org/1999/xlink" width="864pt" height="360pt" viewBox="0 0 864 360" xmlns="http://www.w3.org/2000/svg" version="1.1">
 <metadata>
  <rdf:RDF xmlns:dc="http://purl.org/dc/elements/1.1/" xmlns:cc="http://creativecommons.org/ns#" xmlns:rdf="http://www.w3.org/1999/02/22-rdf-syntax-ns#">
   <cc:Work>
    <dc:type rdf:resource="http://purl.org/dc/dcmitype/StillImage"/>
    <dc:date>2024-10-21T16:26:06.660742</dc:date>
    <dc:format>image/svg+xml</dc:format>
    <dc:creator>
     <cc:Agent>
      <dc:title>Matplotlib v3.8.3, https://matplotlib.org/</dc:title>
     </cc:Agent>
    </dc:creator>
   </cc:Work>
  </rdf:RDF>
 </metadata>
 <defs>
  <style type="text/css">*{stroke-linejoin: round; stroke-linecap: butt}</style>
 </defs>
 <g id="figure_1">
  <g id="patch_1">
   <path d="M 0 360 
L 864 360 
L 864 0 
L 0 0 
z
" style="fill: #ffffff"/>
  </g>
  <g id="axes_1">
   <g id="patch_2">
    <path d="M 47.72 318.04 
L 426.555 318.04 
L 426.555 26.88 
L 47.72 26.88 
z
" style="fill: #ffffff"/>
   </g>
   <g id="matplotlib.axis_1">
    <g id="xtick_1">
     <g id="line2d_1">
      <defs>
       <path id="m165c059972" d="M 0 0 
L 0 3.5 
" style="stroke: #000000; stroke-width: 0.8"/>
      </defs>
      <g>
       <use xlink:href="#m165c059972" x="64.939773" y="318.04" style="stroke: #000000; stroke-width: 0.8"/>
      </g>
     </g>
     <g id="text_1">
      <!-- 0 -->
      <g transform="translate(61.758523 332.638438) scale(0.1 -0.1)">
       <defs>
        <path id="DejaVuSans-30" d="M 2034 4250 
Q 1547 4250 1301 3770 
Q 1056 3291 1056 2328 
Q 1056 1369 1301 889 
Q 1547 409 2034 409 
Q 2525 409 2770 889 
Q 3016 1369 3016 2328 
Q 3016 3291 2770 3770 
Q 2525 4250 2034 4250 
z
M 2034 4750 
Q 2819 4750 3233 4129 
Q 3647 3509 3647 2328 
Q 3647 1150 3233 529 
Q 2819 -91 2034 -91 
Q 1250 -91 836 529 
Q 422 1150 422 2328 
Q 422 3509 836 4129 
Q 1250 4750 2034 4750 
z
" transform="scale(0.015625)"/>
       </defs>
       <use xlink:href="#DejaVuSans-30"/>
      </g>
     </g>
    </g>
    <g id="xtick_2">
     <g id="line2d_2">
      <g>
       <use xlink:href="#m165c059972" x="140.631081" y="318.04" style="stroke: #000000; stroke-width: 0.8"/>
      </g>
     </g>
     <g id="text_2">
      <!-- 100 -->
      <g transform="translate(131.087331 332.638438) scale(0.1 -0.1)">
       <defs>
        <path id="DejaVuSans-31" d="M 794 531 
L 1825 531 
L 1825 4091 
L 703 3866 
L 703 4441 
L 1819 4666 
L 2450 4666 
L 2450 531 
L 3481 531 
L 3481 0 
L 794 0 
L 794 531 
z
" transform="scale(0.015625)"/>
       </defs>
       <use xlink:href="#DejaVuSans-31"/>
       <use xlink:href="#DejaVuSans-30" x="63.623047"/>
       <use xlink:href="#DejaVuSans-30" x="127.246094"/>
      </g>
     </g>
    </g>
    <g id="xtick_3">
     <g id="line2d_3">
      <g>
       <use xlink:href="#m165c059972" x="216.32239" y="318.04" style="stroke: #000000; stroke-width: 0.8"/>
      </g>
     </g>
     <g id="text_3">
      <!-- 200 -->
      <g transform="translate(206.77864 332.638438) scale(0.1 -0.1)">
       <defs>
        <path id="DejaVuSans-32" d="M 1228 531 
L 3431 531 
L 3431 0 
L 469 0 
L 469 531 
Q 828 903 1448 1529 
Q 2069 2156 2228 2338 
Q 2531 2678 2651 2914 
Q 2772 3150 2772 3378 
Q 2772 3750 2511 3984 
Q 2250 4219 1831 4219 
Q 1534 4219 1204 4116 
Q 875 4013 500 3803 
L 500 4441 
Q 881 4594 1212 4672 
Q 1544 4750 1819 4750 
Q 2544 4750 2975 4387 
Q 3406 4025 3406 3419 
Q 3406 3131 3298 2873 
Q 3191 2616 2906 2266 
Q 2828 2175 2409 1742 
Q 1991 1309 1228 531 
z
" transform="scale(0.015625)"/>
       </defs>
       <use xlink:href="#DejaVuSans-32"/>
       <use xlink:href="#DejaVuSans-30" x="63.623047"/>
       <use xlink:href="#DejaVuSans-30" x="127.246094"/>
      </g>
     </g>
    </g>
    <g id="xtick_4">
     <g id="line2d_4">
      <g>
       <use xlink:href="#m165c059972" x="292.013699" y="318.04" style="stroke: #000000; stroke-width: 0.8"/>
      </g>
     </g>
     <g id="text_4">
      <!-- 300 -->
      <g transform="translate(282.469949 332.638438) scale(0.1 -0.1)">
       <defs>
        <path id="DejaVuSans-33" d="M 2597 2516 
Q 3050 2419 3304 2112 
Q 3559 1806 3559 1356 
Q 3559 666 3084 287 
Q 2609 -91 1734 -91 
Q 1441 -91 1130 -33 
Q 819 25 488 141 
L 488 750 
Q 750 597 1062 519 
Q 1375 441 1716 441 
Q 2309 441 2620 675 
Q 2931 909 2931 1356 
Q 2931 1769 2642 2001 
Q 2353 2234 1838 2234 
L 1294 2234 
L 1294 2753 
L 1863 2753 
Q 2328 2753 2575 2939 
Q 2822 3125 2822 3475 
Q 2822 3834 2567 4026 
Q 2313 4219 1838 4219 
Q 1578 4219 1281 4162 
Q 984 4106 628 3988 
L 628 4550 
Q 988 4650 1302 4700 
Q 1616 4750 1894 4750 
Q 2613 4750 3031 4423 
Q 3450 4097 3450 3541 
Q 3450 3153 3228 2886 
Q 3006 2619 2597 2516 
z
" transform="scale(0.015625)"/>
       </defs>
       <use xlink:href="#DejaVuSans-33"/>
       <use xlink:href="#DejaVuSans-30" x="63.623047"/>
       <use xlink:href="#DejaVuSans-30" x="127.246094"/>
      </g>
     </g>
    </g>
    <g id="xtick_5">
     <g id="line2d_5">
      <g>
       <use xlink:href="#m165c059972" x="367.705007" y="318.04" style="stroke: #000000; stroke-width: 0.8"/>
      </g>
     </g>
     <g id="text_5">
      <!-- 400 -->
      <g transform="translate(358.161257 332.638438) scale(0.1 -0.1)">
       <defs>
        <path id="DejaVuSans-34" d="M 2419 4116 
L 825 1625 
L 2419 1625 
L 2419 4116 
z
M 2253 4666 
L 3047 4666 
L 3047 1625 
L 3713 1625 
L 3713 1100 
L 3047 1100 
L 3047 0 
L 2419 0 
L 2419 1100 
L 313 1100 
L 313 1709 
L 2253 4666 
z
" transform="scale(0.015625)"/>
       </defs>
       <use xlink:href="#DejaVuSans-34"/>
       <use xlink:href="#DejaVuSans-30" x="63.623047"/>
       <use xlink:href="#DejaVuSans-30" x="127.246094"/>
      </g>
     </g>
    </g>
    <g id="text_6">
     <!-- Epochs -->
     <g transform="translate(219.221875 346.316563) scale(0.1 -0.1)">
      <defs>
       <path id="DejaVuSans-45" d="M 628 4666 
L 3578 4666 
L 3578 4134 
L 1259 4134 
L 1259 2753 
L 3481 2753 
L 3481 2222 
L 1259 2222 
L 1259 531 
L 3634 531 
L 3634 0 
L 628 0 
L 628 4666 
z
" transform="scale(0.015625)"/>
       <path id="DejaVuSans-70" d="M 1159 525 
L 1159 -1331 
L 581 -1331 
L 581 3500 
L 1159 3500 
L 1159 2969 
Q 1341 3281 1617 3432 
Q 1894 3584 2278 3584 
Q 2916 3584 3314 3078 
Q 3713 2572 3713 1747 
Q 3713 922 3314 415 
Q 2916 -91 2278 -91 
Q 1894 -91 1617 61 
Q 1341 213 1159 525 
z
M 3116 1747 
Q 3116 2381 2855 2742 
Q 2594 3103 2138 3103 
Q 1681 3103 1420 2742 
Q 1159 2381 1159 1747 
Q 1159 1113 1420 752 
Q 1681 391 2138 391 
Q 2594 391 2855 752 
Q 3116 1113 3116 1747 
z
" transform="scale(0.015625)"/>
       <path id="DejaVuSans-6f" d="M 1959 3097 
Q 1497 3097 1228 2736 
Q 959 2375 959 1747 
Q 959 1119 1226 758 
Q 1494 397 1959 397 
Q 2419 397 2687 759 
Q 2956 1122 2956 1747 
Q 2956 2369 2687 2733 
Q 2419 3097 1959 3097 
z
M 1959 3584 
Q 2709 3584 3137 3096 
Q 3566 2609 3566 1747 
Q 3566 888 3137 398 
Q 2709 -91 1959 -91 
Q 1206 -91 779 398 
Q 353 888 353 1747 
Q 353 2609 779 3096 
Q 1206 3584 1959 3584 
z
" transform="scale(0.015625)"/>
       <path id="DejaVuSans-63" d="M 3122 3366 
L 3122 2828 
Q 2878 2963 2633 3030 
Q 2388 3097 2138 3097 
Q 1578 3097 1268 2742 
Q 959 2388 959 1747 
Q 959 1106 1268 751 
Q 1578 397 2138 397 
Q 2388 397 2633 464 
Q 2878 531 3122 666 
L 3122 134 
Q 2881 22 2623 -34 
Q 2366 -91 2075 -91 
Q 1284 -91 818 406 
Q 353 903 353 1747 
Q 353 2603 823 3093 
Q 1294 3584 2113 3584 
Q 2378 3584 2631 3529 
Q 2884 3475 3122 3366 
z
" transform="scale(0.015625)"/>
       <path id="DejaVuSans-68" d="M 3513 2113 
L 3513 0 
L 2938 0 
L 2938 2094 
Q 2938 2591 2744 2837 
Q 2550 3084 2163 3084 
Q 1697 3084 1428 2787 
Q 1159 2491 1159 1978 
L 1159 0 
L 581 0 
L 581 4863 
L 1159 4863 
L 1159 2956 
Q 1366 3272 1645 3428 
Q 1925 3584 2291 3584 
Q 2894 3584 3203 3211 
Q 3513 2838 3513 2113 
z
" transform="scale(0.015625)"/>
       <path id="DejaVuSans-73" d="M 2834 3397 
L 2834 2853 
Q 2591 2978 2328 3040 
Q 2066 3103 1784 3103 
Q 1356 3103 1142 2972 
Q 928 2841 928 2578 
Q 928 2378 1081 2264 
Q 1234 2150 1697 2047 
L 1894 2003 
Q 2506 1872 2764 1633 
Q 3022 1394 3022 966 
Q 3022 478 2636 193 
Q 2250 -91 1575 -91 
Q 1294 -91 989 -36 
Q 684 19 347 128 
L 347 722 
Q 666 556 975 473 
Q 1284 391 1588 391 
Q 1994 391 2212 530 
Q 2431 669 2431 922 
Q 2431 1156 2273 1281 
Q 2116 1406 1581 1522 
L 1381 1569 
Q 847 1681 609 1914 
Q 372 2147 372 2553 
Q 372 3047 722 3315 
Q 1072 3584 1716 3584 
Q 2034 3584 2315 3537 
Q 2597 3491 2834 3397 
z
" transform="scale(0.015625)"/>
      </defs>
      <use xlink:href="#DejaVuSans-45"/>
      <use xlink:href="#DejaVuSans-70" x="63.183594"/>
      <use xlink:href="#DejaVuSans-6f" x="126.660156"/>
      <use xlink:href="#DejaVuSans-63" x="187.841797"/>
      <use xlink:href="#DejaVuSans-68" x="242.822266"/>
      <use xlink:href="#DejaVuSans-73" x="306.201172"/>
     </g>
    </g>
   </g>
   <g id="matplotlib.axis_2">
    <g id="ytick_1">
     <g id="line2d_6">
      <defs>
       <path id="mabaa45f016" d="M 0 0 
L -3.5 0 
" style="stroke: #000000; stroke-width: 0.8"/>
      </defs>
      <g>
       <use xlink:href="#mabaa45f016" x="47.72" y="306.287393" style="stroke: #000000; stroke-width: 0.8"/>
      </g>
     </g>
     <g id="text_7">
      <!-- 0.1 -->
      <g transform="translate(24.816875 310.086612) scale(0.1 -0.1)">
       <defs>
        <path id="DejaVuSans-2e" d="M 684 794 
L 1344 794 
L 1344 0 
L 684 0 
L 684 794 
z
" transform="scale(0.015625)"/>
       </defs>
       <use xlink:href="#DejaVuSans-30"/>
       <use xlink:href="#DejaVuSans-2e" x="63.623047"/>
       <use xlink:href="#DejaVuSans-31" x="95.410156"/>
      </g>
     </g>
    </g>
    <g id="ytick_2">
     <g id="line2d_7">
      <g>
       <use xlink:href="#mabaa45f016" x="47.72" y="257.959691" style="stroke: #000000; stroke-width: 0.8"/>
      </g>
     </g>
     <g id="text_8">
      <!-- 0.2 -->
      <g transform="translate(24.816875 261.75891) scale(0.1 -0.1)">
       <use xlink:href="#DejaVuSans-30"/>
       <use xlink:href="#DejaVuSans-2e" x="63.623047"/>
       <use xlink:href="#DejaVuSans-32" x="95.410156"/>
      </g>
     </g>
    </g>
    <g id="ytick_3">
     <g id="line2d_8">
      <g>
       <use xlink:href="#mabaa45f016" x="47.72" y="209.631989" style="stroke: #000000; stroke-width: 0.8"/>
      </g>
     </g>
     <g id="text_9">
      <!-- 0.3 -->
      <g transform="translate(24.816875 213.431207) scale(0.1 -0.1)">
       <use xlink:href="#DejaVuSans-30"/>
       <use xlink:href="#DejaVuSans-2e" x="63.623047"/>
       <use xlink:href="#DejaVuSans-33" x="95.410156"/>
      </g>
     </g>
    </g>
    <g id="ytick_4">
     <g id="line2d_9">
      <g>
       <use xlink:href="#mabaa45f016" x="47.72" y="161.304286" style="stroke: #000000; stroke-width: 0.8"/>
      </g>
     </g>
     <g id="text_10">
      <!-- 0.4 -->
      <g transform="translate(24.816875 165.103505) scale(0.1 -0.1)">
       <use xlink:href="#DejaVuSans-30"/>
       <use xlink:href="#DejaVuSans-2e" x="63.623047"/>
       <use xlink:href="#DejaVuSans-34" x="95.410156"/>
      </g>
     </g>
    </g>
    <g id="ytick_5">
     <g id="line2d_10">
      <g>
       <use xlink:href="#mabaa45f016" x="47.72" y="112.976584" style="stroke: #000000; stroke-width: 0.8"/>
      </g>
     </g>
     <g id="text_11">
      <!-- 0.5 -->
      <g transform="translate(24.816875 116.775803) scale(0.1 -0.1)">
       <defs>
        <path id="DejaVuSans-35" d="M 691 4666 
L 3169 4666 
L 3169 4134 
L 1269 4134 
L 1269 2991 
Q 1406 3038 1543 3061 
Q 1681 3084 1819 3084 
Q 2600 3084 3056 2656 
Q 3513 2228 3513 1497 
Q 3513 744 3044 326 
Q 2575 -91 1722 -91 
Q 1428 -91 1123 -41 
Q 819 9 494 109 
L 494 744 
Q 775 591 1075 516 
Q 1375 441 1709 441 
Q 2250 441 2565 725 
Q 2881 1009 2881 1497 
Q 2881 1984 2565 2268 
Q 2250 2553 1709 2553 
Q 1456 2553 1204 2497 
Q 953 2441 691 2322 
L 691 4666 
z
" transform="scale(0.015625)"/>
       </defs>
       <use xlink:href="#DejaVuSans-30"/>
       <use xlink:href="#DejaVuSans-2e" x="63.623047"/>
       <use xlink:href="#DejaVuSans-35" x="95.410156"/>
      </g>
     </g>
    </g>
    <g id="ytick_6">
     <g id="line2d_11">
      <g>
       <use xlink:href="#mabaa45f016" x="47.72" y="64.648882" style="stroke: #000000; stroke-width: 0.8"/>
      </g>
     </g>
     <g id="text_12">
      <!-- 0.6 -->
      <g transform="translate(24.816875 68.448101) scale(0.1 -0.1)">
       <defs>
        <path id="DejaVuSans-36" d="M 2113 2584 
Q 1688 2584 1439 2293 
Q 1191 2003 1191 1497 
Q 1191 994 1439 701 
Q 1688 409 2113 409 
Q 2538 409 2786 701 
Q 3034 994 3034 1497 
Q 3034 2003 2786 2293 
Q 2538 2584 2113 2584 
z
M 3366 4563 
L 3366 3988 
Q 3128 4100 2886 4159 
Q 2644 4219 2406 4219 
Q 1781 4219 1451 3797 
Q 1122 3375 1075 2522 
Q 1259 2794 1537 2939 
Q 1816 3084 2150 3084 
Q 2853 3084 3261 2657 
Q 3669 2231 3669 1497 
Q 3669 778 3244 343 
Q 2819 -91 2113 -91 
Q 1303 -91 875 529 
Q 447 1150 447 2328 
Q 447 3434 972 4092 
Q 1497 4750 2381 4750 
Q 2619 4750 2861 4703 
Q 3103 4656 3366 4563 
z
" transform="scale(0.015625)"/>
       </defs>
       <use xlink:href="#DejaVuSans-30"/>
       <use xlink:href="#DejaVuSans-2e" x="63.623047"/>
       <use xlink:href="#DejaVuSans-36" x="95.410156"/>
      </g>
     </g>
    </g>
    <g id="text_13">
     <!-- Accuracy -->
     <g transform="translate(18.737188 195.288125) rotate(-90) scale(0.1 -0.1)">
      <defs>
       <path id="DejaVuSans-41" d="M 2188 4044 
L 1331 1722 
L 3047 1722 
L 2188 4044 
z
M 1831 4666 
L 2547 4666 
L 4325 0 
L 3669 0 
L 3244 1197 
L 1141 1197 
L 716 0 
L 50 0 
L 1831 4666 
z
" transform="scale(0.015625)"/>
       <path id="DejaVuSans-75" d="M 544 1381 
L 544 3500 
L 1119 3500 
L 1119 1403 
Q 1119 906 1312 657 
Q 1506 409 1894 409 
Q 2359 409 2629 706 
Q 2900 1003 2900 1516 
L 2900 3500 
L 3475 3500 
L 3475 0 
L 2900 0 
L 2900 538 
Q 2691 219 2414 64 
Q 2138 -91 1772 -91 
Q 1169 -91 856 284 
Q 544 659 544 1381 
z
M 1991 3584 
L 1991 3584 
z
" transform="scale(0.015625)"/>
       <path id="DejaVuSans-72" d="M 2631 2963 
Q 2534 3019 2420 3045 
Q 2306 3072 2169 3072 
Q 1681 3072 1420 2755 
Q 1159 2438 1159 1844 
L 1159 0 
L 581 0 
L 581 3500 
L 1159 3500 
L 1159 2956 
Q 1341 3275 1631 3429 
Q 1922 3584 2338 3584 
Q 2397 3584 2469 3576 
Q 2541 3569 2628 3553 
L 2631 2963 
z
" transform="scale(0.015625)"/>
       <path id="DejaVuSans-61" d="M 2194 1759 
Q 1497 1759 1228 1600 
Q 959 1441 959 1056 
Q 959 750 1161 570 
Q 1363 391 1709 391 
Q 2188 391 2477 730 
Q 2766 1069 2766 1631 
L 2766 1759 
L 2194 1759 
z
M 3341 1997 
L 3341 0 
L 2766 0 
L 2766 531 
Q 2569 213 2275 61 
Q 1981 -91 1556 -91 
Q 1019 -91 701 211 
Q 384 513 384 1019 
Q 384 1609 779 1909 
Q 1175 2209 1959 2209 
L 2766 2209 
L 2766 2266 
Q 2766 2663 2505 2880 
Q 2244 3097 1772 3097 
Q 1472 3097 1187 3025 
Q 903 2953 641 2809 
L 641 3341 
Q 956 3463 1253 3523 
Q 1550 3584 1831 3584 
Q 2591 3584 2966 3190 
Q 3341 2797 3341 1997 
z
" transform="scale(0.015625)"/>
       <path id="DejaVuSans-79" d="M 2059 -325 
Q 1816 -950 1584 -1140 
Q 1353 -1331 966 -1331 
L 506 -1331 
L 506 -850 
L 844 -850 
Q 1081 -850 1212 -737 
Q 1344 -625 1503 -206 
L 1606 56 
L 191 3500 
L 800 3500 
L 1894 763 
L 2988 3500 
L 3597 3500 
L 2059 -325 
z
" transform="scale(0.015625)"/>
      </defs>
      <use xlink:href="#DejaVuSans-41"/>
      <use xlink:href="#DejaVuSans-63" x="66.658203"/>
      <use xlink:href="#DejaVuSans-63" x="121.638672"/>
      <use xlink:href="#DejaVuSans-75" x="176.619141"/>
      <use xlink:href="#DejaVuSans-72" x="239.998047"/>
      <use xlink:href="#DejaVuSans-61" x="281.111328"/>
      <use xlink:href="#DejaVuSans-63" x="342.390625"/>
      <use xlink:href="#DejaVuSans-79" x="397.371094"/>
     </g>
    </g>
   </g>
   <g id="line2d_12">
    <path d="M 64.939773 304.805455 
L 65.696686 298.219054 
L 66.453599 298.630703 
L 67.210512 298.630703 
L 67.967425 301.512252 
L 68.724338 292.455955 
L 69.481251 297.807404 
L 70.238164 285.457905 
L 70.995077 285.046259 
L 71.751991 276.813257 
L 72.508904 275.989958 
L 73.265817 272.28511 
L 74.02273 266.110358 
L 74.779643 263.228809 
L 75.536556 269.40356 
L 76.293469 264.463761 
L 77.050382 261.993857 
L 77.807295 261.993857 
L 78.564208 253.349209 
L 79.321121 266.522011 
L 80.078034 253.349209 
L 80.834948 253.349209 
L 82.348774 241.411366 
L 83.105687 242.646311 
L 83.8626 251.702612 
L 84.619513 252.114265 
L 85.376426 240.588067 
L 86.133339 240.588067 
L 86.890252 240.999713 
L 87.647165 237.294865 
L 88.404078 234.824961 
L 89.160992 235.648267 
L 89.917905 228.238571 
L 90.674818 231.531766 
L 91.431731 231.943412 
L 92.188644 229.473509 
L 92.945557 231.943412 
L 93.70247 215.889068 
L 94.459383 221.240521 
L 95.216296 222.887118 
L 95.973209 220.417215 
L 96.730122 224.945362 
L 97.487035 223.71041 
L 98.243949 216.300714 
L 99.000862 224.12207 
L 99.757775 213.419164 
L 100.514688 208.479372 
L 101.271601 210.949275 
L 102.028514 210.949275 
L 102.785427 211.360921 
L 103.54234 203.539565 
L 104.299253 205.186162 
L 105.056166 205.186162 
L 105.813079 207.656066 
L 106.569993 211.360921 
L 107.326906 213.830825 
L 108.083819 200.658015 
L 108.840732 206.421114 
L 109.597645 202.304613 
L 110.354558 206.832774 
L 111.111471 205.597823 
L 111.868384 202.304613 
L 112.625297 195.306577 
L 113.38221 206.832774 
L 114.139123 195.306577 
L 114.896036 194.483271 
L 115.65295 189.955124 
L 116.409863 192.013368 
L 117.166776 190.778416 
L 117.923689 182.545428 
L 118.680602 183.36872 
L 119.437515 193.248319 
L 120.194428 185.426977 
L 120.951341 187.073575 
L 121.708254 180.075524 
L 122.465167 174.724072 
L 123.22208 190.778416 
L 123.978994 186.250269 
L 124.735907 188.308527 
L 125.49282 185.838623 
L 126.249733 182.545428 
L 127.006646 177.193975 
L 127.763559 184.603671 
L 128.520472 183.78038 
L 129.277385 180.075524 
L 130.034298 181.310476 
L 130.791211 178.840573 
L 132.305037 182.133768 
L 133.061951 169.372619 
L 133.818864 185.426977 
L 134.575777 178.017267 
L 135.33269 168.549327 
L 136.089603 181.310476 
L 136.846516 170.607571 
L 137.603429 168.137681 
L 138.360342 159.081373 
L 139.117255 159.493033 
L 139.874168 170.195925 
L 140.631081 161.139631 
L 141.387995 170.195925 
L 142.144908 166.079424 
L 142.901821 176.370669 
L 143.658734 161.962923 
L 144.415647 157.846422 
L 145.17256 167.726021 
L 145.929473 166.491069 
L 146.686386 161.551277 
L 147.443299 163.197874 
L 148.200212 155.376532 
L 148.957125 161.139631 
L 149.714038 152.906629 
L 150.470952 160.316325 
L 151.227865 157.02313 
L 151.984778 159.904679 
L 152.741691 165.256132 
L 153.498604 156.199824 
L 154.255517 155.376532 
L 155.01243 148.378482 
L 155.769343 152.083323 
L 156.526256 156.611484 
L 157.283169 146.731884 
L 158.040082 152.083323 
L 158.796996 153.729935 
L 159.553909 147.966822 
L 160.310822 154.141581 
L 161.067735 149.613434 
L 161.824648 152.494983 
L 162.581561 153.729935 
L 163.338474 145.908578 
L 164.095387 141.380432 
L 164.8523 147.555176 
L 165.609213 148.790128 
L 166.366126 148.790128 
L 167.123039 144.673627 
L 167.879953 147.14353 
L 168.636866 133.147429 
L 169.393779 147.555176 
L 170.150692 140.14548 
L 170.907605 149.201774 
L 171.664518 139.322174 
L 173.178344 145.496933 
L 173.935257 143.850335 
L 174.69217 136.440625 
L 175.449083 145.085273 
L 176.205997 152.083323 
L 176.96291 144.261981 
L 177.719823 125.737733 
L 178.476736 148.378482 
L 179.233649 138.910528 
L 179.990562 143.850335 
L 180.747475 131.500832 
L 181.504388 131.912478 
L 182.261301 131.089186 
L 183.018214 134.794027 
L 183.775127 136.028979 
L 184.53204 138.087237 
L 185.288954 126.561039 
L 186.045867 134.794027 
L 186.80278 129.030928 
L 187.559693 134.382381 
L 188.316606 131.089186 
L 189.073519 132.735784 
L 189.830432 132.735784 
L 190.587345 133.559075 
L 191.344258 124.091136 
L 192.101171 135.205687 
L 192.858084 117.916377 
L 193.614998 137.263931 
L 194.371911 120.38628 
L 195.128824 126.149379 
L 195.885737 123.26783 
L 196.64265 123.679476 
L 197.399563 125.326088 
L 198.156476 115.034828 
L 198.913389 125.737733 
L 199.670302 124.914427 
L 200.427215 125.737733 
L 201.184128 119.151329 
L 201.941041 121.209586 
L 202.697955 122.032878 
L 203.454868 119.562989 
L 204.211781 119.974635 
L 204.968694 116.269779 
L 205.725607 115.034828 
L 206.48252 119.974635 
L 207.239433 114.211536 
L 207.996346 124.914427 
L 208.753259 128.207637 
L 209.510172 121.209586 
L 210.267085 127.795977 
L 211.023999 119.974635 
L 211.780912 113.38823 
L 212.537825 112.153293 
L 213.294738 114.211536 
L 214.051651 120.797926 
L 214.808564 110.506681 
L 215.565477 117.916377 
L 216.32239 105.978534 
L 217.079303 117.093085 
L 217.836216 117.916377 
L 218.593129 123.679476 
L 219.350042 101.038727 
L 220.106956 118.739683 
L 220.863869 110.918341 
L 221.620782 114.211536 
L 222.377695 110.095021 
L 223.134608 110.095021 
L 223.891521 112.153293 
L 224.648434 117.504731 
L 225.405347 98.980483 
L 226.16226 107.625146 
L 226.919173 109.683389 
L 227.676086 113.79989 
L 228.433 110.918341 
L 229.189913 102.273679 
L 229.946826 98.980483 
L 230.703739 110.506681 
L 231.460652 110.918341 
L 232.217565 106.390194 
L 232.974478 95.275628 
L 233.731391 106.801825 
L 234.488304 105.155242 
L 235.245217 103.096999 
L 236.00213 99.392144 
L 236.759043 110.918341 
L 237.515957 101.038727 
L 238.27287 93.217385 
L 239.029783 108.448437 
L 239.786696 96.098949 
L 240.543609 105.978534 
L 241.300522 104.743582 
L 242.057435 105.978534 
L 242.814348 101.038727 
L 243.571261 102.273679 
L 244.328174 103.920291 
L 245.085087 100.627095 
L 245.842 105.155242 
L 246.598914 97.3339 
L 247.355827 108.448437 
L 248.11274 93.629045 
L 248.869653 94.040676 
L 249.626566 94.040676 
L 250.383479 104.743582 
L 251.140392 92.394093 
L 251.897305 88.277578 
L 252.654218 101.038727 
L 253.411131 87.865946 
L 254.168044 95.275628 
L 254.924958 97.3339 
L 256.438784 88.689238 
L 257.195697 85.807674 
L 257.95261 84.161091 
L 258.709523 93.217385 
L 259.466436 96.51058 
L 260.223349 91.159142 
L 260.980262 89.100898 
L 261.737175 84.984383 
L 262.494088 92.805725 
L 263.251001 94.040676 
L 264.007915 93.629045 
L 264.764828 89.51253 
L 265.521741 87.042626 
L 266.278654 88.277578 
L 267.035567 88.689238 
L 267.79248 82.102848 
L 268.549393 94.452337 
L 269.306306 95.687288 
L 270.063219 86.630995 
L 270.820132 80.044576 
L 271.577045 83.749431 
L 272.333959 94.040676 
L 273.090872 80.044576 
L 273.847785 85.807674 
L 274.604698 93.217385 
L 275.361611 79.632944 
L 276.118524 84.984383 
L 276.875437 84.572751 
L 277.63235 86.630995 
L 278.389263 85.807674 
L 279.146176 84.161091 
L 279.903089 75.104797 
L 280.660002 74.281477 
L 281.416916 79.632944 
L 282.173829 73.046554 
L 282.930742 78.809653 
L 283.687655 77.574701 
L 284.444568 85.396043 
L 285.201481 81.691188 
L 285.958394 81.279527 
L 286.715307 72.634894 
L 287.47222 79.221284 
L 288.229133 69.341699 
L 288.986046 80.456236 
L 289.74296 81.691188 
L 290.499873 84.572751 
L 291.256786 66.460135 
L 292.013699 86.219334 
L 292.770612 80.044576 
L 294.284438 63.990232 
L 295.798264 75.104797 
L 296.555177 75.928089 
L 297.31209 78.397993 
L 298.069003 74.693137 
L 298.825917 73.458185 
L 299.58283 65.225183 
L 300.339743 78.809653 
L 301.096656 74.693137 
L 301.853569 75.928089 
L 302.610482 69.341699 
L 303.367395 71.811602 
L 304.124308 77.574701 
L 304.881221 73.458185 
L 305.638134 66.871795 
L 306.395047 77.574701 
L 307.151961 67.695087 
L 307.908874 65.636843 
L 308.665787 64.813552 
L 309.4227 73.046554 
L 310.179613 67.283455 
L 310.936526 59.462085 
L 311.693439 70.16499 
L 312.450352 66.871795 
L 313.207265 65.225183 
L 313.964178 70.988282 
L 314.721091 62.343648 
L 315.478004 68.106747 
L 316.234918 67.695087 
L 316.991831 72.223234 
L 317.748744 71.811602 
L 318.505657 62.75528 
L 319.26257 68.930039 
L 320.019483 69.341699 
L 320.776396 65.636843 
L 321.533309 59.873745 
L 322.290222 64.813552 
L 323.047135 60.697036 
L 323.804048 66.460135 
L 324.560962 67.283455 
L 325.317875 59.462085 
L 326.074788 66.871795 
L 326.831701 77.574701 
L 327.588614 65.636843 
L 328.345527 60.697036 
L 329.10244 73.458185 
L 330.616266 57.403841 
L 331.373179 68.930039 
L 332.130092 61.520357 
L 332.887005 61.108697 
L 333.643919 64.813552 
L 334.400832 60.697036 
L 335.157745 62.343648 
L 335.914658 59.462085 
L 336.671571 57.403841 
L 337.428484 57.403841 
L 338.185397 68.106747 
L 338.94231 56.992181 
L 339.699223 60.697036 
L 340.456136 61.520357 
L 341.213049 75.516429 
L 342.726876 53.698986 
L 343.483789 63.990232 
L 344.240702 50.405791 
L 344.997615 59.050453 
L 345.754528 44.642692 
L 346.511441 74.693137 
L 347.268354 60.697036 
L 348.025267 66.048504 
L 348.78218 55.757229 
L 349.539093 59.050453 
L 350.296006 63.990232 
L 351.05292 61.108697 
L 351.809833 59.462085 
L 352.566746 45.877644 
L 354.080572 57.403841 
L 354.837485 52.875694 
L 355.594398 66.460135 
L 356.351311 59.873745 
L 357.108224 54.522306 
L 357.865137 63.5786 
L 358.62205 60.697036 
L 359.378964 51.640743 
L 360.135877 45.877644 
L 360.89279 49.582499 
L 361.649703 54.933938 
L 362.406616 43.819401 
L 363.163529 52.875694 
L 363.920442 49.170839 
L 364.677355 48.347548 
L 365.434268 42.172789 
L 366.191181 58.638793 
L 366.948094 52.875694 
L 367.705007 54.933938 
L 368.461921 48.347548 
L 369.218834 50.817451 
L 370.73266 58.638793 
L 371.489573 52.464034 
L 372.246486 52.875694 
L 373.003399 58.227133 
L 373.760312 45.877644 
L 374.517225 45.465984 
L 375.274138 47.524256 
L 376.031051 55.757229 
L 376.787965 44.642692 
L 377.544878 56.992181 
L 378.301791 44.642692 
L 379.058704 59.462085 
L 379.815617 40.114545 
L 380.57253 53.287355 
L 381.329443 53.698986 
L 382.086356 54.522306 
L 382.843269 59.873745 
L 383.600182 51.229083 
L 384.357095 52.052403 
L 385.114008 50.405791 
L 385.870922 46.289304 
L 386.627835 44.231032 
L 387.384748 48.759208 
L 388.141661 51.640743 
L 388.898574 48.347548 
L 389.655487 44.231032 
L 390.4124 55.757229 
L 391.169313 48.347548 
L 391.926226 55.345598 
L 392.683139 55.757229 
L 393.440052 49.582499 
L 394.196966 56.58055 
L 394.953879 56.58055 
L 395.710792 59.050453 
L 396.467705 48.347548 
L 397.224618 50.405791 
L 397.981531 54.933938 
L 398.738444 47.112596 
L 399.495357 52.464034 
L 400.25227 40.114545 
L 401.009183 52.052403 
L 401.766096 47.112596 
L 402.523009 54.110646 
L 403.279923 52.052403 
L 404.036836 57.403841 
L 404.793749 50.817451 
L 405.550662 47.112596 
L 406.307575 49.582499 
L 407.064488 50.817451 
L 407.821401 47.524256 
L 408.578314 52.464034 
L 409.335227 55.757229 
L 409.335227 55.757229 
" clip-path="url(#p5227a130a1)" style="fill: none; stroke: #1f77b4; stroke-width: 1.5; stroke-linecap: square"/>
   </g>
   <g id="line2d_13">
    <path d="M 64.939773 291.882019 
L 65.696686 280.264781 
L 66.453599 275.617891 
L 67.210512 275.617891 
L 67.967425 268.647551 
L 68.724338 264.000654 
L 69.481251 252.383416 
L 70.238164 254.706865 
L 70.995077 252.383416 
L 71.751991 245.413077 
L 72.508904 243.089628 
L 73.265817 231.472398 
L 74.02273 231.472398 
L 74.779643 219.855161 
L 75.536556 219.855161 
L 76.293469 217.531705 
L 77.050382 217.531705 
L 78.564208 212.884821 
L 79.321121 208.237924 
L 80.078034 205.914468 
L 81.591861 196.620686 
L 82.348774 196.620686 
L 83.105687 187.326891 
L 83.8626 185.003449 
L 84.619513 175.709654 
L 85.376426 182.680008 
L 86.890252 178.03311 
L 87.647165 180.356551 
L 88.404078 175.709654 
L 89.917905 175.709654 
L 91.431731 171.06277 
L 93.70247 171.06277 
L 94.459383 173.386212 
L 95.216296 173.386212 
L 95.973209 178.03311 
L 96.730122 180.356551 
L 97.487035 175.709654 
L 98.243949 168.739314 
L 99.000862 166.415873 
L 99.757775 166.415873 
L 100.514688 168.739314 
L 102.028514 164.092416 
L 102.785427 166.415873 
L 103.54234 164.092416 
L 105.813079 164.092416 
L 106.569993 161.768975 
L 108.083819 152.475194 
L 110.354558 152.475194 
L 111.111471 150.151738 
L 111.868384 152.475194 
L 113.38221 152.475194 
L 114.139123 143.181398 
L 114.896036 143.181398 
L 115.65295 145.50484 
L 116.409863 145.50484 
L 117.166776 147.828296 
L 117.923689 154.798635 
L 118.680602 150.151738 
L 119.437515 154.798635 
L 120.194428 152.475194 
L 120.951341 157.122077 
L 123.22208 150.151738 
L 124.735907 150.151738 
L 125.49282 145.50484 
L 126.249733 150.151738 
L 127.006646 152.475194 
L 128.520472 147.828296 
L 130.034298 152.475194 
L 130.791211 150.151738 
L 131.548124 145.50484 
L 132.305037 145.50484 
L 133.061951 143.181398 
L 133.818864 143.181398 
L 134.575777 140.857956 
L 135.33269 140.857956 
L 136.089603 143.181398 
L 136.846516 143.181398 
L 137.603429 138.5345 
L 138.360342 140.857956 
L 139.117255 138.5345 
L 139.874168 138.5345 
L 140.631081 140.857956 
L 141.387995 138.5345 
L 144.415647 138.5345 
L 145.17256 133.887603 
L 145.929473 131.564161 
L 147.443299 131.564161 
L 148.200212 133.887603 
L 149.714038 133.887603 
L 150.470952 131.564161 
L 151.227865 133.887603 
L 151.984778 133.887603 
L 152.741691 131.564161 
L 153.498604 131.564161 
L 155.769343 138.5345 
L 156.526256 136.211059 
L 157.283169 131.564161 
L 158.040082 133.887603 
L 159.553909 124.593821 
L 160.310822 126.917263 
L 161.067735 126.917263 
L 161.824648 133.887603 
L 162.581561 131.564161 
L 163.338474 133.887603 
L 164.095387 126.917263 
L 164.8523 124.593821 
L 165.609213 126.917263 
L 167.879953 126.917263 
L 168.636866 124.593821 
L 169.393779 126.917263 
L 170.150692 124.593821 
L 170.907605 124.593821 
L 171.664518 131.564161 
L 172.421431 124.593821 
L 173.935257 129.240719 
L 174.69217 129.240719 
L 175.449083 122.27038 
L 176.205997 119.946924 
L 179.233649 119.946924 
L 179.990562 115.300026 
L 180.747475 117.623482 
L 183.018214 117.623482 
L 183.775127 119.946924 
L 184.53204 117.623482 
L 185.288954 119.946924 
L 192.858084 119.946924 
L 194.371911 115.300026 
L 195.885737 115.300026 
L 196.64265 112.976584 
L 197.399563 112.976584 
L 198.156476 110.653128 
L 198.913389 110.653128 
L 199.670302 108.329701 
L 200.427215 112.976584 
L 201.184128 110.653128 
L 203.454868 110.653128 
L 204.211781 112.976584 
L 204.968694 110.653128 
L 206.48252 110.653128 
L 207.239433 103.682789 
L 207.996346 108.329701 
L 208.753259 106.006245 
L 210.267085 106.006245 
L 211.023999 108.329701 
L 211.780912 106.006245 
L 212.537825 106.006245 
L 213.294738 103.682789 
L 214.051651 106.006245 
L 214.808564 106.006245 
L 215.565477 103.682789 
L 216.32239 112.976584 
L 217.079303 110.653128 
L 217.836216 110.653128 
L 218.593129 108.329701 
L 219.350042 108.329701 
L 220.106956 103.682789 
L 220.863869 106.006245 
L 222.377695 101.359361 
L 223.134608 101.359361 
L 223.891521 103.682789 
L 224.648434 103.682789 
L 226.16226 108.329701 
L 227.676086 108.329701 
L 228.433 106.006245 
L 229.189913 101.359361 
L 229.946826 103.682789 
L 230.703739 101.359361 
L 231.460652 101.359361 
L 232.217565 99.035905 
L 232.974478 101.359361 
L 233.731391 99.035905 
L 236.00213 99.035905 
L 236.759043 103.682789 
L 237.515957 103.682789 
L 238.27287 101.359361 
L 239.029783 103.682789 
L 240.543609 103.682789 
L 241.300522 101.359361 
L 242.814348 106.006245 
L 243.571261 103.682789 
L 244.328174 99.035905 
L 245.085087 96.712449 
L 245.842 99.035905 
L 247.355827 99.035905 
L 248.11274 96.712449 
L 248.869653 96.712449 
L 249.626566 101.359361 
L 250.383479 99.035905 
L 251.140392 106.006245 
L 252.654218 96.712449 
L 254.168044 101.359361 
L 254.924958 99.035905 
L 257.95261 99.035905 
L 258.709523 101.359361 
L 259.466436 99.035905 
L 260.223349 99.035905 
L 260.980262 96.712449 
L 261.737175 96.712449 
L 262.494088 99.035905 
L 263.251001 99.035905 
L 264.007915 96.712449 
L 264.764828 92.065566 
L 265.521741 96.712449 
L 266.278654 94.388993 
L 267.035567 94.388993 
L 267.79248 96.712449 
L 268.549393 96.712449 
L 269.306306 94.388993 
L 270.063219 94.388993 
L 270.820132 89.74211 
L 271.577045 89.74211 
L 272.333959 92.065566 
L 273.090872 89.74211 
L 273.847785 92.065566 
L 274.604698 89.74211 
L 275.361611 89.74211 
L 276.118524 92.065566 
L 278.389263 85.095226 
L 279.903089 85.095226 
L 280.660002 82.77177 
L 282.930742 82.77177 
L 283.687655 85.095226 
L 284.444568 85.095226 
L 285.201481 82.77177 
L 286.715307 82.77177 
L 287.47222 80.448314 
L 289.74296 80.448314 
L 290.499873 82.77177 
L 291.256786 80.448314 
L 292.013699 80.448314 
L 292.770612 82.77177 
L 296.555177 82.77177 
L 297.31209 78.124887 
L 298.069003 78.124887 
L 298.825917 82.77177 
L 299.58283 80.448314 
L 306.395047 80.448314 
L 307.151961 75.801431 
L 307.908874 78.124887 
L 311.693439 78.124887 
L 312.450352 75.801431 
L 313.207265 78.124887 
L 313.964178 75.801431 
L 314.721091 75.801431 
L 315.478004 73.477975 
L 316.234918 78.124887 
L 317.748744 73.477975 
L 319.26257 73.477975 
L 320.019483 75.801431 
L 320.776396 75.801431 
L 321.533309 73.477975 
L 323.804048 73.477975 
L 324.560962 75.801431 
L 325.317875 73.477975 
L 326.074788 73.477975 
L 326.831701 71.154548 
L 327.588614 71.154548 
L 328.345527 73.477975 
L 329.10244 73.477975 
L 329.859353 68.831092 
L 332.887005 78.124887 
L 333.643919 73.477975 
L 334.400832 73.477975 
L 335.157745 66.507635 
L 336.671571 66.507635 
L 337.428484 68.831092 
L 338.94231 68.831092 
L 339.699223 61.860752 
L 341.213049 57.21384 
L 341.969963 59.537296 
L 342.726876 59.537296 
L 343.483789 57.21384 
L 344.997615 61.860752 
L 348.025267 61.860752 
L 348.78218 59.537296 
L 349.539093 64.184179 
L 350.296006 59.537296 
L 351.05292 57.21384 
L 353.323659 57.21384 
L 354.080572 59.537296 
L 354.837485 59.537296 
L 356.351311 54.890413 
L 357.108224 57.21384 
L 357.865137 57.21384 
L 358.62205 54.890413 
L 359.378964 54.890413 
L 360.135877 59.537296 
L 360.89279 54.890413 
L 361.649703 54.890413 
L 362.406616 57.21384 
L 363.163529 50.2435 
L 363.920442 52.566957 
L 365.434268 52.566957 
L 366.191181 50.2435 
L 366.948094 52.566957 
L 367.705007 52.566957 
L 368.461921 50.2435 
L 376.031051 50.2435 
L 376.787965 52.566957 
L 409.335227 52.566957 
L 409.335227 52.566957 
" clip-path="url(#p5227a130a1)" style="fill: none; stroke: #ff7f0e; stroke-width: 1.5; stroke-linecap: square"/>
   </g>
   <g id="patch_3">
    <path d="M 47.72 318.04 
L 47.72 26.88 
" style="fill: none; stroke: #000000; stroke-width: 0.8; stroke-linejoin: miter; stroke-linecap: square"/>
   </g>
   <g id="patch_4">
    <path d="M 426.555 318.04 
L 426.555 26.88 
" style="fill: none; stroke: #000000; stroke-width: 0.8; stroke-linejoin: miter; stroke-linecap: square"/>
   </g>
   <g id="patch_5">
    <path d="M 47.72 318.04 
L 426.555 318.04 
" style="fill: none; stroke: #000000; stroke-width: 0.8; stroke-linejoin: miter; stroke-linecap: square"/>
   </g>
   <g id="patch_6">
    <path d="M 47.72 26.88 
L 426.555 26.88 
" style="fill: none; stroke: #000000; stroke-width: 0.8; stroke-linejoin: miter; stroke-linecap: square"/>
   </g>
   <g id="text_14">
    <!-- Accuracy - Subject 4 -->
    <g transform="translate(175.610312 20.88) scale(0.12 -0.12)">
     <defs>
      <path id="DejaVuSans-20" transform="scale(0.015625)"/>
      <path id="DejaVuSans-2d" d="M 313 2009 
L 1997 2009 
L 1997 1497 
L 313 1497 
L 313 2009 
z
" transform="scale(0.015625)"/>
      <path id="DejaVuSans-53" d="M 3425 4513 
L 3425 3897 
Q 3066 4069 2747 4153 
Q 2428 4238 2131 4238 
Q 1616 4238 1336 4038 
Q 1056 3838 1056 3469 
Q 1056 3159 1242 3001 
Q 1428 2844 1947 2747 
L 2328 2669 
Q 3034 2534 3370 2195 
Q 3706 1856 3706 1288 
Q 3706 609 3251 259 
Q 2797 -91 1919 -91 
Q 1588 -91 1214 -16 
Q 841 59 441 206 
L 441 856 
Q 825 641 1194 531 
Q 1563 422 1919 422 
Q 2459 422 2753 634 
Q 3047 847 3047 1241 
Q 3047 1584 2836 1778 
Q 2625 1972 2144 2069 
L 1759 2144 
Q 1053 2284 737 2584 
Q 422 2884 422 3419 
Q 422 4038 858 4394 
Q 1294 4750 2059 4750 
Q 2388 4750 2728 4690 
Q 3069 4631 3425 4513 
z
" transform="scale(0.015625)"/>
      <path id="DejaVuSans-62" d="M 3116 1747 
Q 3116 2381 2855 2742 
Q 2594 3103 2138 3103 
Q 1681 3103 1420 2742 
Q 1159 2381 1159 1747 
Q 1159 1113 1420 752 
Q 1681 391 2138 391 
Q 2594 391 2855 752 
Q 3116 1113 3116 1747 
z
M 1159 2969 
Q 1341 3281 1617 3432 
Q 1894 3584 2278 3584 
Q 2916 3584 3314 3078 
Q 3713 2572 3713 1747 
Q 3713 922 3314 415 
Q 2916 -91 2278 -91 
Q 1894 -91 1617 61 
Q 1341 213 1159 525 
L 1159 0 
L 581 0 
L 581 4863 
L 1159 4863 
L 1159 2969 
z
" transform="scale(0.015625)"/>
      <path id="DejaVuSans-6a" d="M 603 3500 
L 1178 3500 
L 1178 -63 
Q 1178 -731 923 -1031 
Q 669 -1331 103 -1331 
L -116 -1331 
L -116 -844 
L 38 -844 
Q 366 -844 484 -692 
Q 603 -541 603 -63 
L 603 3500 
z
M 603 4863 
L 1178 4863 
L 1178 4134 
L 603 4134 
L 603 4863 
z
" transform="scale(0.015625)"/>
      <path id="DejaVuSans-65" d="M 3597 1894 
L 3597 1613 
L 953 1613 
Q 991 1019 1311 708 
Q 1631 397 2203 397 
Q 2534 397 2845 478 
Q 3156 559 3463 722 
L 3463 178 
Q 3153 47 2828 -22 
Q 2503 -91 2169 -91 
Q 1331 -91 842 396 
Q 353 884 353 1716 
Q 353 2575 817 3079 
Q 1281 3584 2069 3584 
Q 2775 3584 3186 3129 
Q 3597 2675 3597 1894 
z
M 3022 2063 
Q 3016 2534 2758 2815 
Q 2500 3097 2075 3097 
Q 1594 3097 1305 2825 
Q 1016 2553 972 2059 
L 3022 2063 
z
" transform="scale(0.015625)"/>
      <path id="DejaVuSans-74" d="M 1172 4494 
L 1172 3500 
L 2356 3500 
L 2356 3053 
L 1172 3053 
L 1172 1153 
Q 1172 725 1289 603 
Q 1406 481 1766 481 
L 2356 481 
L 2356 0 
L 1766 0 
Q 1100 0 847 248 
Q 594 497 594 1153 
L 594 3053 
L 172 3053 
L 172 3500 
L 594 3500 
L 594 4494 
L 1172 4494 
z
" transform="scale(0.015625)"/>
     </defs>
     <use xlink:href="#DejaVuSans-41"/>
     <use xlink:href="#DejaVuSans-63" x="66.658203"/>
     <use xlink:href="#DejaVuSans-63" x="121.638672"/>
     <use xlink:href="#DejaVuSans-75" x="176.619141"/>
     <use xlink:href="#DejaVuSans-72" x="239.998047"/>
     <use xlink:href="#DejaVuSans-61" x="281.111328"/>
     <use xlink:href="#DejaVuSans-63" x="342.390625"/>
     <use xlink:href="#DejaVuSans-79" x="397.371094"/>
     <use xlink:href="#DejaVuSans-20" x="456.550781"/>
     <use xlink:href="#DejaVuSans-2d" x="488.337891"/>
     <use xlink:href="#DejaVuSans-20" x="524.421875"/>
     <use xlink:href="#DejaVuSans-53" x="556.208984"/>
     <use xlink:href="#DejaVuSans-75" x="619.685547"/>
     <use xlink:href="#DejaVuSans-62" x="683.064453"/>
     <use xlink:href="#DejaVuSans-6a" x="746.541016"/>
     <use xlink:href="#DejaVuSans-65" x="774.324219"/>
     <use xlink:href="#DejaVuSans-63" x="835.847656"/>
     <use xlink:href="#DejaVuSans-74" x="890.828125"/>
     <use xlink:href="#DejaVuSans-20" x="930.037109"/>
     <use xlink:href="#DejaVuSans-34" x="961.824219"/>
    </g>
   </g>
   <g id="legend_1">
    <g id="patch_7">
     <path d="M 54.72 64.23625 
L 184.935625 64.23625 
Q 186.935625 64.23625 186.935625 62.23625 
L 186.935625 33.88 
Q 186.935625 31.88 184.935625 31.88 
L 54.72 31.88 
Q 52.72 31.88 52.72 33.88 
L 52.72 62.23625 
Q 52.72 64.23625 54.72 64.23625 
z
" style="fill: #ffffff; opacity: 0.8; stroke: #cccccc; stroke-linejoin: miter"/>
    </g>
    <g id="line2d_14">
     <path d="M 56.72 39.978437 
L 66.72 39.978437 
L 76.72 39.978437 
" style="fill: none; stroke: #1f77b4; stroke-width: 1.5; stroke-linecap: square"/>
    </g>
    <g id="text_15">
     <!-- Training Accuracy -->
     <g transform="translate(84.72 43.478437) scale(0.1 -0.1)">
      <defs>
       <path id="DejaVuSans-54" d="M -19 4666 
L 3928 4666 
L 3928 4134 
L 2272 4134 
L 2272 0 
L 1638 0 
L 1638 4134 
L -19 4134 
L -19 4666 
z
" transform="scale(0.015625)"/>
       <path id="DejaVuSans-69" d="M 603 3500 
L 1178 3500 
L 1178 0 
L 603 0 
L 603 3500 
z
M 603 4863 
L 1178 4863 
L 1178 4134 
L 603 4134 
L 603 4863 
z
" transform="scale(0.015625)"/>
       <path id="DejaVuSans-6e" d="M 3513 2113 
L 3513 0 
L 2938 0 
L 2938 2094 
Q 2938 2591 2744 2837 
Q 2550 3084 2163 3084 
Q 1697 3084 1428 2787 
Q 1159 2491 1159 1978 
L 1159 0 
L 581 0 
L 581 3500 
L 1159 3500 
L 1159 2956 
Q 1366 3272 1645 3428 
Q 1925 3584 2291 3584 
Q 2894 3584 3203 3211 
Q 3513 2838 3513 2113 
z
" transform="scale(0.015625)"/>
       <path id="DejaVuSans-67" d="M 2906 1791 
Q 2906 2416 2648 2759 
Q 2391 3103 1925 3103 
Q 1463 3103 1205 2759 
Q 947 2416 947 1791 
Q 947 1169 1205 825 
Q 1463 481 1925 481 
Q 2391 481 2648 825 
Q 2906 1169 2906 1791 
z
M 3481 434 
Q 3481 -459 3084 -895 
Q 2688 -1331 1869 -1331 
Q 1566 -1331 1297 -1286 
Q 1028 -1241 775 -1147 
L 775 -588 
Q 1028 -725 1275 -790 
Q 1522 -856 1778 -856 
Q 2344 -856 2625 -561 
Q 2906 -266 2906 331 
L 2906 616 
Q 2728 306 2450 153 
Q 2172 0 1784 0 
Q 1141 0 747 490 
Q 353 981 353 1791 
Q 353 2603 747 3093 
Q 1141 3584 1784 3584 
Q 2172 3584 2450 3431 
Q 2728 3278 2906 2969 
L 2906 3500 
L 3481 3500 
L 3481 434 
z
" transform="scale(0.015625)"/>
      </defs>
      <use xlink:href="#DejaVuSans-54"/>
      <use xlink:href="#DejaVuSans-72" x="46.333984"/>
      <use xlink:href="#DejaVuSans-61" x="87.447266"/>
      <use xlink:href="#DejaVuSans-69" x="148.726562"/>
      <use xlink:href="#DejaVuSans-6e" x="176.509766"/>
      <use xlink:href="#DejaVuSans-69" x="239.888672"/>
      <use xlink:href="#DejaVuSans-6e" x="267.671875"/>
      <use xlink:href="#DejaVuSans-67" x="331.050781"/>
      <use xlink:href="#DejaVuSans-20" x="394.527344"/>
      <use xlink:href="#DejaVuSans-41" x="426.314453"/>
      <use xlink:href="#DejaVuSans-63" x="492.972656"/>
      <use xlink:href="#DejaVuSans-63" x="547.953125"/>
      <use xlink:href="#DejaVuSans-75" x="602.933594"/>
      <use xlink:href="#DejaVuSans-72" x="666.3125"/>
      <use xlink:href="#DejaVuSans-61" x="707.425781"/>
      <use xlink:href="#DejaVuSans-63" x="768.705078"/>
      <use xlink:href="#DejaVuSans-79" x="823.685547"/>
     </g>
    </g>
    <g id="line2d_15">
     <path d="M 56.72 54.656563 
L 66.72 54.656563 
L 76.72 54.656563 
" style="fill: none; stroke: #ff7f0e; stroke-width: 1.5; stroke-linecap: square"/>
    </g>
    <g id="text_16">
     <!-- Validation Accuracy -->
     <g transform="translate(84.72 58.156563) scale(0.1 -0.1)">
      <defs>
       <path id="DejaVuSans-56" d="M 1831 0 
L 50 4666 
L 709 4666 
L 2188 738 
L 3669 4666 
L 4325 4666 
L 2547 0 
L 1831 0 
z
" transform="scale(0.015625)"/>
       <path id="DejaVuSans-6c" d="M 603 4863 
L 1178 4863 
L 1178 0 
L 603 0 
L 603 4863 
z
" transform="scale(0.015625)"/>
       <path id="DejaVuSans-64" d="M 2906 2969 
L 2906 4863 
L 3481 4863 
L 3481 0 
L 2906 0 
L 2906 525 
Q 2725 213 2448 61 
Q 2172 -91 1784 -91 
Q 1150 -91 751 415 
Q 353 922 353 1747 
Q 353 2572 751 3078 
Q 1150 3584 1784 3584 
Q 2172 3584 2448 3432 
Q 2725 3281 2906 2969 
z
M 947 1747 
Q 947 1113 1208 752 
Q 1469 391 1925 391 
Q 2381 391 2643 752 
Q 2906 1113 2906 1747 
Q 2906 2381 2643 2742 
Q 2381 3103 1925 3103 
Q 1469 3103 1208 2742 
Q 947 2381 947 1747 
z
" transform="scale(0.015625)"/>
      </defs>
      <use xlink:href="#DejaVuSans-56"/>
      <use xlink:href="#DejaVuSans-61" x="60.658203"/>
      <use xlink:href="#DejaVuSans-6c" x="121.9375"/>
      <use xlink:href="#DejaVuSans-69" x="149.720703"/>
      <use xlink:href="#DejaVuSans-64" x="177.503906"/>
      <use xlink:href="#DejaVuSans-61" x="240.980469"/>
      <use xlink:href="#DejaVuSans-74" x="302.259766"/>
      <use xlink:href="#DejaVuSans-69" x="341.46875"/>
      <use xlink:href="#DejaVuSans-6f" x="369.251953"/>
      <use xlink:href="#DejaVuSans-6e" x="430.433594"/>
      <use xlink:href="#DejaVuSans-20" x="493.8125"/>
      <use xlink:href="#DejaVuSans-41" x="525.599609"/>
      <use xlink:href="#DejaVuSans-63" x="592.257812"/>
      <use xlink:href="#DejaVuSans-63" x="647.238281"/>
      <use xlink:href="#DejaVuSans-75" x="702.21875"/>
      <use xlink:href="#DejaVuSans-72" x="765.597656"/>
      <use xlink:href="#DejaVuSans-61" x="806.710938"/>
      <use xlink:href="#DejaVuSans-63" x="867.990234"/>
      <use xlink:href="#DejaVuSans-79" x="922.970703"/>
     </g>
    </g>
   </g>
  </g>
  <g id="axes_2">
   <g id="patch_8">
    <path d="M 474.365 318.04 
L 853.2 318.04 
L 853.2 26.88 
L 474.365 26.88 
z
" style="fill: #ffffff"/>
   </g>
   <g id="matplotlib.axis_3">
    <g id="xtick_6">
     <g id="line2d_16">
      <g>
       <use xlink:href="#m165c059972" x="491.584773" y="318.04" style="stroke: #000000; stroke-width: 0.8"/>
      </g>
     </g>
     <g id="text_17">
      <!-- 0 -->
      <g transform="translate(488.403523 332.638438) scale(0.1 -0.1)">
       <use xlink:href="#DejaVuSans-30"/>
      </g>
     </g>
    </g>
    <g id="xtick_7">
     <g id="line2d_17">
      <g>
       <use xlink:href="#m165c059972" x="567.276081" y="318.04" style="stroke: #000000; stroke-width: 0.8"/>
      </g>
     </g>
     <g id="text_18">
      <!-- 100 -->
      <g transform="translate(557.732331 332.638438) scale(0.1 -0.1)">
       <use xlink:href="#DejaVuSans-31"/>
       <use xlink:href="#DejaVuSans-30" x="63.623047"/>
       <use xlink:href="#DejaVuSans-30" x="127.246094"/>
      </g>
     </g>
    </g>
    <g id="xtick_8">
     <g id="line2d_18">
      <g>
       <use xlink:href="#m165c059972" x="642.96739" y="318.04" style="stroke: #000000; stroke-width: 0.8"/>
      </g>
     </g>
     <g id="text_19">
      <!-- 200 -->
      <g transform="translate(633.42364 332.638438) scale(0.1 -0.1)">
       <use xlink:href="#DejaVuSans-32"/>
       <use xlink:href="#DejaVuSans-30" x="63.623047"/>
       <use xlink:href="#DejaVuSans-30" x="127.246094"/>
      </g>
     </g>
    </g>
    <g id="xtick_9">
     <g id="line2d_19">
      <g>
       <use xlink:href="#m165c059972" x="718.658699" y="318.04" style="stroke: #000000; stroke-width: 0.8"/>
      </g>
     </g>
     <g id="text_20">
      <!-- 300 -->
      <g transform="translate(709.114949 332.638438) scale(0.1 -0.1)">
       <use xlink:href="#DejaVuSans-33"/>
       <use xlink:href="#DejaVuSans-30" x="63.623047"/>
       <use xlink:href="#DejaVuSans-30" x="127.246094"/>
      </g>
     </g>
    </g>
    <g id="xtick_10">
     <g id="line2d_20">
      <g>
       <use xlink:href="#m165c059972" x="794.350007" y="318.04" style="stroke: #000000; stroke-width: 0.8"/>
      </g>
     </g>
     <g id="text_21">
      <!-- 400 -->
      <g transform="translate(784.806257 332.638438) scale(0.1 -0.1)">
       <use xlink:href="#DejaVuSans-34"/>
       <use xlink:href="#DejaVuSans-30" x="63.623047"/>
       <use xlink:href="#DejaVuSans-30" x="127.246094"/>
      </g>
     </g>
    </g>
    <g id="text_22">
     <!-- Epochs -->
     <g transform="translate(645.866875 346.316563) scale(0.1 -0.1)">
      <use xlink:href="#DejaVuSans-45"/>
      <use xlink:href="#DejaVuSans-70" x="63.183594"/>
      <use xlink:href="#DejaVuSans-6f" x="126.660156"/>
      <use xlink:href="#DejaVuSans-63" x="187.841797"/>
      <use xlink:href="#DejaVuSans-68" x="242.822266"/>
      <use xlink:href="#DejaVuSans-73" x="306.201172"/>
     </g>
    </g>
   </g>
   <g id="matplotlib.axis_4">
    <g id="ytick_7">
     <g id="line2d_21">
      <g>
       <use xlink:href="#mabaa45f016" x="474.365" y="292.836145" style="stroke: #000000; stroke-width: 0.8"/>
      </g>
     </g>
     <g id="text_23">
      <!-- 1.4 -->
      <g transform="translate(451.461875 296.635364) scale(0.1 -0.1)">
       <use xlink:href="#DejaVuSans-31"/>
       <use xlink:href="#DejaVuSans-2e" x="63.623047"/>
       <use xlink:href="#DejaVuSans-34" x="95.410156"/>
      </g>
     </g>
    </g>
    <g id="ytick_8">
     <g id="line2d_22">
      <g>
       <use xlink:href="#mabaa45f016" x="474.365" y="259.263803" style="stroke: #000000; stroke-width: 0.8"/>
      </g>
     </g>
     <g id="text_24">
      <!-- 1.6 -->
      <g transform="translate(451.461875 263.063021) scale(0.1 -0.1)">
       <use xlink:href="#DejaVuSans-31"/>
       <use xlink:href="#DejaVuSans-2e" x="63.623047"/>
       <use xlink:href="#DejaVuSans-36" x="95.410156"/>
      </g>
     </g>
    </g>
    <g id="ytick_9">
     <g id="line2d_23">
      <g>
       <use xlink:href="#mabaa45f016" x="474.365" y="225.69146" style="stroke: #000000; stroke-width: 0.8"/>
      </g>
     </g>
     <g id="text_25">
      <!-- 1.8 -->
      <g transform="translate(451.461875 229.490679) scale(0.1 -0.1)">
       <defs>
        <path id="DejaVuSans-38" d="M 2034 2216 
Q 1584 2216 1326 1975 
Q 1069 1734 1069 1313 
Q 1069 891 1326 650 
Q 1584 409 2034 409 
Q 2484 409 2743 651 
Q 3003 894 3003 1313 
Q 3003 1734 2745 1975 
Q 2488 2216 2034 2216 
z
M 1403 2484 
Q 997 2584 770 2862 
Q 544 3141 544 3541 
Q 544 4100 942 4425 
Q 1341 4750 2034 4750 
Q 2731 4750 3128 4425 
Q 3525 4100 3525 3541 
Q 3525 3141 3298 2862 
Q 3072 2584 2669 2484 
Q 3125 2378 3379 2068 
Q 3634 1759 3634 1313 
Q 3634 634 3220 271 
Q 2806 -91 2034 -91 
Q 1263 -91 848 271 
Q 434 634 434 1313 
Q 434 1759 690 2068 
Q 947 2378 1403 2484 
z
M 1172 3481 
Q 1172 3119 1398 2916 
Q 1625 2713 2034 2713 
Q 2441 2713 2670 2916 
Q 2900 3119 2900 3481 
Q 2900 3844 2670 4047 
Q 2441 4250 2034 4250 
Q 1625 4250 1398 4047 
Q 1172 3844 1172 3481 
z
" transform="scale(0.015625)"/>
       </defs>
       <use xlink:href="#DejaVuSans-31"/>
       <use xlink:href="#DejaVuSans-2e" x="63.623047"/>
       <use xlink:href="#DejaVuSans-38" x="95.410156"/>
      </g>
     </g>
    </g>
    <g id="ytick_10">
     <g id="line2d_24">
      <g>
       <use xlink:href="#mabaa45f016" x="474.365" y="192.119118" style="stroke: #000000; stroke-width: 0.8"/>
      </g>
     </g>
     <g id="text_26">
      <!-- 2.0 -->
      <g transform="translate(451.461875 195.918337) scale(0.1 -0.1)">
       <use xlink:href="#DejaVuSans-32"/>
       <use xlink:href="#DejaVuSans-2e" x="63.623047"/>
       <use xlink:href="#DejaVuSans-30" x="95.410156"/>
      </g>
     </g>
    </g>
    <g id="ytick_11">
     <g id="line2d_25">
      <g>
       <use xlink:href="#mabaa45f016" x="474.365" y="158.546775" style="stroke: #000000; stroke-width: 0.8"/>
      </g>
     </g>
     <g id="text_27">
      <!-- 2.2 -->
      <g transform="translate(451.461875 162.345994) scale(0.1 -0.1)">
       <use xlink:href="#DejaVuSans-32"/>
       <use xlink:href="#DejaVuSans-2e" x="63.623047"/>
       <use xlink:href="#DejaVuSans-32" x="95.410156"/>
      </g>
     </g>
    </g>
    <g id="ytick_12">
     <g id="line2d_26">
      <g>
       <use xlink:href="#mabaa45f016" x="474.365" y="124.974433" style="stroke: #000000; stroke-width: 0.8"/>
      </g>
     </g>
     <g id="text_28">
      <!-- 2.4 -->
      <g transform="translate(451.461875 128.773652) scale(0.1 -0.1)">
       <use xlink:href="#DejaVuSans-32"/>
       <use xlink:href="#DejaVuSans-2e" x="63.623047"/>
       <use xlink:href="#DejaVuSans-34" x="95.410156"/>
      </g>
     </g>
    </g>
    <g id="ytick_13">
     <g id="line2d_27">
      <g>
       <use xlink:href="#mabaa45f016" x="474.365" y="91.402091" style="stroke: #000000; stroke-width: 0.8"/>
      </g>
     </g>
     <g id="text_29">
      <!-- 2.6 -->
      <g transform="translate(451.461875 95.201309) scale(0.1 -0.1)">
       <use xlink:href="#DejaVuSans-32"/>
       <use xlink:href="#DejaVuSans-2e" x="63.623047"/>
       <use xlink:href="#DejaVuSans-36" x="95.410156"/>
      </g>
     </g>
    </g>
    <g id="ytick_14">
     <g id="line2d_28">
      <g>
       <use xlink:href="#mabaa45f016" x="474.365" y="57.829748" style="stroke: #000000; stroke-width: 0.8"/>
      </g>
     </g>
     <g id="text_30">
      <!-- 2.8 -->
      <g transform="translate(451.461875 61.628967) scale(0.1 -0.1)">
       <use xlink:href="#DejaVuSans-32"/>
       <use xlink:href="#DejaVuSans-2e" x="63.623047"/>
       <use xlink:href="#DejaVuSans-38" x="95.410156"/>
      </g>
     </g>
    </g>
    <g id="text_31">
     <!-- Loss -->
     <g transform="translate(445.382187 183.427188) rotate(-90) scale(0.1 -0.1)">
      <defs>
       <path id="DejaVuSans-4c" d="M 628 4666 
L 1259 4666 
L 1259 531 
L 3531 531 
L 3531 0 
L 628 0 
L 628 4666 
z
" transform="scale(0.015625)"/>
      </defs>
      <use xlink:href="#DejaVuSans-4c"/>
      <use xlink:href="#DejaVuSans-6f" x="53.962891"/>
      <use xlink:href="#DejaVuSans-73" x="115.144531"/>
      <use xlink:href="#DejaVuSans-73" x="167.244141"/>
     </g>
    </g>
   </g>
   <g id="line2d_29">
    <path d="M 491.584773 40.114545 
L 492.341686 44.271763 
L 493.098599 45.123858 
L 493.855512 53.753222 
L 495.369338 64.537855 
L 496.126251 63.222113 
L 496.883164 76.260189 
L 497.640077 71.000623 
L 498.396991 85.771983 
L 499.153904 84.05951 
L 499.910817 86.245316 
L 500.66773 93.869863 
L 502.181556 86.689753 
L 502.938469 100.547826 
L 503.695382 98.056297 
L 504.452295 96.60136 
L 505.209208 101.321759 
L 505.966121 103.860353 
L 506.723034 104.482725 
L 507.479948 108.397013 
L 508.236861 110.970826 
L 508.993774 111.440717 
L 509.750687 115.482353 
L 510.5076 115.113076 
L 511.264513 113.374429 
L 512.021426 117.105739 
L 512.778339 115.634634 
L 513.535252 121.172549 
L 514.292165 119.081673 
L 515.049078 125.927325 
L 515.805992 123.080126 
L 516.562905 127.579927 
L 517.319818 128.812785 
L 519.590557 131.67263 
L 520.34747 134.121457 
L 521.104383 133.403674 
L 521.861296 134.579501 
L 522.618209 138.135198 
L 523.375122 138.937186 
L 524.132035 136.514694 
L 524.888949 142.790922 
L 525.645862 136.247631 
L 526.402775 143.389121 
L 527.159688 142.373579 
L 527.916601 144.082211 
L 529.430427 146.060026 
L 530.18734 152.624128 
L 530.944253 149.21587 
L 531.701166 152.326249 
L 532.458079 149.961267 
L 533.214993 150.014696 
L 533.971906 150.958919 
L 534.728819 154.707679 
L 535.485732 155.469806 
L 536.242645 155.532279 
L 536.999558 152.689763 
L 537.756471 160.171234 
L 538.513384 158.259054 
L 539.270297 158.715337 
L 540.02721 160.739777 
L 540.784123 161.243206 
L 541.541036 163.342006 
L 542.29795 164.144114 
L 543.054863 164.754839 
L 544.568689 169.776598 
L 546.082515 164.404813 
L 546.839428 172.902106 
L 547.596341 172.694955 
L 548.353254 171.595169 
L 549.110167 172.934323 
L 549.86708 166.992753 
L 550.623994 172.828987 
L 551.380907 172.45971 
L 552.13782 175.314353 
L 552.894733 174.554467 
L 553.651646 178.769516 
L 554.408559 176.382563 
L 555.165472 174.973611 
L 556.679298 179.069116 
L 557.436211 180.106789 
L 558.193124 178.15879 
L 558.950037 177.686818 
L 559.706951 181.725893 
L 560.463864 180.788673 
L 561.220777 180.244063 
L 561.97769 184.64337 
L 562.734603 186.991943 
L 563.491516 185.221958 
L 564.248429 186.27556 
L 565.005342 188.977562 
L 565.762255 192.370772 
L 566.519168 189.33083 
L 567.276081 192.631051 
L 568.032995 187.504416 
L 568.789908 195.201162 
L 569.546821 188.009606 
L 570.303734 189.34928 
L 571.060647 192.902316 
L 571.81756 190.918197 
L 573.331386 197.143198 
L 574.088299 194.255097 
L 574.845212 197.628077 
L 575.602125 196.551502 
L 576.359038 199.04003 
L 577.115952 199.702604 
L 577.872865 197.022414 
L 578.629778 196.743645 
L 579.386691 197.232706 
L 580.143604 201.753878 
L 580.900517 197.743859 
L 581.65743 204.088203 
L 582.414343 203.198328 
L 583.171256 202.500096 
L 583.928169 203.888217 
L 584.685082 200.139277 
L 585.441996 201.598075 
L 586.198909 205.313637 
L 586.955822 201.77667 
L 587.712735 206.767373 
L 588.469648 206.710762 
L 589.226561 203.949129 
L 589.983474 210.202025 
L 590.740387 209.347969 
L 591.4973 210.392346 
L 592.254213 206.880033 
L 593.011126 206.59486 
L 593.768039 211.439125 
L 594.524953 209.932961 
L 595.281866 211.801338 
L 596.038779 212.884636 
L 596.795692 211.911897 
L 597.552605 212.448944 
L 598.309518 216.761884 
L 599.066431 217.424238 
L 599.823344 211.107268 
L 600.580257 212.794608 
L 601.33717 215.072843 
L 602.094083 215.438398 
L 602.850997 214.2036 
L 603.60791 215.991013 
L 604.364823 218.555661 
L 605.121736 212.800051 
L 605.878649 217.560591 
L 606.635562 216.068895 
L 607.392475 217.550905 
L 608.149388 221.924138 
L 608.906301 224.304568 
L 609.663214 219.768148 
L 610.420127 220.133603 
L 611.17704 221.723451 
L 611.933954 227.523986 
L 612.690867 220.309617 
L 613.44778 225.549493 
L 614.204693 222.525399 
L 614.961606 225.597918 
L 615.718519 222.419022 
L 616.475432 224.001827 
L 617.232345 228.382164 
L 617.989258 226.279802 
L 618.746171 223.214267 
L 619.503084 227.490488 
L 620.259998 228.75058 
L 621.016911 225.822198 
L 621.773824 228.164207 
L 622.530737 229.844524 
L 623.28765 231.930897 
L 624.044563 229.568016 
L 624.801476 231.181777 
L 625.558389 227.145984 
L 626.315302 229.531097 
L 627.072215 232.298453 
L 627.829128 231.56082 
L 628.586041 230.400821 
L 629.342955 231.208692 
L 630.099868 234.518978 
L 630.856781 231.233165 
L 631.613694 231.002782 
L 632.370607 234.716283 
L 633.12752 235.306278 
L 633.884433 234.508612 
L 634.641346 231.685646 
L 635.398259 232.935213 
L 636.155172 237.499087 
L 636.912085 232.243404 
L 637.668999 237.537068 
L 638.425912 240.675482 
L 639.182825 236.337248 
L 639.939738 237.331898 
L 640.696651 235.577082 
L 641.453564 237.993631 
L 642.210477 237.643024 
L 642.96739 240.498147 
L 643.724303 238.532439 
L 644.481216 239.367844 
L 645.238129 235.491917 
L 645.995042 242.177924 
L 646.751956 238.745032 
L 647.508869 240.702977 
L 648.265782 238.775368 
L 649.022695 242.092978 
L 649.779608 244.566398 
L 650.536521 246.568106 
L 651.293434 239.847841 
L 652.050347 246.80033 
L 652.80726 243.088289 
L 653.564173 247.069053 
L 654.321086 239.318018 
L 655.078 246.867806 
L 655.834913 246.757547 
L 656.591826 247.449756 
L 657.348739 247.033114 
L 658.105652 241.295773 
L 659.619478 248.76926 
L 660.376391 244.845547 
L 661.133304 247.976737 
L 661.890217 248.13276 
L 662.64713 250.163244 
L 663.404043 247.177611 
L 664.160957 247.095547 
L 664.91787 253.13639 
L 665.674783 246.925817 
L 666.431696 251.46944 
L 667.188609 249.01339 
L 667.945522 253.204426 
L 668.702435 248.616819 
L 669.459348 249.35013 
L 670.216261 253.457521 
L 670.973174 247.922968 
L 671.730087 251.744127 
L 672.487 254.272616 
L 673.243914 255.74188 
L 674.000827 250.203005 
L 674.75774 254.948477 
L 675.514653 255.147243 
L 676.271566 259.536804 
L 677.028479 254.550804 
L 677.785392 257.043054 
L 678.542305 260.450852 
L 679.299218 253.99813 
L 680.056131 261.370623 
L 680.813044 259.030714 
L 681.569958 257.300831 
L 682.326871 258.701118 
L 683.083784 257.01602 
L 683.840697 262.167448 
L 684.59761 262.702193 
L 685.354523 262.478053 
L 686.111436 259.081641 
L 686.868349 258.98505 
L 687.625262 266.141008 
L 688.382175 265.187559 
L 689.139088 261.55376 
L 689.896001 266.735265 
L 690.652915 259.889252 
L 691.409828 262.30334 
L 692.166741 259.188919 
L 692.923654 259.272743 
L 693.680567 261.312572 
L 694.43748 264.632103 
L 695.951306 260.139566 
L 696.708219 261.855101 
L 697.465132 268.145437 
L 698.222045 268.246551 
L 698.978959 261.108003 
L 699.735872 267.834131 
L 700.492785 264.281956 
L 701.249698 262.22708 
L 702.006611 269.871298 
L 702.763524 263.912619 
L 703.520437 266.929728 
L 704.27735 266.456276 
L 705.034263 264.858043 
L 705.791176 270.284838 
L 706.548089 271.627134 
L 707.305002 268.753301 
L 708.061916 271.80589 
L 708.818829 272.679816 
L 709.575742 267.824446 
L 710.332655 269.960405 
L 711.089568 266.772925 
L 711.846481 272.576721 
L 712.603394 269.333311 
L 713.360307 272.654082 
L 714.11722 270.864528 
L 714.874133 272.787653 
L 715.631046 271.65581 
L 716.38796 272.966209 
L 717.144873 267.754648 
L 717.901786 278.16094 
L 718.658699 272.587447 
L 719.415612 271.929376 
L 720.172525 271.621671 
L 720.929438 277.364595 
L 721.686351 273.078629 
L 722.443264 275.645998 
L 723.200177 276.579256 
L 723.95709 276.009452 
L 724.714003 274.630477 
L 725.470917 275.744771 
L 726.22783 279.813442 
L 726.984743 273.346912 
L 727.741656 276.437481 
L 728.498569 276.104783 
L 729.255482 278.702589 
L 730.012395 275.622106 
L 730.769308 276.349734 
L 731.526221 279.503336 
L 732.283134 276.700961 
L 733.040047 276.32342 
L 733.796961 279.980531 
L 734.553874 281.418238 
L 735.310787 278.584766 
L 736.0677 279.029964 
L 736.824613 279.152009 
L 737.581526 282.816384 
L 738.338439 280.791283 
L 739.095352 282.136121 
L 739.852265 282.917137 
L 740.609178 281.662108 
L 741.366091 281.063829 
L 742.123004 281.635474 
L 742.879918 281.007519 
L 743.636831 278.663428 
L 744.393744 280.886614 
L 745.150657 285.226509 
L 745.90757 283.890437 
L 746.664483 284.12182 
L 747.421396 281.226495 
L 748.178309 286.018432 
L 749.692135 282.683473 
L 750.449048 285.132579 
L 751.205962 283.299041 
L 751.962875 287.29001 
L 752.719788 286.492365 
L 753.476701 284.135788 
L 754.233614 289.889417 
L 754.990527 288.754472 
L 755.74744 283.257299 
L 756.504353 287.202063 
L 757.261266 288.520287 
L 758.018179 281.875302 
L 758.775092 285.97653 
L 759.532005 287.797541 
L 760.288919 288.246661 
L 761.045832 290.578685 
L 761.802745 291.728978 
L 762.559658 294.033968 
L 763.316571 290.277984 
L 764.073484 288.273095 
L 764.830397 287.613283 
L 765.58731 288.141344 
L 766.344223 288.241938 
L 767.101136 288.054858 
L 767.858049 280.788722 
L 768.614963 291.20692 
L 769.371876 294.287563 
L 770.128789 292.737717 
L 770.885702 292.12609 
L 771.642615 293.694267 
L 772.399528 296.300857 
L 773.156441 284.580485 
L 773.913354 292.979846 
L 775.42718 290.209488 
L 776.184093 289.829725 
L 776.941006 286.31509 
L 777.69792 292.970081 
L 778.454833 289.74436 
L 779.211746 295.465172 
L 779.968659 296.725064 
L 780.725572 294.890565 
L 781.482485 295.001264 
L 782.239398 291.330706 
L 782.996311 296.495221 
L 783.753224 292.533107 
L 784.510137 291.861209 
L 786.023964 294.614558 
L 786.780877 299.689245 
L 787.53779 295.539111 
L 788.294703 298.980627 
L 789.051616 299.392747 
L 789.808529 294.679753 
L 790.565442 298.971042 
L 792.079268 301.220042 
L 792.836181 297.905293 
L 793.593094 301.856021 
L 794.350007 299.647203 
L 795.106921 299.057048 
L 795.863834 297.520888 
L 796.620747 294.684775 
L 797.37766 297.548183 
L 798.134573 299.284949 
L 798.891486 298.253639 
L 799.648399 294.420394 
L 800.405312 301.349231 
L 801.162225 304.077506 
L 801.919138 299.707095 
L 802.676051 299.836204 
L 803.432965 301.700718 
L 804.189878 298.452946 
L 804.946791 302.267421 
L 805.703704 292.5563 
L 806.460617 300.91714 
L 807.974443 293.123262 
L 808.731356 297.292246 
L 809.488269 296.964552 
L 810.245182 297.352078 
L 811.002095 294.3178 
L 811.759008 304.805455 
L 812.515922 302.067354 
L 813.272835 299.92425 
L 814.029748 301.569148 
L 814.786661 301.684009 
L 815.543574 299.864319 
L 816.300487 302.730368 
L 817.0574 296.072376 
L 817.814313 299.854733 
L 818.571226 296.218373 
L 819.328139 297.540059 
L 820.085052 302.058409 
L 820.841966 294.421235 
L 821.598879 299.243547 
L 822.355792 292.319834 
L 823.112705 300.121656 
L 823.869618 299.17371 
L 824.626531 302.60294 
L 826.140357 299.06107 
L 826.89727 302.332615 
L 828.411096 297.948797 
L 829.168009 294.867793 
L 829.924923 293.966212 
L 830.681836 292.193966 
L 831.438749 300.356741 
L 832.195662 301.749504 
L 832.952575 301.557342 
L 833.709488 302.703533 
L 834.466401 300.406488 
L 835.223314 301.748244 
L 835.980227 297.910196 
L 835.980227 297.910196 
" clip-path="url(#p52a7cffb9a)" style="fill: none; stroke: #1f77b4; stroke-width: 1.5; stroke-linecap: square"/>
   </g>
   <g id="line2d_30">
    <path d="M 491.584773 62.265283 
L 493.098599 76.015618 
L 495.369338 91.113473 
L 497.640077 102.375801 
L 499.910817 110.431218 
L 503.695382 121.224937 
L 505.966121 126.508716 
L 508.236861 131.434864 
L 510.5076 136.015988 
L 511.264513 137.337933 
L 512.021426 138.041828 
L 512.778339 139.009705 
L 514.292165 141.539254 
L 515.805992 145.026074 
L 517.319818 146.803182 
L 519.590557 150.606692 
L 520.34747 152.279464 
L 521.104383 153.145926 
L 521.861296 154.215297 
L 522.618209 154.778997 
L 523.375122 156.125676 
L 524.132035 156.948155 
L 526.402775 160.705079 
L 527.159688 161.597715 
L 527.916601 162.763097 
L 528.673514 163.653972 
L 530.18734 165.858988 
L 531.701166 167.636377 
L 533.214993 169.731374 
L 535.485732 174.070089 
L 536.242645 174.861631 
L 538.513384 177.775386 
L 539.270297 177.540861 
L 540.784123 179.529321 
L 541.541036 180.472344 
L 542.29795 180.837179 
L 543.054863 181.824226 
L 545.325602 185.495064 
L 547.596341 188.105777 
L 548.353254 188.761447 
L 549.110167 188.866703 
L 549.86708 189.358125 
L 551.380907 191.238648 
L 552.13782 191.481338 
L 552.894733 191.14896 
L 553.651646 191.837288 
L 554.408559 192.695465 
L 555.165472 193.355738 
L 556.679298 195.651843 
L 557.436211 196.258486 
L 558.193124 196.668725 
L 558.950037 197.44726 
L 559.706951 198.032493 
L 561.220777 199.760074 
L 561.97769 199.753811 
L 562.734603 200.166391 
L 563.491516 199.934067 
L 564.248429 200.591678 
L 565.005342 201.443172 
L 566.519168 202.493653 
L 567.276081 202.370687 
L 568.032995 202.905652 
L 574.845212 209.477298 
L 575.602125 210.00586 
L 577.115952 211.464238 
L 577.872865 211.960383 
L 578.629778 212.246335 
L 579.386691 211.743107 
L 580.143604 211.833855 
L 580.900517 211.098243 
L 581.65743 211.354119 
L 582.414343 211.889665 
L 583.171256 212.18042 
L 584.685082 213.729447 
L 585.441996 213.594555 
L 586.198909 213.930334 
L 586.955822 214.59801 
L 587.712735 214.977032 
L 588.469648 214.977933 
L 589.226561 215.393334 
L 589.983474 215.992054 
L 590.740387 216.966334 
L 592.254213 218.004367 
L 593.011126 217.995082 
L 594.524953 219.108556 
L 595.281866 219.169849 
L 596.038779 219.724965 
L 597.552605 221.141321 
L 598.309518 221.17704 
L 599.066431 221.599925 
L 599.823344 221.723852 
L 600.580257 222.237626 
L 601.33717 222.615067 
L 602.094083 223.423678 
L 602.850997 223.795497 
L 603.60791 223.338193 
L 605.121736 223.959925 
L 605.878649 224.009451 
L 606.635562 224.64439 
L 607.392475 225.079922 
L 608.149388 224.715608 
L 610.420127 225.989327 
L 611.933954 226.434745 
L 613.44778 227.488907 
L 614.204693 227.508197 
L 614.961606 227.720071 
L 615.718519 227.726774 
L 616.475432 228.349867 
L 617.232345 229.14423 
L 617.989258 229.319904 
L 618.746171 229.748293 
L 619.503084 230.017956 
L 620.259998 230.852181 
L 621.016911 230.551741 
L 621.773824 231.112961 
L 622.530737 230.789848 
L 623.28765 230.11813 
L 624.044563 230.444644 
L 626.315302 232.588848 
L 627.072215 232.783472 
L 627.829128 232.234799 
L 628.586041 232.580203 
L 629.342955 232.519651 
L 630.099868 233.027302 
L 630.856781 233.184426 
L 631.613694 232.955484 
L 632.370607 233.108445 
L 633.12752 230.68127 
L 633.884433 230.244697 
L 635.398259 231.810273 
L 636.155172 231.858618 
L 636.912085 232.726842 
L 639.182825 234.601922 
L 641.453564 235.699027 
L 642.210477 235.855431 
L 643.724303 236.527449 
L 645.238129 236.545019 
L 645.995042 237.05351 
L 646.751956 237.845172 
L 647.508869 238.164903 
L 648.265782 238.242424 
L 649.022695 238.704851 
L 650.536521 239.30351 
L 652.050347 240.370659 
L 652.80726 239.657159 
L 653.564173 239.573574 
L 654.321086 240.234667 
L 655.834913 240.365877 
L 656.591826 240.939303 
L 657.348739 241.347521 
L 658.105652 241.453397 
L 658.862565 241.136268 
L 659.619478 241.411935 
L 660.376391 240.844492 
L 661.133304 241.035754 
L 661.890217 241.531079 
L 663.404043 241.884007 
L 664.160957 242.5088 
L 664.91787 242.971247 
L 665.674783 242.80812 
L 666.431696 242.905452 
L 667.188609 243.623515 
L 667.945522 244.032273 
L 668.702435 244.202604 
L 669.459348 244.497641 
L 670.216261 244.586509 
L 670.973174 245.209941 
L 673.243914 245.923782 
L 674.75774 247.088103 
L 675.514653 247.140991 
L 677.028479 248.22605 
L 677.785392 248.33865 
L 678.542305 248.812203 
L 679.299218 249.81906 
L 680.056131 250.383461 
L 680.813044 250.411256 
L 681.569958 250.687023 
L 682.326871 251.3562 
L 683.083784 251.61878 
L 683.840697 251.372849 
L 684.59761 251.746408 
L 685.354523 251.97485 
L 686.111436 251.795094 
L 686.868349 252.354533 
L 687.625262 252.64905 
L 688.382175 253.452518 
L 689.139088 253.397049 
L 691.409828 254.116813 
L 692.923654 254.106407 
L 693.680567 253.817093 
L 694.43748 254.578559 
L 695.194393 255.181901 
L 695.951306 255.3676 
L 696.708219 255.324977 
L 697.465132 255.882935 
L 698.222045 255.9296 
L 698.978959 255.530447 
L 699.735872 255.748343 
L 700.492785 255.808976 
L 701.249698 256.008602 
L 702.763524 254.946656 
L 703.520437 255.322716 
L 704.27735 255.855921 
L 705.034263 254.721676 
L 705.791176 254.911937 
L 706.548089 255.351151 
L 707.305002 255.645628 
L 708.818829 255.971502 
L 709.575742 256.459803 
L 710.332655 256.606341 
L 711.089568 257.309376 
L 711.846481 257.363845 
L 712.603394 257.593608 
L 713.360307 257.944835 
L 714.11722 258.089072 
L 714.874133 258.570929 
L 715.631046 258.655734 
L 717.144873 259.163285 
L 717.901786 259.290393 
L 718.658699 259.561618 
L 719.415612 260.007896 
L 720.929438 259.427306 
L 721.686351 260.036511 
L 722.443264 260.235377 
L 723.200177 261.714426 
L 724.714003 261.321056 
L 725.470917 261.357215 
L 726.22783 261.582316 
L 726.984743 262.409337 
L 727.741656 263.412592 
L 728.498569 263.473845 
L 729.255482 263.646657 
L 730.769308 263.153174 
L 731.526221 263.330988 
L 733.040047 264.657216 
L 733.796961 264.574332 
L 734.553874 265.192542 
L 735.310787 265.330835 
L 736.0677 265.298998 
L 736.824613 265.005602 
L 737.581526 265.674959 
L 738.338439 265.049865 
L 739.095352 264.752387 
L 739.852265 264.955615 
L 740.609178 266.017001 
L 741.366091 266.663006 
L 742.123004 266.572578 
L 742.879918 267.135638 
L 743.636831 267.411365 
L 744.393744 267.473899 
L 747.421396 266.999746 
L 748.178309 267.147124 
L 748.935222 267.461492 
L 749.692135 267.470497 
L 750.449048 268.202367 
L 751.205962 268.232884 
L 751.962875 268.07556 
L 752.719788 268.196844 
L 753.476701 267.972285 
L 754.233614 266.924446 
L 754.990527 267.697338 
L 756.504353 267.895564 
L 757.261266 268.272745 
L 759.532005 269.986759 
L 760.288919 270.951574 
L 761.045832 271.296838 
L 761.802745 271.345564 
L 762.559658 271.588854 
L 763.316571 272.318143 
L 764.073484 272.849526 
L 764.830397 272.215108 
L 765.58731 270.451167 
L 766.344223 270.939748 
L 767.101136 270.609712 
L 767.858049 270.144784 
L 770.128789 272.103448 
L 770.885702 272.505963 
L 771.642615 273.036486 
L 772.399528 273.423153 
L 773.156441 274.141356 
L 773.913354 275.211407 
L 774.670267 275.865756 
L 775.42718 276.096479 
L 776.941006 273.318897 
L 777.69792 273.882818 
L 778.454833 273.916536 
L 779.211746 273.687193 
L 779.968659 274.045104 
L 780.725572 273.508918 
L 781.482485 273.526167 
L 782.239398 274.644184 
L 782.996311 274.604203 
L 783.753224 275.427642 
L 784.510137 272.848306 
L 785.26705 271.883151 
L 786.780877 272.168263 
L 787.53779 272.109952 
L 788.294703 272.627908 
L 789.051616 272.238561 
L 795.863834 272.9494 
L 796.620747 273.188507 
L 800.405312 273.28818 
L 801.162225 273.352215 
L 802.676051 273.172959 
L 804.946791 273.278816 
L 805.703704 273.427275 
L 830.681836 273.470158 
L 835.980227 273.47526 
L 835.980227 273.47526 
" clip-path="url(#p52a7cffb9a)" style="fill: none; stroke: #ff7f0e; stroke-width: 1.5; stroke-linecap: square"/>
   </g>
   <g id="patch_9">
    <path d="M 474.365 318.04 
L 474.365 26.88 
" style="fill: none; stroke: #000000; stroke-width: 0.8; stroke-linejoin: miter; stroke-linecap: square"/>
   </g>
   <g id="patch_10">
    <path d="M 853.2 318.04 
L 853.2 26.88 
" style="fill: none; stroke: #000000; stroke-width: 0.8; stroke-linejoin: miter; stroke-linecap: square"/>
   </g>
   <g id="patch_11">
    <path d="M 474.365 318.04 
L 853.2 318.04 
" style="fill: none; stroke: #000000; stroke-width: 0.8; stroke-linejoin: miter; stroke-linecap: square"/>
   </g>
   <g id="patch_12">
    <path d="M 474.365 26.88 
L 853.2 26.88 
" style="fill: none; stroke: #000000; stroke-width: 0.8; stroke-linejoin: miter; stroke-linecap: square"/>
   </g>
   <g id="text_32">
    <!-- Loss - Subject 4 Window Size:20.0 -->
    <g transform="translate(561.323125 20.88) scale(0.12 -0.12)">
     <defs>
      <path id="DejaVuSans-57" d="M 213 4666 
L 850 4666 
L 1831 722 
L 2809 4666 
L 3519 4666 
L 4500 722 
L 5478 4666 
L 6119 4666 
L 4947 0 
L 4153 0 
L 3169 4050 
L 2175 0 
L 1381 0 
L 213 4666 
z
" transform="scale(0.015625)"/>
      <path id="DejaVuSans-77" d="M 269 3500 
L 844 3500 
L 1563 769 
L 2278 3500 
L 2956 3500 
L 3675 769 
L 4391 3500 
L 4966 3500 
L 4050 0 
L 3372 0 
L 2619 2869 
L 1863 0 
L 1184 0 
L 269 3500 
z
" transform="scale(0.015625)"/>
      <path id="DejaVuSans-7a" d="M 353 3500 
L 3084 3500 
L 3084 2975 
L 922 459 
L 3084 459 
L 3084 0 
L 275 0 
L 275 525 
L 2438 3041 
L 353 3041 
L 353 3500 
z
" transform="scale(0.015625)"/>
      <path id="DejaVuSans-3a" d="M 750 794 
L 1409 794 
L 1409 0 
L 750 0 
L 750 794 
z
M 750 3309 
L 1409 3309 
L 1409 2516 
L 750 2516 
L 750 3309 
z
" transform="scale(0.015625)"/>
     </defs>
     <use xlink:href="#DejaVuSans-4c"/>
     <use xlink:href="#DejaVuSans-6f" x="53.962891"/>
     <use xlink:href="#DejaVuSans-73" x="115.144531"/>
     <use xlink:href="#DejaVuSans-73" x="167.244141"/>
     <use xlink:href="#DejaVuSans-20" x="219.34375"/>
     <use xlink:href="#DejaVuSans-2d" x="251.130859"/>
     <use xlink:href="#DejaVuSans-20" x="287.214844"/>
     <use xlink:href="#DejaVuSans-53" x="319.001953"/>
     <use xlink:href="#DejaVuSans-75" x="382.478516"/>
     <use xlink:href="#DejaVuSans-62" x="445.857422"/>
     <use xlink:href="#DejaVuSans-6a" x="509.333984"/>
     <use xlink:href="#DejaVuSans-65" x="537.117188"/>
     <use xlink:href="#DejaVuSans-63" x="598.640625"/>
     <use xlink:href="#DejaVuSans-74" x="653.621094"/>
     <use xlink:href="#DejaVuSans-20" x="692.830078"/>
     <use xlink:href="#DejaVuSans-34" x="724.617188"/>
     <use xlink:href="#DejaVuSans-20" x="788.240234"/>
     <use xlink:href="#DejaVuSans-57" x="820.027344"/>
     <use xlink:href="#DejaVuSans-69" x="916.654297"/>
     <use xlink:href="#DejaVuSans-6e" x="944.4375"/>
     <use xlink:href="#DejaVuSans-64" x="1007.816406"/>
     <use xlink:href="#DejaVuSans-6f" x="1071.292969"/>
     <use xlink:href="#DejaVuSans-77" x="1132.474609"/>
     <use xlink:href="#DejaVuSans-20" x="1214.261719"/>
     <use xlink:href="#DejaVuSans-53" x="1246.048828"/>
     <use xlink:href="#DejaVuSans-69" x="1309.525391"/>
     <use xlink:href="#DejaVuSans-7a" x="1337.308594"/>
     <use xlink:href="#DejaVuSans-65" x="1389.798828"/>
     <use xlink:href="#DejaVuSans-3a" x="1451.322266"/>
     <use xlink:href="#DejaVuSans-32" x="1485.013672"/>
     <use xlink:href="#DejaVuSans-30" x="1548.636719"/>
     <use xlink:href="#DejaVuSans-2e" x="1612.259766"/>
     <use xlink:href="#DejaVuSans-30" x="1644.046875"/>
    </g>
   </g>
   <g id="legend_2">
    <g id="patch_13">
     <path d="M 739.70625 64.23625 
L 846.2 64.23625 
Q 848.2 64.23625 848.2 62.23625 
L 848.2 33.88 
Q 848.2 31.88 846.2 31.88 
L 739.70625 31.88 
Q 737.70625 31.88 737.70625 33.88 
L 737.70625 62.23625 
Q 737.70625 64.23625 739.70625 64.23625 
z
" style="fill: #ffffff; opacity: 0.8; stroke: #cccccc; stroke-linejoin: miter"/>
    </g>
    <g id="line2d_31">
     <path d="M 741.70625 39.978437 
L 751.70625 39.978437 
L 761.70625 39.978437 
" style="fill: none; stroke: #1f77b4; stroke-width: 1.5; stroke-linecap: square"/>
    </g>
    <g id="text_33">
     <!-- Training Loss -->
     <g transform="translate(769.70625 43.478437) scale(0.1 -0.1)">
      <use xlink:href="#DejaVuSans-54"/>
      <use xlink:href="#DejaVuSans-72" x="46.333984"/>
      <use xlink:href="#DejaVuSans-61" x="87.447266"/>
      <use xlink:href="#DejaVuSans-69" x="148.726562"/>
      <use xlink:href="#DejaVuSans-6e" x="176.509766"/>
      <use xlink:href="#DejaVuSans-69" x="239.888672"/>
      <use xlink:href="#DejaVuSans-6e" x="267.671875"/>
      <use xlink:href="#DejaVuSans-67" x="331.050781"/>
      <use xlink:href="#DejaVuSans-20" x="394.527344"/>
      <use xlink:href="#DejaVuSans-4c" x="426.314453"/>
      <use xlink:href="#DejaVuSans-6f" x="480.277344"/>
      <use xlink:href="#DejaVuSans-73" x="541.458984"/>
      <use xlink:href="#DejaVuSans-73" x="593.558594"/>
     </g>
    </g>
    <g id="line2d_32">
     <path d="M 741.70625 54.656563 
L 751.70625 54.656563 
L 761.70625 54.656563 
" style="fill: none; stroke: #ff7f0e; stroke-width: 1.5; stroke-linecap: square"/>
    </g>
    <g id="text_34">
     <!-- Validation Loss -->
     <g transform="translate(769.70625 58.156563) scale(0.1 -0.1)">
      <use xlink:href="#DejaVuSans-56"/>
      <use xlink:href="#DejaVuSans-61" x="60.658203"/>
      <use xlink:href="#DejaVuSans-6c" x="121.9375"/>
      <use xlink:href="#DejaVuSans-69" x="149.720703"/>
      <use xlink:href="#DejaVuSans-64" x="177.503906"/>
      <use xlink:href="#DejaVuSans-61" x="240.980469"/>
      <use xlink:href="#DejaVuSans-74" x="302.259766"/>
      <use xlink:href="#DejaVuSans-69" x="341.46875"/>
      <use xlink:href="#DejaVuSans-6f" x="369.251953"/>
      <use xlink:href="#DejaVuSans-6e" x="430.433594"/>
      <use xlink:href="#DejaVuSans-20" x="493.8125"/>
      <use xlink:href="#DejaVuSans-4c" x="525.599609"/>
      <use xlink:href="#DejaVuSans-6f" x="579.5625"/>
      <use xlink:href="#DejaVuSans-73" x="640.744141"/>
      <use xlink:href="#DejaVuSans-73" x="692.84375"/>
     </g>
    </g>
   </g>
  </g>
 </g>
 <defs>
  <clipPath id="p5227a130a1">
   <rect x="47.72" y="26.88" width="378.835" height="291.16"/>
  </clipPath>
  <clipPath id="p52a7cffb9a">
   <rect x="474.365" y="26.88" width="378.835" height="291.16"/>
  </clipPath>
 </defs>
</svg>
